<?xml version="1.0" encoding="UTF-8" standalone="no"?>
<!-- Created with Inkscape (http://www.inkscape.org/) -->

<svg
   xmlns:dc="http://purl.org/dc/elements/1.1/"
   xmlns:cc="http://creativecommons.org/ns#"
   xmlns:rdf="http://www.w3.org/1999/02/22-rdf-syntax-ns#"
   xmlns:svg="http://www.w3.org/2000/svg"
   xmlns="http://www.w3.org/2000/svg"
   xmlns:sodipodi="http://sodipodi.sourceforge.net/DTD/sodipodi-0.dtd"
   xmlns:inkscape="http://www.inkscape.org/namespaces/inkscape"
   width="150"
   height="144"
   id="svg2"
   version="1.1"
   inkscape:version="0.47 r22583"
   style="display:inline"
   sodipodi:docname="New document 1">
  <title
     id="title3006">Pumpkin Pie Slice</title>
  <defs
     id="defs4">
    <inkscape:perspective
       sodipodi:type="inkscape:persp3d"
       inkscape:vp_x="0 : 526.18109 : 1"
       inkscape:vp_y="0 : 1000 : 0"
       inkscape:vp_z="744.09448 : 526.18109 : 1"
       inkscape:persp3d-origin="372.04724 : 350.78739 : 1"
       id="perspective10" />
    <inkscape:perspective
       id="perspective2903"
       inkscape:persp3d-origin="0.5 : 0.33333333 : 1"
       inkscape:vp_z="1 : 0.5 : 1"
       inkscape:vp_y="0 : 1000 : 0"
       inkscape:vp_x="0 : 0.5 : 1"
       sodipodi:type="inkscape:persp3d" />
    <inkscape:perspective
       id="perspective2943"
       inkscape:persp3d-origin="0.5 : 0.33333333 : 1"
       inkscape:vp_z="1 : 0.5 : 1"
       inkscape:vp_y="0 : 1000 : 0"
       inkscape:vp_x="0 : 0.5 : 1"
       sodipodi:type="inkscape:persp3d" />
  </defs>
  <sodipodi:namedview
     id="base"
     pagecolor="#ffffff"
     bordercolor="#666666"
     borderopacity="1.0"
     inkscape:pageopacity="0.0"
     inkscape:pageshadow="2"
     inkscape:zoom="3.7897691"
     inkscape:cx="60.167439"
     inkscape:cy="71.845368"
     inkscape:document-units="px"
     inkscape:current-layer="layer3"
     showgrid="false"
     inkscape:window-width="1280"
     inkscape:window-height="780"
     inkscape:window-x="-4"
     inkscape:window-y="-3"
     inkscape:window-maximized="1" />
  <metadata
     id="metadata7">
    <rdf:RDF>
      <cc:Work
         rdf:about="">
        <dc:format>image/svg+xml</dc:format>
        <dc:type
           rdf:resource="http://purl.org/dc/dcmitype/StillImage" />
        <dc:title>Pumpkin Pie Slice</dc:title>
        <dc:date>2010-10-12</dc:date>
        <dc:creator>
          <cc:Agent>
            <dc:title>Steven Garcia / cgbug</dc:title>
          </cc:Agent>
        </dc:creator>
        <dc:rights>
          <cc:Agent>
            <dc:title>Public Domain</dc:title>
          </cc:Agent>
        </dc:rights>
        <cc:license
           rdf:resource="http://creativecommons.org/licenses/publicdomain/" />
        <dc:publisher>
          <cc:Agent>
            <dc:title>openclipart.org</dc:title>
          </cc:Agent>
        </dc:publisher>
        <dc:identifier>http://webwhammy.com/</dc:identifier>
        <dc:source>http://webwhammy.com/</dc:source>
        <dc:relation>http://webwhammy.com/</dc:relation>
        <dc:language>en-US</dc:language>
        <dc:description>Pumpkin Pie Slice</dc:description>
        <dc:subject>
          <rdf:Bag>
            <rdf:li>thanksgiving2010</rdf:li>
            <rdf:li>pie</rdf:li>
            <rdf:li>pumpkin</rdf:li>
            <rdf:li>pumpkin pie</rdf:li>
            <rdf:li>slice</rdf:li>
            <rdf:li>pie slice</rdf:li>
            <rdf:li>whipped cream</rdf:li>
            <rdf:li>seasonal</rdf:li>
            <rdf:li>photorealistic</rdf:li>
            <rdf:li>dessert</rdf:li>
            <rdf:li>food</rdf:li>
            <rdf:li>treat</rdf:li>
            <rdf:li>tasty</rdf:li>
            <rdf:li>crust</rdf:li>
            <rdf:li>pie crust</rdf:li>
            <rdf:li>gormet</rdf:li>
            <rdf:li>homemade</rdf:li>
            <rdf:li>bakery</rdf:li>
          </rdf:Bag>
        </dc:subject>
      </cc:Work>
      <cc:License
         rdf:about="http://creativecommons.org/licenses/publicdomain/">
        <cc:permits
           rdf:resource="http://creativecommons.org/ns#Reproduction" />
        <cc:permits
           rdf:resource="http://creativecommons.org/ns#Distribution" />
        <cc:permits
           rdf:resource="http://creativecommons.org/ns#DerivativeWorks" />
      </cc:License>
    </rdf:RDF>
  </metadata>
  <g
     inkscape:groupmode="layer"
     id="layer3"
     inkscape:label="slice">
    <g
       id="g2909">
      <path
         style="fill:#fdfcfb"
         d="M 25.15676,60.133237 C 27.158748,50.671693 34.191843,20.750946 43.52553,19.275716 62.704637,15.685783 57.849108,18.690919 77.256194,18.34957 98.701554,23.81968 88.251397,33.667323 100.77115,48.568875 96.106172,92.91769 92.164115,64.569255 73.195109,96.477126 57.669567,115.25671 30.559839,105.11682 20.720574,92.793283 21.178577,83.604737 19.672554,92.313648 25.15676,60.133237 z"
         id="path2933"
         sodipodi:nodetypes="ccccccc" />
      <path
         style="fill:#e4cfa6"
         d="M 2.469615,142.81882 C -1.1084777,137.45988 0.9700837,129.91145 0.97368226,123.67863 2.5706479,107.75753 5.114873,91.53015 12.785609,77.261156 21.600692,56.821696 30.785434,36.284279 35.887356,14.540139 35.654055,8.9460853 39.109149,0.38173765 44.921751,7.4047368 c 7.642513,4.6105302 12.766668,-8.04067244 20.913976,-5.839029 8.52122,1.3096527 12.833229,10.3830292 20.84079,12.6132222 8.086427,-1.240694 17.681923,-3.477413 23.991143,3.678316 4.55919,4.665021 8.89833,11.380657 16.38741,10.700227 8.46146,0.961491 13.33675,8.915065 16.99508,15.754908 4.86111,2.211114 8.11099,6.577521 4.37262,11.977269 -6.60768,9.74498 -13.42315,19.831543 -15.7001,31.632947 -1.97443,6.507923 0.28945,15.866503 -7.24477,19.314813 -13.4559,5.82606 -28.156798,7.95379 -42.075306,12.44095 -25.974994,7.40472 -51.625723,15.90224 -77.6306539,23.20419 -1.0950672,0.1986 -2.215365,0.13444 -3.3023251,-0.0637 z M 87.604772,65.5 C 93.551217,62.067253 94.200553,55.283502 90.158961,49.685468 88.507927,45.926891 86.194465,43.756797 83.643251,47.379767 81.678552,44.651639 87.96265,43.269108 82.5,41.318046 79.81875,39.85188 71.139099,43.993611 75.430752,37.926389 c 1.322961,-2.880099 7.877192,2.76752 3.63916,-1.606509 -1.91139,-3.866508 -12.204985,-0.392936 -10.631257,-4.516107 6.797733,-0.156751 -3.194354,-8.377372 -5.775592,-9.035047 -2.486687,1.718896 -8.994444,-4.141313 -13.135891,-0.766784 4.730977,-0.117063 7.300577,4.643339 10.214727,6.158933 -0.225575,-6.872092 13.711993,2.648209 4.194378,1.057404 -7.684117,-2.796457 -10.017343,8.635478 -2.200279,8.976558 3.926789,-4.214614 5.367338,8.787137 5.435092,11.940007 -9.115918,-0.694104 -2.418842,10.805169 3.106073,11.301741 4.457421,3.446573 12.191306,6.285641 17.327609,4.063415 z"
         id="path2931" />
      <path
         style="fill:#d1b68e"
         d="M 1,135.87746 C 1.0774509,116.8569 2.9026909,97.210197 11.828263,80.077262 19.021198,63.16578 26.098196,46.176475 32.615838,29.002978 35.818911,21.479418 35.46119,12.180789 38.523589,5.1691255 40.915486,9.1549559 41.425263,3.670168 44.322222,8.0260587 51.534047,13.164247 56.477994,1.085127 64.078021,1.7072658 c 6.841933,0.4982368 11.873626,6.1037705 14.62897,11.2691812 -1.86915,3.831787 5.229981,8.039001 4.913267,2.229429 7.98743,-0.85911 16.881672,-4.521316 24.235382,0.769461 6.24378,3.711792 8.9242,12.756877 17.1088,13.290668 7.9481,-1.601975 13.39737,6.347907 16.99835,12.291343 1.46417,5.953627 12.13199,7.430034 6.35467,14.445205 -9.62857,12.996294 -17.19005,28.386077 -17.58099,44.827667 -2.42691,7.47524 -11.75837,8.20405 -18.13282,10.60597 -25.444408,6.50647 -50.567739,14.15566 -75.575778,22.16144 -10.81585,2.99986 -21.470048,7.43096 -32.743487,8.15083 C 0.96796322,141.84538 0.86916175,138.26012 1,135.87746 z M 80.75,75.980888 c 7.366233,-4.141973 -8.128844,1.283337 -2.40677,-3.442506 6.580057,0.558315 14.511431,-2.161235 14.798158,-9.915335 1.242996,-8.784429 -3.850213,-17.16126 -10.839486,-22.09827 -1.85603,-7.103569 -12.200788,-6.101205 -13.581418,-14.017143 -4.97808,-3.196894 -10.290551,-6.746473 -16.911467,-6.002057 -3.413646,-0.769474 -7.460422,1.671266 -1.808732,2.624612 7.216446,0.385733 9.446221,7.637688 2.716244,11.271993 -3.06664,3.485465 1.015215,4.898483 2.417872,1.166946 1.489799,2.57499 0.432863,4.44523 3.365404,2.173429 2.620316,5.520817 1.081679,12.611278 3.028898,18.630443 1.475738,3.176521 -1.571771,6.234349 -0.690192,1.151761 0.406969,-5.286358 -7.398787,1.42206 -3.395809,-3.606522 1.804925,-3.117019 -8.506855,-0.344201 -10.991747,-2.436886 -3.363844,-2.569082 -1.352453,5.359641 -4.755229,0.186144 -1.518668,-5.553723 -4.306564,-9.480461 -8.947969,-3.783021 -5.325227,5.371221 6.618692,11.680294 11.165786,8.862992 4.511614,-3.794288 2.03572,5.740336 7.064844,1.259487 2.403439,1.883765 6.909177,-2.459229 3.469387,2.699845 3.733456,-1.16567 11.788482,4.859557 11.920366,10.891452 3.128031,4.210563 9.502215,5.263302 14.38186,4.382636 z"
         id="path2929" />
      <path
         style="fill:#d19f61"
         d="M 1,138.48247 C 1.2915368,121.62405 2.4724126,104.38841 8.2610414,88.420607 18.852677,64.99149 29.335477,41.284041 35.886054,16.355997 36.843503,12.346987 36.551033,2.3498881 41.555929,8.1169115 46.889536,8.297209 52.486681,17.339486 56.231935,16.266387 56.551093,10.797879 48.331866,8.2885225 55.582916,6.6341607 55.131902,2.3517958 62.223808,3.1590266 62.98488,5.0938506 c 1.616411,-8.0896079 9.632251,4.4895826 12.692683,7.0264224 3.569945,2.56891 -2.164418,1.575912 2.938943,4.952568 3.317083,0.976832 8.048524,7.092954 8.419807,0.104658 4.373347,-5.684665 13.021687,-4.196632 18.875987,-1.928825 6.91427,1.759051 7.54143,10.227049 13.89426,12.678067 5.77143,2.389546 13.30718,0.175766 17.08387,6.631033 4.71166,5.122913 6.15342,12.656707 12.59978,15.122917 0.55279,8.416723 -8.16946,13.581347 -10.74352,21.094847 -4.55835,8.913919 -7.80876,18.672564 -7.99949,28.745426 -1.56553,8.109306 -10.99836,9.382736 -17.52655,11.649786 -22.602608,5.79784 -45.05264,12.16429 -67.222585,19.45615 -13.587906,3.91771 -26.964013,9.11005 -41.0306373,10.98113 C 2.9338914,141.88574 0.64958514,140.88377 1,138.48247 z M 84.695984,73.909461 C 91.951556,69.650264 96.710304,60.173295 92.460571,52.203656 88.822262,45.659697 83.545468,39.815793 77.96913,34.961868 71.386052,32.782483 69.764945,25.251839 63.667594,22.723628 58.299501,21.485049 49.408782,17.940509 45.411982,22.209925 c 3.847327,3.17322 10.16274,0.672165 12.294268,5.605964 -1.173712,4.811624 -9.549129,-3.62589 -10.826619,3.510951 -2.368548,7.582549 -9.389356,11.441846 -14.576002,17.03425 -5.97075,6.539875 0.914195,12.913943 7.696371,11.260798 2.800611,0.477953 8.129753,1.615263 9.387431,5.013697 3.343823,-6.946031 11.350477,4.191301 12.509735,8.550176 5.972939,4.102469 15.433135,5.968327 21.710932,1.441533 l 1.087886,-0.717833 0,0 z M 58.410267,52.788631 c -4.195974,-1.760157 -10.320274,-2.57104 -14.514364,-1.810369 0.331434,6.643477 -5.882498,-4.300687 -2.263091,-4.926439 2.832305,-4.395132 10.808385,-4.648903 14.233835,-9.123264 0.108204,3.737138 -5.752343,6.532557 0.471697,6.76392 2.712115,2.87964 3.225044,7.390451 3.812922,10.807521 l -0.784285,-0.502715 -0.956714,-1.208654 0,0 z"
         id="path2927" />
      <path
         style="fill:#b38d5c"
         d="M 1,138.48247 C 1.2904071,121.62716 2.4653242,104.38803 8.2918334,88.434304 16.805374,69.920416 24.478006,51.011894 31.703928,31.963941 c 2.941373,-7.841231 4.459365,-16.08081 5.640509,-24.327719 3.630578,-0.00553 9.134339,7.493068 14.53376,8.377307 1.77485,4.350776 9.029634,2.873401 4.404264,-1.77329 C 55.046245,10.931808 55.169259,7.1818367 58.048558,9.9699893 57.992058,8.2869684 56.798832,0.53407386 61,5 c 4.405368,5.232451 0.732857,-5.00912126 4.794179,-0.3531453 6.133378,5.5049873 9.696239,14.1482103 18.126338,16.7756873 4.06341,2.947652 7.062372,5.281567 6.871786,-0.550906 4.899861,-0.505414 0.936532,-9.627118 7.137574,-6.1346 8.170213,0.485485 8.902903,10.264347 12.786833,15.378613 3.35286,1.999224 6.66719,13.153562 8.59598,4.16022 2.79485,-1.026861 3.38699,-7.176671 7.5922,-2.958448 2.43287,6.895963 3.99603,14.997517 9.71537,19.956632 4.19492,4.045041 10.14435,-6.482669 12.55076,0.649791 -1.06777,7.77027 -8.6103,12.66033 -11.10507,20.016546 -4.17567,8.402579 -7.04949,17.573566 -7.27504,26.999339 -0.87763,8.112621 -9.26715,9.272531 -15.29691,11.359071 -20.427402,5.91956 -41.130622,10.9137 -61.289769,17.7562 -16.00221,4.70828 -31.751483,10.6883 -48.2356661,13.48759 C 3.7963007,141.88151 0.58395327,141.4488 1,138.48247 z M 28.261381,94.209579 c 5.145576,-1.029495 -1.712405,-8.541337 2.723306,-5.490964 -1.259325,-3.890181 -9.01564,1.539814 -6.671832,-5.345997 3.152188,-1.096698 2.759062,-6.135671 -0.115137,-1.950049 -0.206745,-2.301159 3.429411,-7.782308 -0.89824,-3.895721 0.750059,3.171087 -5.717815,9.401093 -3.39952,3.070258 3.005699,-3.688379 0.200903,-6.74916 -1.317195,-1.356178 -3.643144,2.126297 -4.294872,10.909306 -1.360612,3.072002 3.800037,1.143424 -5.612906,10.765932 0.793162,9.468451 0.354013,0.117842 5.019278,-2.442668 1.549214,1.258856 -1.938404,1.466091 -10.7153646,3.05748 -3.622694,3.189162 4.139878,-0.275663 8.382169,-0.63439 12.319548,-2.01982 z M 98.782984,77.419074 c 2.445156,-0.563519 11.663526,-3.504211 5.528816,-4.406567 3.29764,-2.17829 -6.17474,-2.105557 -3.10386,-6.915534 C 99.635803,62.431062 92.783395,60.712131 93.365156,54.462599 91.925746,47.975248 85.163775,43.6597 82.675323,38.695078 77.668503,33.991914 71.061255,31.576076 67.623167,25.5 62.537532,20.865717 54.677215,20.269537 47.911004,20.473288 c -6.915023,1.99316 6.151905,7.903305 7.195985,4.026712 -0.82899,2.650512 5.355892,3.907102 0.105149,4.407376 C 48.438471,25.5884 45.238817,32.112824 43.479149,37.710573 38.437014,42.464118 31.951109,46.895516 30,53.83868 c -0.823576,7.359816 5.338043,6.982948 10.243283,6.065961 1.843432,4.283096 9.020152,0.301916 10.46359,6.291683 3.920918,-0.03791 -3.497471,-7.201062 1.91676,-3.213836 3.890815,3.533655 4.143004,9.603798 9.302662,13.233049 6.301892,3.246074 12.781956,2.000295 19.331158,-0.105258 5.22964,-1.360624 8.992058,-7.802525 12.656863,-9.569699 0.658404,5.231843 -2.004475,11.14576 -5.235541,13.841867 3.366223,-0.993545 6.726503,-2.008374 10.104209,-2.963373 z M 42,51.7 c -1.411473,-3.104278 -2.496942,-4.868956 2.040885,-4.370676 2.773046,-1.479113 -4.052368,-4.888999 1.883029,-3.938346 3.263116,-1.783106 6.82072,-4.02009 9.409305,-5.583624 -2.330357,5.136154 -8.644545,8.805931 -10.953737,12.284773 C 42.015187,48.845195 43.943019,56.8436 42,51.7 z m 5.456492,-1.270397 c 0.886409,-4.510391 10.854558,-11.422385 8.33473,-2.032004 -0.235527,3.814691 -6.112268,3.761042 -8.33473,2.032004 z"
         id="path2925" />
      <path
         style="fill:#a37447"
         d="M 1.5435215,130.75 C 2.7928635,115.24283 2.2900551,98.714944 10.292792,84.794383 17.955837,67.813912 24.71061,50.431524 31.640765,33.144375 34.963642,24.937729 35.990313,16.103492 37.585987,7.5 c 5.640418,2.781446 9.812964,7.910042 15.377538,9.963525 7.856078,7.048222 1.936225,-6.367048 4.521572,-7.33087 3.140114,0.99471 -2.583669,-9.46538513 3.043415,-4.882655 2.430023,4.845599 3.655282,-0.4842323 4.625094,-1.3624755 6.090862,4.6365045 8.191006,14.1981165 15.67891,16.2492035 3.743355,0.612645 10.898403,10.556133 10.046702,2.13759 -1.501576,-2.31502 4.857903,-1.941819 2.972136,-6.123347 6.139462,-4.06125 13.705966,3.093628 13.719756,9.504581 3.52417,5.549378 8.0272,10.896527 12.3043,15.243609 -1.66338,-4.618643 1.04601,-8.623012 4.73741,-10.406096 3.82904,2.486317 2.05603,9.703151 7.38718,11.006935 -3.53342,2.333773 2.4032,12.954771 7.22248,10.656571 3.62559,-3.900614 12.46204,-2.853623 8.91048,3.984715 -9.51348,10.810782 -15.56145,24.843996 -17.10873,39.145134 0.81681,7.13674 -5.17883,13.35417 -11.89809,12.76111 -6.92458,4.61873 -15.7363,4.82753 -23.486969,7.47782 -8.228333,2.11467 -16.356772,4.69877 -24.580822,6.75853 -2.213719,-1.39538 -1.384476,-5.94593 -2.227798,-0.72449 -3.964898,4.17981 -8.885324,3.7126 -13.620022,5.43894 -3.229116,-3.24318 -1.685211,4.02241 -6.675935,2.70048 C 34.15616,133.63546 20.084405,138.78866 5.524096,141.98623 -1.4312683,143.27054 1.8601141,134.46986 1.5435215,130.75 z M 21,95.915736 C 26.846155,95.126373 32.457706,93.982995 37.54165,92.43261 38.023001,92.68125 28.131721,90.570935 34,89.789749 39.642633,88.990353 26.319836,87.699322 27.810445,82.654283 26.603106,77.444141 30.21553,69.461317 21.581787,70.893011 c -2.381143,-0.956375 -2.238893,9.90271 -3.94359,4.383382 -0.635867,1.826651 -6.132835,12.026274 -2.890443,16.869147 -4.240617,-1.708066 -6.7112814,8.50302 -0.377227,4.833658 C 16.583064,96.641847 18.790815,96.274126 21,95.915736 z M 94.572435,79.006048 c 6.552265,-2.038314 13.559865,-3.861098 19.107655,-7.990862 -3.09271,-0.624159 -7.74328,0.404303 -6.43438,-4.402278 -2.41621,-0.606506 -2.91597,-3.512825 -5.00811,-3.325717 -2.318211,-2.912281 -4.656403,-10.365289 -7.761759,-10.228854 3.22457,2.673195 1.212713,5.723072 -0.657079,1.000997 -0.821484,-4.47854 -8.739536,-10.970956 -7.067048,-13.265584 4.437637,4.410683 2.02058,-3.296451 -2.126558,-1.362782 -5.633881,-1.729612 8.625622,-3.155215 1.487794,-3.673684 -7.613206,-0.07439 -14.687206,-3.535735 -18.301723,-10.318989 -4.535717,-4.35135 -12.075997,-5.447196 -18.651052,-4.84222 -8.792756,-0.493691 4.494655,7.785808 -2.874461,8.522973 -2.540868,1.91479 -0.823937,11.934345 -5.035715,8.16118 -1.576254,-3.559674 -11.48609,0.857687 -3.771678,-0.102052 2.60921,2.141605 2.951108,4.074596 -1.291882,6.149885 -1.453081,0.896363 -4.72805,1.794426 -1.849688,1.852038 -5.042565,5.396125 -7.98098,13.222699 -0.415167,17.85399 3.58327,7.200011 15.078802,-4.666196 14.881722,3.638206 4.295121,4.750792 5.755975,10.850781 12.363955,12.218111 9.98822,0.432357 20.869559,-1.688466 28.821681,-8.033435 1.396058,-3.523006 4.66133,-6.544211 3.620065,-0.313296 0.932492,5.778458 -6.605443,9.091391 -8.718716,10.778993 3.275956,-0.540605 6.468226,-1.498248 9.682144,-2.31662 z"
         id="path2923" />
      <path
         style="fill:#ab6e34"
         d="M 1.6051135,132 C 2.495114,115.35382 2.97815,97.865825 11.598584,83.051885 12.656949,79.40326 18.466454,73.447766 15.461112,81.079113 15.191703,85.809928 6.8836234,94.163597 12.553167,96.938224 19.305022,96.05582 26.812233,95.632439 33,93.426953 c 2.505566,0.560232 7.716242,-2.348986 1.831275,-1.64872 -0.599936,-1.475437 5.23586,-3.144649 -0.850765,-3.357927 -7.221745,-2.117663 -5.780445,-11.641343 -4.998746,-17.46381 0.04946,-3.793708 2.293691,-10.76241 5.265322,-3.876451 4.53081,2.671942 11.016338,3.515077 14.231,8.035281 3.167474,1.899254 4.86524,1.119201 5.612948,3.585375 12.118365,1.608128 26.217538,1.47012 35.760761,-7.33913 2.287051,-3.198233 5.148775,-4.524712 3.346622,0.684325 -0.554804,4.909334 -5.550916,7.108126 -8.848765,9.431334 9.444334,-1.797674 18.741898,-4.756078 27.443598,-8.824097 2.31307,-0.795385 5.58792,-4.397613 5.72977,-5.86032 -4.00242,2.765036 -10.26825,-8.536125 -10.77449,-1.458021 -4.14631,-3.954055 -1.18035,-7.322557 -7.422844,-9.834792 -4.627617,-2.329883 -9.263532,-6.801662 -4.963525,-12.467247 -0.859581,-3.976849 3.362362,-4.460337 3.359657,-8.289593 3.256872,-4.243021 -6.935142,0.570491 -9.14252,0.507632 -5.636584,-0.49184 -15.480883,0.31852 -17.030481,-6.564053 -5.080734,-7.170397 -15.050569,-8.541029 -23.257318,-8.065604 -8.398477,0.303472 5.685195,8.260847 -3.455854,8.972198 -1.763135,2.233179 -4.836834,8.87874 -4.131053,1.906076 -4.226449,-2.50204 6.080462,-2.787056 -0.863003,-3.599208 -3.358912,2.066367 -6.562187,-1.35547 -4.286617,-3.944075 2.077765,6.371503 6.020227,-2.535619 1.786799,-2.775441 -2.933421,-5.515889 -0.503058,-17.3678407 6.55233,-9.509313 4.240909,2.577799 9.171702,7.953386 13.745509,7.060602 0.899824,-3.004873 -4.008115,-9.6116825 1.282111,-8.8344753 -3.639489,-6.0411813 1.290548,-6.0037812 4.469337,-2.6491252 0.417904,-7.93577807 7.956958,2.5734323 8.297948,5.7164165 4.086952,5.109299 9.497867,7.250494 15.156365,10.793275 1.89493,5.173567 7.127212,0.973295 3.639902,-3.044872 7.413568,2.220087 -0.677742,-7.834628 6.498769,-5.630417 9.865538,-0.462919 9.378658,10.272772 13.831688,15.886212 5.23648,1.596888 4.46683,11.308826 9.61222,10.085628 -1.15166,-3.603192 -2.21472,-6.305489 1.49179,-6.761537 -0.84695,-6.48709 7.44413,-2.93053 5.46202,2.064122 -0.18762,3.817548 8.18845,4.813545 1.98432,6.593448 3.11966,2.690074 -0.16962,8.176445 4.905,6.760198 2.41173,8.357069 10.47554,-4.709148 14.38535,1.857311 0.0588,7.460751 -8.15888,11.007386 -10.17969,17.924211 -3.94737,9.272403 -7.31863,19.048119 -7.76251,29.17255 -2.58649,-3.760393 -11.36635,5.216511 -4.83259,2.917081 1.96032,-2.447013 6.5468,3.31565 1.89475,1.74718 -3.40001,-2.71958 -1.54474,6.679 -4.47282,1.38624 -2.05284,-0.54228 -9.06094,-0.28682 -7.0856,1.40989 6.72053,0.68164 -7.52462,8.68935 -5.24014,0.5044 -3.63527,0.50959 -1.85659,8.20697 -8.08684,6.25397 -3.186709,-0.11648 -7.688364,-3.15519 -4.186617,1.24525 -2.462155,-0.5542 -6.149383,-3.17769 -5.86013,1.52613 -4.821508,3.23227 -2.527431,-4.52501 -6.470631,-0.67491 -2.929033,-5.00754 -6.924038,9.78095 -6.656584,0.99988 -3.104131,-0.16278 -5.895971,1.60811 -2.799962,3.48005 -3.376844,4.32407 -10.166382,-4.19227 -8.575985,3.5627 -3.034439,4.13941 -12.092735,-5.29499 -10.827018,2.00912 5.258555,1.7648 -3.520491,3.04394 -3.27334,-1.02493 -5.166213,1.43543 0.363519,5.94065 -6.455847,5.55273 -3.492393,2.90882 -3.899836,-3.89286 -6.174893,0.93856 -2.400727,2.18578 -13.030522,5.96229 -7.649338,0.39385 -3.852614,-4.5331 -4.168735,7.25692 -10.0261,6.0339 -5.617685,1.17576 -12.222507,4.99708 -17.6428724,2.05852 -0.7294168,1.60048 0.9722189,5.91619 -2.7920192,1.76547 -1.165792,-2.46323 -2.63059457,3.09462 -2.076241,-2.70524 0.00198,-2.01615 0.082876,-4.03135 0.1817011,-6.04476 z M 114,62.559017 c 0.0986,-5.137013 9.005,-1.787396 6.1373,-8.306718 0.29711,-2.514432 5.48087,-4.819603 -0.1373,-5.033062 8.60765,-3.897847 -5.63226,-2.049868 -8.36186,-4.115928 -2.10651,-2.069449 -9.21337,-2.958333 -3.55004,0.243387 6.67276,1.582638 -0.61927,6.673122 3.81988,8.748931 0.26936,6.940825 -7.55043,2.424306 -4.08973,-2.338999 -1.75035,-3.086992 -2.91257,0.05974 -1.40995,1.68129 -2.8327,0.750575 -5.27455,-5.683365 -4.16932,0.247395 1.61327,5.299835 6.142,6.904954 9.73382,10.292826 1.01232,1.270359 2.44076,-0.249308 2.0272,-1.419122 z M 16.010824,74.25 c 2.979833,-12.517429 10.647968,-23.261016 14.037184,-35.6625 0.297029,-3.36202 5.785978,-13.780905 7.736344,-7.434016 0.117208,4.269431 -10.980936,6.063047 -3.597174,7.039927 4.464219,-4.226561 6.291089,4.86708 0.584822,2.671181 -6.287769,-0.961853 5.568048,2.381508 -0.942124,2.773494 -3.395681,5.472446 -6.02084,12.42909 -8.507999,18.376509 C 25.131045,63.981616 17.362024,66.263218 22,67.440983 19.217741,68.845607 20.05338,74.606363 16.010824,74.25 z"
         id="path2921" />
      <path
         style="fill:#8c5626"
         d="M 1.5842654,133 C 2.2919555,121.76245 2.9318168,110.48368 4.5996376,99.343196 11.039039,97.139661 20.045701,98.100428 27.371177,96.134061 39.403406,94.450264 51.574326,92.430892 63.036832,88.354016 61.05155,87.284936 51.898674,90.546217 47.136642,90.020223 42.029877,89.324699 30.737425,90.245117 31.683425,83.008409 24.884906,80.364775 29.500651,71.566996 30.046771,65.763613 31.736392,60.470112 34.673656,69.937148 38,68.531385 c 4.182702,3.181948 9.413484,3.249234 12.395228,7.968615 5.567287,5.906801 14.888721,3.298179 22.121566,2.013361 7.326292,-1.787718 15.171695,-4.037043 20.341747,-9.810188 0.805398,7.941119 -7.056947,11.236626 -13.432724,12.749416 -3.656518,2.6637 -12.138236,3.264486 -13.566468,5.738369 13.508265,-2.884611 26.821797,-6.845756 39.948731,-11.138573 3.8934,-2.218647 14.39146,-4.263923 12.67407,-9.611904 -6.30526,-1.071498 -2.84943,-7.962211 1.60354,-8.177862 -1.34191,-3.727274 1.973,-6.281879 2.40588,-8.54031 -6.32744,-0.01899 4.57797,-1.994561 -0.9974,-3.439336 -5.35602,1.981601 -11.78761,-3.455905 -15.31824,-2.555585 3.43805,2.556972 6.76009,9.857326 1.82491,12.355565 -0.13022,-1.474806 1.50135,-8.131672 -2.90578,-5.724904 -0.73613,4.500713 -2.44617,-5.914745 -5.276522,-0.858049 0.221262,-0.719767 2.074782,-8.792273 -0.811271,-3.327939 -5.076357,9.491544 -7.835081,-6.514505 -0.471057,-5.47804 5.7429,2.189301 6.20028,-8.396712 0.625988,-3.146712 -3.228427,4.745913 -0.243384,-5.164315 -0.233812,-4.545671 -8.718372,0.816679 -19.40714,5.054456 -26.510612,-2.292679 -2.715391,-5.515557 -7.922782,-8.315334 -12.75237,-10.74094 -1.638618,-3.875613 4.607775,-2.445592 0.746605,-5.325647 C 60.269157,11.267138 58.262852,5.1051118 63.25,10.307092 66.871437,13.67079 63.646672,0.31254159 66.745381,7.25 c 3.454742,4.392987 7.194189,7.985063 9.997325,12.720703 2.244003,2.592009 5.13294,4.94894 7.725373,3.476318 2.227391,5.908108 15.416521,4.722076 9.661254,-2.447017 4.737431,-1.761603 10.391997,-5.909353 11.165817,2.608367 2.49266,5.08568 0.84713,12.544438 7.6349,12.898268 2.35793,4.42488 9.74395,6.965236 9.01748,-0.438559 -1.05311,-2.34304 2.39629,-5.314773 1.33185,-1.678301 4.88092,-1.112947 2.98196,9.166981 6.87848,11.883169 0.63463,4.744169 7.09356,5.343443 2.84214,9.415613 -1.01966,4.210129 7.93946,-5.298638 3.42203,0.2496 -2.46455,5.881463 7.14355,-2.46605 2.13587,3.466062 1.86518,3.609433 0.0952,1.437111 -1.57039,3.389533 3.07761,5.916378 -2.29783,13.137738 -4.01522,19.303683 -1.71379,4.027298 -1.21766,15.280678 -3.24223,15.782108 -6.53244,-1.13731 -5.62496,9.222023 -12.75569,6.688253 -2.62451,1.99515 0.39658,8.37811 -5.58065,5.5471 1.19668,-5.28829 -3.97379,-3.4143 -3.04346,1.0002 -3.19879,5.05306 -13.804636,-2.96796 -10.025697,3.2069 -3.448164,-2.81649 -5.14506,-1.52182 -6.171676,1.7603 -4.432518,2.58531 -1.671505,-5.56376 -5.421346,-0.9147 -3.169085,-5.63169 -7.224529,9.63123 -7.014513,0.81243 -3.104131,-0.16278 -5.895971,1.60811 -2.799962,3.48005 -3.108552,4.51577 -9.827638,-4.12617 -8.627351,3.06354 -4.371375,6.16663 -10.134061,-6.80233 -11.093299,2.10645 5.492404,2.16554 -2.657206,3.59284 -2.955693,-0.6231 -5.166213,1.43543 0.363519,5.94065 -6.455847,5.55273 -3.492393,2.90882 -3.899836,-3.89286 -6.174893,0.93856 -2.400727,2.18578 -13.030522,5.96229 -7.649338,0.39385 -3.852614,-4.5331 -4.168735,7.25692 -10.0261,6.0339 -5.617685,1.17576 -12.222507,4.99708 -17.6428724,2.05852 -1.0809971,1.2949 1.3920098,5.75807 -2.489202,2.1391 C 2.91183,135.13271 1.088379,144.41964 1.4395544,138.15259 1.4369814,136.43403 1.5000231,134.71621 1.5842654,133 z M 141.69185,61.139345 c 0.68771,-3.662142 -0.68252,-6.131974 -2.50635,-8.4759 2.91573,0.623036 4.17353,-1.643699 5.36247,0.836555 1.38031,-1.049949 1.59045,-5.237965 4.10782,-1.056724 -0.01,3.208571 -3.91211,9.220703 -6.96394,8.696069 z M 22,60.235883 C 23.051893,55.782275 27.274922,44.10013 31.815368,47.574339 29.805923,52.126767 25.389524,58.708053 22,60.235883 z M 39.93394,26.198718 C 38.211207,23.314043 40.481485,22.004865 36.210399,20.54452 36.592853,16.745347 35.952868,3.8127176 41.356989,11.531601 46.066855,13.958756 48.793455,19.031113 53.5,19.5 c -5.663316,0.696223 -11.609808,2.005537 -5.363115,7.069782 -1.828409,2.366866 -6.359602,1.772947 -8.202945,-0.371064 z"
         id="path2919" />
      <path
         style="fill:#894f1a"
         d="M 11.529321,138.59238 C 10.633798,135.19475 7.7254411,135.94965 7.3879419,138.20709 4.8518961,135.44688 3.102589,140.19281 2.9204983,135.95086 1.0955713,130.27083 4.8214369,124.27323 2.5024705,120.30058 4.1797359,113.3015 2.3082942,104.80438 6.0064755,98.704067 13.250917,99.697865 20.254437,96.639781 27.5,96.407675 53.319642,93.728288 77.792589,84.531937 102.6537,77.627383 c 9.00109,-2.898607 17.12976,-8.021713 24.14968,-14.272231 2.59649,-0.491808 8.20179,-3.690848 1.84002,-4.603828 -3.89005,0.233045 -6.83487,-0.499595 -4.69415,-5.073652 -7.07401,5.301411 4.90811,-13.441723 -5.38981,-7.696414 -6.35353,1.816053 -13.09273,-9.541736 -16.25656,-0.47862 -2.304972,-4.025907 6.24346,-9.923902 -1.71367,-9.036554 -5.37376,1.738055 2.79396,-6.310708 -3.40966,-4.320868 0.352404,-3.650457 -7.980286,-0.06273 -6.4051,1.4212 -7.319138,2.408066 -18.170329,0.772073 -21.158413,-7.308673 -2.088127,-3.63244 -14.059607,-5.779433 -7.042959,-10.135435 -2.355133,-3.008356 -3.401373,-9.4676805 1.570644,-4.166151 1.79857,-2.5466145 0.398059,-10.7061934 3.358492,-2.5794813 4.985141,1.6623443 2.850967,8.8508973 8.924758,10.4680513 0.633504,3.431188 1.377658,5.815046 2.925207,2.773632 1.021551,5.485124 4.78294,-1.210278 5.719037,4.22982 4.435794,1.435667 14.734621,2.981501 11.448806,-4.777385 3.499978,0.621622 3.265865,-5.391538 5.282628,-1.729139 1.1039,-6.354158 2.37522,3.339121 0.95177,5.327208 0.85046,2.834465 2.73678,-2.172539 2.70311,2.693483 1.73143,5.586773 3.85825,12.434079 11.37369,12.791044 6.1578,5.65257 4.41224,-10.89662 8.755,-2.655852 1.68851,5.526206 3.54609,12.082482 9.18978,13.891658 -2.67898,1.162503 -2.8853,9.199851 3.02673,6.952747 -5.27039,1.991714 -4.03447,9.169932 -1.29864,13.128701 -3.99011,6.275089 -4.29202,13.935643 -7.2649,20.445159 -0.42838,2.01929 3.9168,0.541822 0.18459,3.64745 -2.20636,1.822608 -4.12209,-2.902087 -4.81423,2.275248 -2.75835,5.464899 -8.11624,5.390949 -13.6078,6.730869 -4.2738,1.13944 -14.823459,6.86109 -15.435325,4.97727 0.202947,-6.63755 -5.130144,11.11241 -5.018039,3.6166 0.508516,-4.80007 -10.829001,0.39057 -9.441397,4.33676 -1.754073,-1.27906 -1.012616,-8.80772 -4.500489,-6.21287 2.643532,5.37624 -4.861426,4.32135 -7.608828,4.2091 -2.300144,-2.29869 -7.37528,1.79277 -2.997672,1.94475 -4.521033,1.43737 2.328228,6.30789 -2.542505,4.39951 -2.03231,-2.77012 0.447211,-4.54114 -2.858568,-2.5775 -3.4007,-4.14288 -5.907042,8.01064 -9.891197,3.55625 3.290869,-1.21869 4.409622,-2.07509 4.470145,-5.75728 1.113299,-3.88265 11.1594,0.60069 5.532949,-3.96244 -4.827627,-3.1121 -6.556763,1.04079 -8.866543,3.66866 -1.695429,-3.38995 -7.704057,-1.879 -8.434451,-4.90099 6.065734,0.60405 -0.492096,-9.42967 4.170011,-3.06847 -0.767268,4.11175 5.520914,3.41969 5.183398,5.85091 -2.389849,-5.80835 3.29381,-4.65797 5.701628,-4.20551 -0.548513,-3.84623 -7.986786,-4.9571 -1.084808,-7.50793 3.827295,-1.54899 6.602595,6.49752 1.831658,1.56887 -4.065957,0.26379 3.844467,11.27324 3.09127,3.51988 6.397148,-7.57174 -4.339777,7.57858 2.906948,4.65909 7.170807,0.1237 2.554921,-10.4371 6.835725,-12.34024 1.915203,-1.540667 6.159507,-7.277102 4.293419,-7.09379 -0.989095,1.784778 -5.051223,5.014518 -5.215643,5.187939 2.578005,-5.287324 -7.563336,-6.659732 -1.630573,-1.740768 0.61274,3.127549 -6.606074,8.680519 -5.524248,2.802829 -1.153654,-2.781297 -2.054068,-5.604051 -4.214433,-1.375965 -3.005526,-2.390336 -7.620049,-3.460326 -2.567742,0.657445 3.280038,3.74942 -4.505462,3.30513 -3.380201,-0.190583 -6.10123,-1.220582 1.941956,9.066843 -3.784817,2.596473 -0.446531,-2.687598 -2.567437,-7.026444 -3.283212,-1.82714 0.970681,5.52095 -7.794955,-4.374039 -4.049296,0.3726 -1.512856,4.76143 -11.843856,1.09469 -13.002084,6.38785 -1.414767,-6.3612 -7.548563,-0.77802 -3.93194,3.07834 -1.868513,5.27108 5.67188,7.0688 3.122665,2.30098 2.62417,1.46358 -0.154981,14.58304 4.515073,9.58079 -1.616191,-5.73465 5.095051,-5.99274 6.551342,-1.23294 1.673222,-0.20375 6.438352,4.0137 3.359429,-0.0628 -5.814214,0.12526 -4.260329,-7.99075 0.240208,-3.89451 3.408658,-0.58468 9.68522,6.20232 2.910878,8.06968 -3.044281,6.23512 4.789012,-1.0956 3.231062,3.9397 -6.131037,1.39618 -9.820618,-5.64939 -13.380688,-9.0536 -2.262239,3.31007 8.103503,8.94791 0.783777,6.10227 -0.972016,2.45051 -10.349059,1.37351 -5.204335,5.4337 -4.009794,-1.91938 -3.878845,6.74038 -5.27744,-0.21663 -3.049674,-0.0619 -5.268704,4.80593 -0.90183,5.03264 -4.036767,0.56704 -6.158523,-4.71459 -9.606503,-0.77719 -6.8771225,-3.35901 -1.474096,8.69251 -4.569207,3.17129 z M 18,114.94098 c -2.145361,-1.20013 -4.001464,-5.15913 0,-5.38196 2.375585,-4.98626 4.912649,9.64898 5.97655,1.87826 -1.026171,-7.61556 -10.12298,-0.77151 -13.752949,-5.78384 1.771093,5.68579 -1.4583558,2.37407 -3.7632248,2.84854 0.9273784,3.94733 7.5393938,0.64982 7.6485608,6.30411 0.779638,1.42322 4.025822,3.14564 3.891063,0.13489 z M 31,118.2 c 2.542942,-4.09262 0.717567,-8.54183 -2.635466,-7.98654 C 29.792426,108.09289 33.408432,108.53398 34,105.5 c 2.18322,1.79204 2.838009,6.03624 -0.892711,4.93711 2.766228,2.48446 0.948202,7.96298 -1.994576,9.49587 L 31.025661,119.2355 31,118.2 z M 38.747252,88.654822 C 33.663739,84.685344 27.049582,78.21701 29.132657,70.785143 c -0.0093,-8.066365 7.30602,-5.132886 6.232459,1.300073 5.307607,1.087902 10.29568,5.476068 16.358764,6.25078 13.708979,3.490501 29.885013,1.592007 40.721329,-8.082463 0.268524,1.612892 -3.776838,6.115515 -3.695209,7.16752 -6.622467,1.420403 -12.672363,5.86605 -19.64427,7.170372 -8.963225,2.511385 -18.222163,5.551981 -27.625619,4.894104 l -1.332848,-0.342579 -1.400011,-0.488128 0,0 z M 23.015056,59.25 C 24.50946,55.965719 26.469525,45.491665 30.751557,48.027563 30.783177,53.080057 24.53511,56.286262 23.015056,59.25 z M 41.561803,26.4 C 39.913649,25.272809 37.752569,24.14894 41.057682,22.897074 34.348653,21.043549 35.776619,13.55451 39.228322,9.0616549 39.06622,14.073918 46.827279,14.067176 48.529297,18.415458 58.636401,20.252689 39.846604,19.471946 46.5,24.5 c 4.783261,3.222152 -4.137151,3.553932 -4.938197,1.9 z"
         id="path2917" />
      <path
         style="fill:#774b20"
         d="m 11.529321,138.59238 c -2.2611712,-6.45302 -4.1543819,2.95336 -6.0841979,-2.74343 -2.9607862,-7.20197 9.1396599,0.0855 9.3452509,-7.85415 3.558135,0.94125 10.184298,-9.58068 7.606371,-0.95015 -3.329486,0.46668 0.814027,2.77192 1.979949,0.62627 2.568,0.78523 11.185558,3.56918 4.516989,4.21301 -1.326642,6.48296 -1.789936,-4.89137 -5.329194,1.06943 -1.794496,2.83734 4.763999,4.07922 -0.890085,3.07189 -2.644778,-4.5874 -7.25459,-0.0135 -10.511986,0.62855 0.656037,1.32765 0.707623,6.22437 -0.633097,1.93858 z M 44.5,128.19119 C 40.912895,127.51333 38.511722,118.3521 43.845058,123.08323 46.968931,122.3095 46.817054,119.05862 50,122.5 c -2.976933,0.0365 -6.099982,7.95211 -1.747726,4.24656 5.271219,1.20274 -1.780753,4.25836 -3.752274,1.44463 z M 79.814856,116.75 c -2.678931,-4.21791 5.206859,-5.26095 1.345413,-7.04567 7.042407,0.96796 -5.104811,-6.05958 2.483102,-4.00181 3.327191,3.41928 6.136926,4.06853 6.49964,-0.35483 5.983367,1.601 0.983583,-8.139419 5.846233,-7.117129 -0.204876,6.222039 2.24673,-0.669312 0.489054,-2.721555 5.601812,1.361817 -0.42724,-12.630973 -0.858528,-3.667507 -3.063175,-2.084379 -4.06763,7.445369 -4.91352,0.281969 -1.966049,-1.906685 -2.317499,5.73024 -5.603315,1.126532 -4.504879,0.05753 7.526576,5.58018 3.032163,6.434353 -1.881932,-2.965364 -10.159177,-5.641955 -5.175024,-0.690773 -2.387047,0.799353 -3.268601,3.01952 -4.486502,4.36833 -1.256277,-2.2172 -0.695411,-15.734585 -2.754335,-7.86191 -3.190838,-2.651197 -2.114855,-5.972171 2.234223,-4.334556 1.282422,3.954092 2.418285,1.653211 5.04654,1.303171 -5.795599,-4.574291 1.726155,-9.877879 7.208025,-8.047871 5.069357,-1.841151 10.483285,-2.210447 14.054445,-5.568958 6.77541,-2.308989 12.30053,-7.624757 18.53858,-11.165622 2.91153,-2.098813 6.52061,-5.599624 9.02709,-7.500242 -3.16479,-3.042952 -11.27941,0.518597 -7.87889,-6.50825 -7.07401,5.301411 4.90811,-13.441723 -5.38981,-7.696414 -6.60187,1.723487 -11.65985,-8.352096 -16.17022,-2.058504 -1.43367,-3.370037 5.55391,-8.597725 -1.80001,-7.45667 -5.37376,1.738055 2.79396,-6.310708 -3.40966,-4.320868 -1.075828,-4.966887 -8.164613,2.976068 -11.621313,2.167407 C 77.30254,35.460052 71.159846,30.404815 67.245866,23.879511 64.18789,22.32218 57.124072,19.579474 62.616458,16.098053 c -3.372079,-4.057269 -1.12398,-6.3735922 2.324046,-4.429244 0.433904,-8.4612903 6.163407,3.267098 7.998344,6.133117 3.352436,5.384368 8.080317,10.322319 15.115961,10.21873 5.856104,1.679736 8.522193,-2.501843 10.484254,-6.613292 6.817987,-4.206555 2.126247,7.23033 6.029357,6.981932 1.10013,6.762989 7.87371,14.537865 15.64373,12.949341 2.63144,-1.281499 2.0112,-8.340681 5.14629,-2.386922 1.67261,6.767493 7.17964,11.672853 7.81825,18.745075 0.58729,7.89155 4.47201,15.82661 -0.72679,23.09443 -2.24736,5.165152 -3.29629,12.623965 -2.04549,14.820692 -3.6014,1.047815 -5.20305,0.27696 -6.89541,4.671098 -3.03463,4.49506 -9.88807,4.18211 -15.059,6.09619 -3.91154,3.08205 -9.868804,2.17836 -13.204257,5.75729 1.879376,-7.84104 -3.092452,1.96384 -4.118033,4.15427 -1.649704,-1.21168 1.226985,-6.51702 -3.785707,-3.54359 -4.215268,-0.20409 -5.736778,3.83904 -6.535935,5.61474 l -0.404794,-0.37597 -0.586418,-1.23594 0,0 z M 37.93942,86 c -0.934034,-3.636092 -0.958466,4.139646 -2.875068,-1.162205 -5.973902,-4.544027 -8.954997,-13.392831 -3.420303,-19.532011 4.975632,0.382307 1.47212,8.299573 7.079504,7.561161 5.416383,4.207602 12.829675,5.372015 19.462311,6.753841 10.601057,1.209118 21.59112,-0.865819 30.833418,-6.23055 C 87.794498,78.925187 78.466263,80.200039 73.355464,82.62461 62.834893,86.240879 51.413103,89.772569 40.223487,87.661327 39.342014,87.359499 38.336503,86.924245 37.93942,86 z m 3.622383,-59.6 c -3.615924,-1.345958 -1.297876,-2.385113 -1.002428,-4.60625 -3.847266,0.375935 -1.756238,-7.052046 -4.289152,-2.059835 -1.284247,-4.551816 2.866191,-10.4619804 5.517335,-4.506516 3.631035,-0.130307 13.226464,5.947568 4.374006,5.574084 -3.74027,2.308805 6.135273,7.073209 -1.658778,6.498517 -0.709227,-0.218183 -2.796666,0.238051 -2.940983,-0.9 z"
         id="path2915" />
      <path
         style="fill:#623316"
         d="m 104.25,105.74177 c 3.10735,-2.88855 6.47125,-6.053011 8.13828,-9.111181 0.10624,6.499291 8.275,-3.599904 1.40247,-2.429864 0.45515,-3.132707 -6.92718,2.994903 -4.35013,-2.482734 2.38726,-1.734672 4.3768,-7.210424 4.85313,-0.805491 2.97154,1.204109 2.1653,-7.027062 -1.75482,-6.008365 -1.17497,-8.812983 -4.85624,8.215131 -5.2056,-0.447168 0.0151,-2.718 2.94475,-3.302087 4.10757,-4.709324 4.79059,3.64635 1.24333,-4.036625 5.27512,-4.263604 -1.70074,-5.911699 6.43017,-3.007745 7.15898,-7.984039 -0.36905,2.33921 4.62841,9.42757 2.52101,2.431896 0.24077,-1.723463 5.1711,-3.031658 0.30345,-3.311961 -2.08114,-1.912184 8.20477,-6.585994 4.41367,-0.929471 -3.10724,3.390746 5.5953,-0.414659 1.9714,4.551616 -1.56951,3.02211 -1.14103,-4.793041 -2.87914,0.898049 -1.10247,3.714669 6.047,0.517309 2.93885,5.701511 -4.54217,6.043766 -0.6001,14.073761 -7.5258,18.503848 0.6979,5.557002 -5.76626,2.933391 -6.95237,6.509292 -0.23624,0.87509 -9.95825,4.90489 -4.10064,-0.1704 -1.22594,-3.78004 -4.3643,2.49678 -6.48915,1.38994 3.43308,3.50225 -9.918637,6.24675 -3.82628,2.66745 z M 45.562723,86.197143 c -1.028895,-3.732808 -9.1514,-0.22652 -11.290154,-4.848687 -6.121211,-1.836928 -7.215689,-14.027083 -2.07034,-15.743446 1.747167,7.970625 9.614733,11.678781 17.42619,12.810302 10.166822,2.197612 20.742952,2.177857 30.942946,0.255297 -6.201966,3.611184 -13.290644,6.020184 -20.434528,7.142583 -4.421114,0.628812 -12.675383,-0.07313 -14.574114,0.383951 z M 129,57.383369 c -4.96371,0.378672 -1.80477,-2.287247 -3.21769,-5.137101 -2.79713,1.272859 -7.02445,2.307672 -2.63378,-1.376395 4.00185,-5.518833 -2.92343,-7.537395 -6.83219,-4.790781 -2.42191,-0.188401 -10.71505,-6.289541 -3.58203,-5.250356 4.80145,1.831318 10.08208,2.270619 11.01513,-2.888104 3.0291,6.294479 7.04311,12.862656 9.07556,19.587588 -0.45359,1.438658 -3.51454,1.30223 -3.825,-0.144851 z M 104.96801,37.440222 c -1.8346,-3.25748 -8.285925,0.243005 -4.82708,-4.881065 -3.223362,-4.587649 -4.372379,-12.018834 2.41845,-11.756188 0.0811,2.425297 -4.515,4.691857 -0.55938,6.061289 0.71351,2.640283 8.97658,12.471377 3.47521,11.355746 l -0.5072,-0.779782 0,0 z M 75.925131,32.355117 c -4.529773,-1.253353 -6.970096,-8.301482 -7.63848,-10.192443 -4.339045,2.056362 -9.397669,-3.560523 -5.515609,-6.517137 -2.915999,-3.542348 -0.385458,-5.308614 1.884628,-1.358391 0.456157,-3.213756 1.805898,-9.4498659 3.473432,-2.626871 3.287809,3.244609 5.26499,9.012453 9.040102,12.85199 3.068773,4.234467 8.158291,4.164438 12.336969,3.997722 2.379421,0.821558 10.456728,0.20284 3.269961,2.155608 -5.163645,-1.945118 -2.641736,5.404231 -8.325975,3.707863 -2.934398,-0.121039 -5.840606,-0.834315 -8.525028,-2.018341 z M 43,25.5 c -1.435282,-1.644042 -4.082818,-0.706762 -1.127,-2.844126 -4.365502,-0.918485 -6.127194,-12.368027 -1.013535,-6.559375 3.474599,-0.57412 7.270263,3.237837 8.492228,4.287674 -7.238842,-1.415396 -2.966785,3.966153 -2.165408,6.079512 C 45.935786,26.367511 43.739587,26.897356 43,25.5 z"
         id="path2913" />
      <path
         style="fill:#24160f"
         d="M 47,82.598712 C 40.838091,82.138098 35.510803,78.386987 31.483178,74.890748 28.337427,72.028201 31.210412,61.385534 33.611592,69.5 c 3.899541,7.576783 13.510805,9.049371 21.123685,10.441307 2.908713,1.135336 13.809692,-0.29394 12.516965,2.043042 C 60.59574,83.052474 53.708743,83.261394 47,82.598712 z"
         id="path2911" />
    </g>
  </g>
</svg>
