<svg xmlns="http://www.w3.org/2000/svg" xmlns:xlink="http://www.w3.org/1999/xlink" viewBox="0 0 100 102">

    <circle fill="#f" cx="0" r="5"/>
    <circle fill="#ff" cx="10" r="5"/>
    <circle fill="#fff" cx="20" r="5"/>
    <circle fill="#ffff" cx="30" r="5"/>
    <circle fill="#fffff" cx="40" r="5"/>
    <circle fill="#ffffff" cx="50" r="5"/>

	<circle fill="#00000f" cx="0" cy="10" r="5"/>
    <circle fill="#0000ff" cx="10" cy="10" r="5"/>
    <circle fill="#ffffff" cx="20" cy="10" r="5"/>
    <circle fill="#00ffff" cx="30" cy="10" r="5"/>
    <circle fill="#0fffff" cx="40" cy="10" r="5"/>
    <circle fill="#ffffff" cx="50" cy="10" r="5"/>

    <circle fill="#6" cx="0" cy="30" r="5"/>
    <circle fill="#65" cx="10" cy="30" r="5"/>
    <circle fill="#654" cx="20" cy="30" r="5"/>
    <circle fill="#6543" cx="30" cy="30" r="5"/>
    <circle fill="#65432" cx="40" cy="30" r="5"/>
    <circle fill="#654321" cx="50" cy="30" r="5"/>

	<circle fill="#000006" cx="0" cy="40" r="5"/>
    <circle fill="#000065" cx="10" cy="40" r="5"/>
    <circle fill="#665544" cx="20" cy="40" r="5"/>
    <circle fill="#006543" cx="30" cy="40" r="5"/>
    <circle fill="#065432" cx="40" cy="40" r="5"/>
    <circle fill="#654321" cx="50" cy="40" r="5"/>

</svg>
