<svg xmlns="http://www.w3.org/2000/svg" viewBox="0 0 100 100">
	<path d="M28,6h44v16l-22,21l-22-21z" fill="#6d84b4"/>
	<path d="M50,50h20v20h-20v-20" fill="#6d84b4"/>
	<path d="M50,50l-20,10l10,30" fill="#6d84b4"/>
	<path d="M0,0L80,80" stroke="#ff0000"/>
	<path d="M30,76q6-14,13-26q6-12,14-23q8-12,13-17q3-4,6-6q1-1,5-2q8-1,12-1q1,0,1,1q0,1-1,2q-13,11-27,33q-14,21-24,44q-4,9-5,11q-1,2-9,2q-5,0-6-1q-1-1-5-6q-5-8-12-15q-3-4-3-6q0-2,4-5q3-2,6-2q3,0,8,3q5,4,10,14z" fill="green" opacity="0.3"/>
</svg>
