<?xml version="1.0" encoding="UTF-8" standalone="no"?>
<!-- Created with Inkscape (http://www.inkscape.org/) -->

<svg
   xmlns:dc="http://purl.org/dc/elements/1.1/"
   xmlns:cc="http://creativecommons.org/ns#"
   xmlns:rdf="http://www.w3.org/1999/02/22-rdf-syntax-ns#"
   xmlns:svg="http://www.w3.org/2000/svg"
   xmlns="http://www.w3.org/2000/svg"
   xmlns:sodipodi="http://sodipodi.sourceforge.net/DTD/sodipodi-0.dtd"
   xmlns:inkscape="http://www.inkscape.org/namespaces/inkscape"
   width="165.22336"
   height="121.8363"
   id="svg2"
   version="1.1"
   inkscape:version="0.47 r22583"
   sodipodi:docname="Novo documento 1">
  <defs
     id="defs4">
    <inkscape:perspective
       sodipodi:type="inkscape:persp3d"
       inkscape:vp_x="0 : 526.18109 : 1"
       inkscape:vp_y="0 : 1000 : 0"
       inkscape:vp_z="744.09448 : 526.18109 : 1"
       inkscape:persp3d-origin="372.04724 : 350.78739 : 1"
       id="perspective10" />
    <inkscape:perspective
       id="perspective2824"
       inkscape:persp3d-origin="0.5 : 0.33333333 : 1"
       inkscape:vp_z="1 : 0.5 : 1"
       inkscape:vp_y="0 : 1000 : 0"
       inkscape:vp_x="0 : 0.5 : 1"
       sodipodi:type="inkscape:persp3d" />
    <inkscape:perspective
       id="perspective3614"
       inkscape:persp3d-origin="0.5 : 0.33333333 : 1"
       inkscape:vp_z="1 : 0.5 : 1"
       inkscape:vp_y="0 : 1000 : 0"
       inkscape:vp_x="0 : 0.5 : 1"
       sodipodi:type="inkscape:persp3d" />
    <inkscape:perspective
       id="perspective3647"
       inkscape:persp3d-origin="0.5 : 0.33333333 : 1"
       inkscape:vp_z="1 : 0.5 : 1"
       inkscape:vp_y="0 : 1000 : 0"
       inkscape:vp_x="0 : 0.5 : 1"
       sodipodi:type="inkscape:persp3d" />
    <inkscape:perspective
       id="perspective3671"
       inkscape:persp3d-origin="0.5 : 0.33333333 : 1"
       inkscape:vp_z="1 : 0.5 : 1"
       inkscape:vp_y="0 : 1000 : 0"
       inkscape:vp_x="0 : 0.5 : 1"
       sodipodi:type="inkscape:persp3d" />
  </defs>
  <sodipodi:namedview
     id="base"
     pagecolor="#ffffff"
     bordercolor="#666666"
     borderopacity="1.0"
     inkscape:pageopacity="0.0"
     inkscape:pageshadow="2"
     inkscape:zoom="2.8"
     inkscape:cx="100.79756"
     inkscape:cy="75.321356"
     inkscape:document-units="px"
     inkscape:current-layer="layer1"
     showgrid="false"
     inkscape:window-width="1280"
     inkscape:window-height="962"
     inkscape:window-x="-8"
     inkscape:window-y="-8"
     inkscape:window-maximized="1" />
  <metadata
     id="metadata7">
    <rdf:RDF>
      <cc:Work
         rdf:about="">
        <dc:format>image/svg+xml</dc:format>
        <dc:type
           rdf:resource="http://purl.org/dc/dcmitype/StillImage" />
        <dc:title></dc:title>
      </cc:Work>
    </rdf:RDF>
  </metadata>
  <g
     inkscape:label="Layer 1"
     inkscape:groupmode="layer"
     id="layer1"
     transform="translate(-200.84806,-50.525888)">
    <g
       id="g3688"
       transform="matrix(1.3370677,0,0,1.3370677,-123.39083,-17.030642)">
      <path
         transform="matrix(1.1456953,0,0,1.3490566,-36.14948,-41.252435)"
         d="m 351.07142,116.6479 c 0,10.45396 -24.14464,18.92858 -53.92857,18.92858 -29.78392,0 -53.92857,-8.47462 -53.92857,-18.92858 0,-10.45396 24.14465,-18.928568 53.92857,-18.928568 29.78393,0 53.92857,8.474608 53.92857,18.928568 z"
         sodipodi:ry="18.928572"
         sodipodi:rx="53.92857"
         sodipodi:cy="116.6479"
         sodipodi:cx="297.14285"
         id="path2830"
         style="fill:#000000;fill-opacity:1;stroke:none"
         sodipodi:type="arc" />
      <path
         sodipodi:nodetypes="ccssc"
         id="path3604"
         d="m 267.5,119.50504 c 29.24265,16.38355 51.87651,11.24132 72.85714,0.71428 L 331.42857,63.076467 C 329.72193,52.153992 289.41356,46.974245 286.51786,56.558609 L 267.5,119.50504 z"
         style="fill:#000000;fill-opacity:1;stroke:#353535;stroke-width:2;stroke-linecap:butt;stroke-linejoin:miter;stroke-miterlimit:4;stroke-opacity:1;stroke-dasharray:none" />
      <path
         id="path3686"
         d="m 288.26136,61.700766 -12.44773,42.576144 3.88991,2.04912 12.22546,-42.120784 -3.66764,-2.50448 z"
         style="fill:#4b4b4b;fill-opacity:0.80784314;stroke:none" />
      <path
         sodipodi:nodetypes="ccccccccccccc"
         id="path3661"
         d="m 271.25,107.71932 c 21.42282,10.34401 46.09577,13.83089 67.14286,1.25 l 1.96428,11.07143 -5,2.67857 -10.53571,3.92857 -9.64286,2.32143 -8.75,0.89286 -7.5,0 -8.75,-1.42857 -12.32143,-3.75 -8.92857,-4.10714 -1.60714,-1.07143 3.92857,-11.78572 z"
         style="fill:#266629;fill-opacity:1;stroke:none" />
      <path
         sodipodi:nodetypes="ccc"
         d="m 331.58906,63.14609 c -1.70664,-10.922475 -42.1755,-16.171845 -45.23909,-6.519096 12.76357,10.243438 30.00592,12.367133 45.23909,6.519096 z"
         style="fill:#353535;fill-opacity:1;stroke:none"
         id="path3628" />
      <path
         sodipodi:nodetypes="cssscssss"
         id="path3631"
         d="m 255.89286,112.36218 c -1.09127,2.79266 -1.07685,6.21593 1.17391,8.51668 2.23134,2.2809 4.92202,4.09441 7.81652,5.24151 11.62756,4.60802 23.9388,8.42135 36.29827,10.6784 1.41269,0.25798 2.969,2.22357 0.55527,2.24517 -18.97927,-1.03535 -49.17969,-7.87261 -54.37789,-20.37968 -1.63797,-3.94103 -0.0775,-9.00558 3.90052,-10.59516 1.73132,-0.69182 6.65727,-2.92679 6.39004,0.27324 -0.12191,1.45991 -1.21955,2.64538 -1.75664,4.01984 z"
         style="fill:#646464;fill-opacity:0.80784314;stroke:none" />
      <path
         sodipodi:nodetypes="cccccccccc"
         id="path3637"
         d="m 279.05736,108.56677 -3.12785,14.54395 19.10811,5.86602 2.15787,-15.45106 -18.13813,-4.95891 z m 2.56394,3.11468 12.38429,3.62847 -1.70128,9.94201 -12.68453,-4.01552 2.00152,-9.55496 z"
         style="fill:#ffe100;fill-opacity:1;stroke:#ffe100;stroke-width:0.9840318px;stroke-linecap:butt;stroke-linejoin:miter;stroke-opacity:1" />
      <path
         sodipodi:nodetypes="ccssc"
         id="path3604-4"
         d="m 267.5,119.50504 c 29.24265,16.38355 51.87651,11.24132 72.85714,0.71428 L 331.42857,63.076465 C 329.72193,52.15399 289.41356,46.974243 286.51786,56.558607 L 267.5,119.50504 z"
         style="fill:none;stroke:#353535;stroke-width:2;stroke-linecap:butt;stroke-linejoin:miter;stroke-miterlimit:4;stroke-opacity:1;stroke-dasharray:none" />
    </g>
  </g>
</svg>
