<?xml version="1.0" encoding="utf-8"?>
<!-- Generator: Adobe Illustrator 14.0.0, SVG Export Plug-In . SVG Version: 6.00 Build 43363)  -->
<!DOCTYPE svg PUBLIC "-//W3C//DTD SVG 1.1//EN" "http://www.w3.org/Graphics/SVG/1.1/DTD/svg11.dtd">
<svg version="1.1" xmlns="http://www.w3.org/2000/svg" xmlns:xlink="http://www.w3.org/1999/xlink" x="0px" y="0px" width="446px"
	 height="458px" viewBox="0 0 446 458" enable-background="new 0 0 446 458" xml:space="preserve">
<g id="Ref" display="none">
	
		<image display="inline" overflow="visible" width="696" height="633" xlink:href="Spring_Sunshine_Ref.jpg"  transform="matrix(0 0.6992 -0.6992 0 448.2598 7.6895)">
	</image>
</g>
<g id="Art">
	<g id="Outline">
		<linearGradient id="SVGID_1_" gradientUnits="userSpaceOnUse" x1="284.3945" y1="445.457" x2="222.5694" y2="214.7224">
			<stop  offset="0" style="stop-color:#098537"/>
			<stop  offset="0.4601" style="stop-color:#6D963A"/>
			<stop  offset="0.8712" style="stop-color:#FCB12F"/>
			<stop  offset="0.9399" style="stop-color:#FAC267"/>
			<stop  offset="1" style="stop-color:#F8D392"/>
		</linearGradient>
		<path fill="url(#SVGID_1_)" d="M416.725,190.448c0,0-183.621-10.344-353.449,90.518c-13.793,12.068-10.345,16.379-9.483,24.138
			s2.586,13.794-2.586,18.966c10.345-3.448,98.275-60.345,180.172-76.725c-34.482,15.518-106.035,44.827-142.241,71.552
			c-8.621,9.482-14.655,14.656-9.482,26.725c0.862,8.62-0.862,12.068-0.862,12.068s140.517-50,235.345-46.552
			c-18.965,5.173-108.62,29.311-176.724,75c-9.483,8.621-10.345,15.518-8.621,25.862c1.724,6.896,2.586,9.482,0,12.931
			c16.379-8.62,66.38-37.931,165.518-48.275c-21.552,8.62-49.139,15.517-84.483,33.62c-10.345,11.207-5.173,12.932-6.035,19.828
			s0.862,10.344-1.724,12.931c13.793-4.31,46.552-17.241,71.552-16.379c-3.448,6.896-7.759,9.482-7.759,9.482
			s-12.932,4.311-15.518,7.759s0.001,6.897-5.172,12.069c10.345-3.448,11.207-6.896,21.552-6.896
			c14.654-3.448,33.619-9.483,43.103-19.828s7.76-18.965-0.861-19.827s-14.656-3.448-20.69-3.448
			c13.794-2.587,32.758-12.069,43.104-12.069c4.311-7.759,5.174-10.344,3.449-19.827s-0.002-13.794,3.447-16.38
			c-18.103-2.586-50-4.31-62.931-1.724c9.482-5.173,36.208-20.69,109.483-34.483c4.31-6.034,0-7.759,2.586-18.104
			c4.311-7.758,9.483-25,4.311-28.448s-97.414-4.311-207.759,25.862c32.759-15.518,140.518-66.379,207.759-70.689
			c11.206-0.862,16.379-10.345,16.379-16.379S403.794,200.793,416.725,190.448z"/>
	</g>
	<g id="Rays">
		<linearGradient id="SVGID_2_" gradientUnits="userSpaceOnUse" x1="23.6206" y1="223.8818" x2="122.7588" y2="223.8818">
			<stop  offset="0" style="stop-color:#851F04"/>
			<stop  offset="0.4681" style="stop-color:#AF2F18"/>
			<stop  offset="1" style="stop-color:#E54025"/>
		</linearGradient>
		<path fill="url(#SVGID_2_)" d="M26.207,208.552l-2.586,13.793c0,0,7.759-18.965,45.69,2.586s49.138,16.38,53.448,12.931
			c-1.724-6.897-3.448-12.069-3.448-12.069s-12.069,16.379-42.242,0S41.725,203.379,26.207,208.552z"/>
		<linearGradient id="SVGID_3_" gradientUnits="userSpaceOnUse" x1="55.1255" y1="125.646" x2="126.4086" y2="196.9291">
			<stop  offset="0" style="stop-color:#851F04"/>
			<stop  offset="0.4681" style="stop-color:#AF2F18"/>
			<stop  offset="1" style="stop-color:#E54025"/>
		</linearGradient>
		<path fill="url(#SVGID_3_)" d="M57.779,122.992l-9.243,10.559c0,0,16.327-12.381,38.021,25.468
			c21.694,37.85,33.974,39.098,39.439,38.321c2.024-6.815,3.17-12.145,3.17-12.145s-18.723,7.963-36.368-21.487
			C75.153,134.258,73.77,126.432,57.779,122.992z"/>
		<linearGradient id="SVGID_4_" gradientUnits="userSpaceOnUse" x1="95.6523" y1="65.1392" x2="152.9176" y2="146.9224">
			<stop  offset="0" style="stop-color:#851F04"/>
			<stop  offset="0.4681" style="stop-color:#AF2F18"/>
			<stop  offset="1" style="stop-color:#E54025"/>
		</linearGradient>
		<path fill="url(#SVGID_4_)" d="M107.096,59.357L94.65,65.84c0,0,19.708-5.609,26.18,37.535
			c6.472,43.143,17.46,48.765,22.835,50.025c4.36-5.615,7.363-10.165,7.363-10.165s-20.336,0.622-26.085-33.225
			C119.194,76.163,120.747,68.368,107.096,59.357z"/>
		<linearGradient id="SVGID_5_" gradientUnits="userSpaceOnUse" x1="161.0498" y1="31.4248" x2="201.5436" y2="118.264">
			<stop  offset="0" style="stop-color:#851F04"/>
			<stop  offset="0.4681" style="stop-color:#AF2F18"/>
			<stop  offset="1" style="stop-color:#E54025"/>
		</linearGradient>
		<path fill="url(#SVGID_5_)" d="M183.065,26.202l-13.956,1.465c0,0,20.392,2.012,10.586,44.521
			c-9.806,42.51-1.645,51.771,2.893,54.915c6.116-3.625,10.579-6.755,10.579-6.755s-19.146-6.882-12.079-40.478
			C188.155,46.273,192.458,39.591,183.065,26.202z"/>
		<linearGradient id="SVGID_6_" gradientUnits="userSpaceOnUse" x1="242.2266" y1="23.7002" x2="233.5007" y2="123.4374">
			<stop  offset="0" style="stop-color:#851F04"/>
			<stop  offset="0.4681" style="stop-color:#AF2F18"/>
			<stop  offset="1" style="stop-color:#E54025"/>
		</linearGradient>
		<path fill="url(#SVGID_6_)" d="M253.146,26.028l-13.794-2.579c0,0,18.97,7.748-2.559,45.691
			c-21.529,37.944-16.351,49.148-12.898,53.457c6.896-1.729,12.067-3.456,12.067-3.456s-16.387-12.059-0.026-42.242
			C252.296,46.717,258.327,41.541,253.146,26.028z"/>
		<linearGradient id="SVGID_7_" gradientUnits="userSpaceOnUse" x1="311.7393" y1="37.6436" x2="277.6223" y2="131.3793">
			<stop  offset="0" style="stop-color:#851F04"/>
			<stop  offset="0.4681" style="stop-color:#AF2F18"/>
			<stop  offset="1" style="stop-color:#E54025"/>
		</linearGradient>
		<path fill="url(#SVGID_7_)" d="M323.378,43.949l-12.394-6.581c0,0,15.79,13.06-16.089,42.842
			c-31.878,29.783-30.283,42.021-28.275,47.164c7.099,0.41,12.549,0.307,12.549,0.307s-12.037-16.403,12.591-40.322
			C316.389,63.441,323.69,60.302,323.378,43.949z"/>
		<linearGradient id="SVGID_8_" gradientUnits="userSpaceOnUse" x1="365.9209" y1="77.145" x2="319.4771" y2="157.5881">
			<stop  offset="0" style="stop-color:#851F04"/>
			<stop  offset="0.4681" style="stop-color:#AF2F18"/>
			<stop  offset="1" style="stop-color:#E54025"/>
		</linearGradient>
		<path fill="url(#SVGID_8_)" d="M385.546,95.055l-8.257-11.346c0,0,8.471,18.658-33.235,31.459
			c-41.706,12.801-45.636,24.501-46.084,30.003c6.201,3.479,11.146,5.774,11.146,5.774s-3.632-20.019,28.987-30.726
			C370.722,109.512,378.661,109.891,385.546,95.055z"/>
		<linearGradient id="SVGID_9_" gradientUnits="userSpaceOnUse" x1="404.4365" y1="138.5498" x2="337.4207" y2="194.7827">
			<stop  offset="0" style="stop-color:#851F04"/>
			<stop  offset="0.4681" style="stop-color:#AF2F18"/>
			<stop  offset="1" style="stop-color:#E54025"/>
		</linearGradient>
		<path fill="url(#SVGID_9_)" d="M419.16,167.841l-1.82-13.914c0,0-1.491,20.437-44.237,11.719
			c-42.746-8.717-51.796-0.325-54.822,4.292c3.78,6.022,7.023,10.403,7.023,10.403s6.391-19.315,40.156-13.108
			S406.016,177.573,419.16,167.841z"/>
	</g>
	<g id="Points">
		<linearGradient id="SVGID_10_" gradientUnits="userSpaceOnUse" x1="5.5171" y1="212.8623" x2="20.1724" y2="212.8623">
			<stop  offset="0" style="stop-color:#311300"/>
			<stop  offset="1" style="stop-color:#311300"/>
		</linearGradient>
		<polygon fill="url(#SVGID_10_)" points="7.241,202.517 5.517,223.207 20.172,214.586 		"/>
		<linearGradient id="SVGID_11_" gradientUnits="userSpaceOnUse" x1="28.7563" y1="117.2104" x2="45.623" y2="117.2104">
			<stop  offset="0" style="stop-color:#311300"/>
			<stop  offset="1" style="stop-color:#311300"/>
		</linearGradient>
		<polygon fill="url(#SVGID_11_)" points="38.497,108.043 28.756,126.378 45.623,124.232 		"/>
		<linearGradient id="SVGID_12_" gradientUnits="userSpaceOnUse" x1="78.2065" y1="49.73" x2="95.0063" y2="49.73">
			<stop  offset="0" style="stop-color:#311300"/>
			<stop  offset="1" style="stop-color:#311300"/>
		</linearGradient>
		<polygon fill="url(#SVGID_12_)" points="92.652,40.964 78.207,55.877 95.006,58.496 		"/>
		<linearGradient id="SVGID_13_" gradientUnits="userSpaceOnUse" x1="161.8145" y1="13.9102" x2="181.8306" y2="13.9102">
			<stop  offset="0" style="stop-color:#311300"/>
			<stop  offset="1" style="stop-color:#311300"/>
		</linearGradient>
		<polygon fill="url(#SVGID_13_)" points="181.831,5.76 161.814,11.275 174.959,22.06 		"/>
		<linearGradient id="SVGID_14_" gradientUnits="userSpaceOnUse" x1="237.6963" y1="10.6758" x2="258.417" y2="10.6758">
			<stop  offset="0" style="stop-color:#311300"/>
			<stop  offset="1" style="stop-color:#311300"/>
		</linearGradient>
		<polygon fill="url(#SVGID_14_)" points="258.417,4.735 237.696,3.438 246.617,17.913 		"/>
		<linearGradient id="SVGID_15_" gradientUnits="userSpaceOnUse" x1="318.7139" y1="26.5195" x2="335.8145" y2="26.5195">
			<stop  offset="0" style="stop-color:#311300"/>
			<stop  offset="1" style="stop-color:#311300"/>
		</linearGradient>
		<polygon fill="url(#SVGID_15_)" points="335.814,29.792 318.714,18.019 318.916,35.02 		"/>
		<linearGradient id="SVGID_16_" gradientUnits="userSpaceOnUse" x1="387.9766" y1="80.5977" x2="405.6279" y2="80.5977">
			<stop  offset="0" style="stop-color:#311300"/>
			<stop  offset="1" style="stop-color:#311300"/>
		</linearGradient>
		<polygon fill="url(#SVGID_16_)" points="405.628,89.153 393.869,72.042 387.977,87.991 		"/>
		<linearGradient id="SVGID_17_" gradientUnits="userSpaceOnUse" x1="424.3164" y1="159.3506" x2="440.4219" y2="159.3506">
			<stop  offset="0" style="stop-color:#311300"/>
			<stop  offset="1" style="stop-color:#311300"/>
		</linearGradient>
		<polygon fill="url(#SVGID_17_)" points="440.422,169.431 435.458,149.271 424.316,162.114 		"/>
	</g>
	<g id="Sun">
		<linearGradient id="SVGID_18_" gradientUnits="userSpaceOnUse" x1="134.5669" y1="179.3672" x2="309.8271" y2="179.3672">
			<stop  offset="0.1779" style="stop-color:#A34226"/>
			<stop  offset="1" style="stop-color:#FAA41D"/>
		</linearGradient>
		<path fill="url(#SVGID_18_)" d="M141.724,172.345l3.448,3.448c0,0-17.241,33.62-7.758,60.345
			c7.758-1.724,13.793,0.862,7.758-25.862c2.586-19.828,6.897-43.965,29.311-58.621s48.276-22.414,80.172-9.483
			s34.481,18.966,55.172,50.862c-0.861-10.345-0.861-17.242-0.861-17.242s-20.689-16.379-21.552-30.172
			c-3.448,0.862-6.035,0-6.035,0s-7.758,3.448-23.275-16.379c-5.173,3.448-5.173,3.448-5.173,3.448s-8.073,5.677-29.036-10.092
			c-3.722,5.782-3.722,5.782-3.722,5.782S170.172,126.655,141.724,172.345z"/>
	</g>
	<g id="circles">
		<linearGradient id="SVGID_19_" gradientUnits="userSpaceOnUse" x1="195.3276" y1="48.207" x2="195.3276" y2="78.3794">
			<stop  offset="0" style="stop-color:#90562D"/>
			<stop  offset="1" style="stop-color:#FAF065"/>
		</linearGradient>
		<path fill="url(#SVGID_19_)" d="M197.759,48.207c0,0-1.725,6.034-6.035,9.482c-3.448,10.345,0,16.38,2.586,20.69
			c4.31,0,6.034-3.448,6.034-3.448s-6.034-4.311-4.31-12.931S203.793,48.207,197.759,48.207z"/>
		<linearGradient id="SVGID_20_" gradientUnits="userSpaceOnUse" x1="210.0957" y1="47.5" x2="210.0957" y2="72.52">
			<stop  offset="0" style="stop-color:#90562D"/>
			<stop  offset="1" style="stop-color:#FAF065"/>
		</linearGradient>
		<path fill="url(#SVGID_20_)" d="M201,56c0,0,4.5-2,4.5-5.5c3-2.5,5.5-3,5.5-3s2,1.5,6,2.5c2.5,4,3.5,9.5-0.5,15.5s-6,7-6,7
			s-7,0.5-7.5-3.5s-1-7,0.5-9s4.5-4.5,6-3s3.5,3.5,2,4.5S208,61,208,61s-1.5,2.5-1,4s3,3,4.5,0.5s3-7,3-7s-4.5-4.5-5-6
			C207,55.5,201.5,62,201,56z"/>
		<linearGradient id="SVGID_21_" gradientUnits="userSpaceOnUse" x1="225.7007" y1="44.27" x2="225.7007" y2="73.6118">
			<stop  offset="0" style="stop-color:#90562D"/>
			<stop  offset="1" style="stop-color:#FAF065"/>
		</linearGradient>
		<path fill="url(#SVGID_21_)" d="M221.5,46c0,0,2.5-5,7.5,2c1,8,1.5,14.5,1.5,14.5s-1.5,1.5-2.5,4s-8,10.5-7,5.5s5.5-6.5,5.5-10.5
			S221.5,46,221.5,46z"/>
		<linearGradient id="SVGID_22_" gradientUnits="userSpaceOnUse" x1="258.2363" y1="47.2275" x2="258.2363" y2="72.8452">
			<stop  offset="0" style="stop-color:#90562D"/>
			<stop  offset="1" style="stop-color:#FAF065"/>
		</linearGradient>
		<path fill="url(#SVGID_22_)" d="M266.209,47.228c0,0-4.436,4.439-9.877,5.364c-8.035,7.373-7.947,14.323-7.777,19.346
			c3.77,2.091,6.949-0.087,6.949-0.087s-3.185-6.697,2.506-13.398C263.7,51.75,271.485,50.155,266.209,47.228z"/>
		<linearGradient id="SVGID_23_" gradientUnits="userSpaceOnUse" x1="271.3301" y1="52.6748" x2="271.3301" y2="74.6519">
			<stop  offset="0" style="stop-color:#90562D"/>
			<stop  offset="1" style="stop-color:#FAF065"/>
		</linearGradient>
		<path fill="url(#SVGID_23_)" d="M265.263,55.614c0,0,4.905,0.435,6.604-2.626c3.836-0.73,6.265,0.045,6.265,0.045
			s1.021,2.282,4.033,5.097c0.245,4.711-1.549,10.005-7.958,13.311c-6.408,3.306-8.643,3.209-8.643,3.209s-6.363-2.959-4.859-6.699
			c1.503-3.74,2.521-6.606,4.804-7.627c2.282-1.021,6.118-1.751,6.702,0.288c0.583,2.04,1.362,4.759-0.435,4.905
			s-2.818-2.135-2.818-2.135s-2.524,1.458-2.814,3.012c-0.291,1.554,1.167,4.079,3.691,2.621c2.525-1.458,6.02-4.665,6.02-4.665
			s-1.751-6.118-1.461-7.672C270.751,58.088,262.788,61.104,265.263,55.614z"/>
		<linearGradient id="SVGID_24_" gradientUnits="userSpaceOnUse" x1="283.9766" y1="56.2461" x2="283.9766" y2="81.0483">
			<stop  offset="0" style="stop-color:#90562D"/>
			<stop  offset="1" style="stop-color:#FAF065"/>
		</linearGradient>
		<path fill="url(#SVGID_24_)" d="M288.04,56.817c0,0,4.611-3.159,5.587,5.388c-3.007,7.48-5.724,13.407-5.724,13.407
			s-2.039,0.584-4.127,2.285c-2.087,1.701-12.089,5.299-8.789,1.413c3.301-3.887,7.963-3.015,9.904-6.513
			C286.832,69.298,288.04,56.817,288.04,56.817z"/>
		<linearGradient id="SVGID_25_" gradientUnits="userSpaceOnUse" x1="313.7344" y1="73.0908" x2="313.7344" y2="92.9229">
			<stop  offset="0" style="stop-color:#90562D"/>
			<stop  offset="1" style="stop-color:#FAF065"/>
		</linearGradient>
		<path fill="url(#SVGID_25_)" d="M325.616,73.091c0,0-5.656,2.719-11.097,1.788c-10.024,4.294-12.243,10.881-13.748,15.677
			c2.864,3.222,6.585,2.219,6.585,2.219s-0.785-7.374,6.806-11.811C321.75,76.526,329.624,77.602,325.616,73.091z"/>
		<linearGradient id="SVGID_26_" gradientUnits="userSpaceOnUse" x1="324.918" y1="80.3999" x2="324.918" y2="99.0767">
			<stop  offset="0" style="stop-color:#90562D"/>
			<stop  offset="1" style="stop-color:#FAF065"/>
		</linearGradient>
		<path fill="url(#SVGID_26_)" d="M321.944,80.69c0,0,4.483,2.035,7.1-0.291c3.862,0.583,5.896,2.119,5.896,2.119
			s0.208,2.491,2.117,6.146c-1.329,4.526-4.777,8.927-11.919,9.923c-7.142,0.995-9.218,0.164-9.218,0.164s-5.023-4.9-2.365-7.931
			c2.657-3.031,4.567-5.397,7.059-5.604c2.492-0.208,6.353,0.375,6.229,2.492c-0.125,2.117-0.291,4.942-2.035,4.484
			s-1.952-2.948-1.952-2.948s-2.864,0.539-3.653,1.909s-0.25,4.236,2.614,3.696c2.867-0.539,7.226-2.407,7.226-2.407
			s0.376-6.353,1.163-7.723C326.303,84.843,317.79,85.049,321.944,80.69z"/>
		<linearGradient id="SVGID_27_" gradientUnits="userSpaceOnUse" x1="334.5742" y1="89.2754" x2="334.5742" y2="108.4277">
			<stop  offset="0" style="stop-color:#90562D"/>
			<stop  offset="1" style="stop-color:#FAF065"/>
		</linearGradient>
		<path fill="url(#SVGID_27_)" d="M343.036,89.372c0,0,5.397-1.453,3.487,6.935c-5.316,6.061-9.844,10.753-9.844,10.753
			s-2.116-0.125-4.649,0.788c-2.532,0.913-13.162,0.995-8.761-1.579c4.401-2.573,8.511-0.206,11.503-2.863
			C337.761,100.747,343.036,89.372,343.036,89.372z"/>
		<linearGradient id="SVGID_28_" gradientUnits="userSpaceOnUse" x1="361.7197" y1="119.0757" x2="361.7197" y2="133.5156">
			<stop  offset="0" style="stop-color:#90562D"/>
			<stop  offset="1" style="stop-color:#FAF065"/>
		</linearGradient>
		<path fill="url(#SVGID_28_)" d="M376.145,121.128c0,0-6.241,0.656-11.051-2.052c-10.885,0.668-15.191,6.124-18.224,10.133
			c1.612,3.998,5.454,4.307,5.454,4.307s1.743-7.208,10.385-8.83C371.348,123.062,378.4,126.725,376.145,121.128z"/>
		<linearGradient id="SVGID_29_" gradientUnits="userSpaceOnUse" x1="369.4404" y1="127.0479" x2="369.4404" y2="145.356">
			<stop  offset="0" style="stop-color:#90562D"/>
			<stop  offset="1" style="stop-color:#FAF065"/>
		</linearGradient>
		<path fill="url(#SVGID_29_)" d="M370.129,127.048c0,0,3.536,3.425,6.783,2.117c3.44,1.849,4.839,3.98,4.839,3.98
			s-0.644,2.416-0.076,6.5c-2.775,3.815-7.504,6.797-14.563,5.331c-7.06-1.468-8.735-2.949-8.735-2.949s-3.08-6.306,0.443-8.264
			c3.522-1.959,6.118-3.544,8.533-2.9c2.417,0.643,5.855,2.491,5.026,4.443c-0.831,1.952-1.938,4.556-3.427,3.538
			s-0.846-3.434-0.846-3.434s-2.878-0.457-4.082,0.568c-1.205,1.024-1.662,3.904,1.217,4.36c2.881,0.458,7.614,0.166,7.614,0.166
			s2.493-5.855,3.695-6.881C372.835,132.425,364.749,129.753,370.129,127.048z"/>
		<linearGradient id="SVGID_30_" gradientUnits="userSpaceOnUse" x1="375.6172" y1="142.3232" x2="375.6172" y2="156.8384">
			<stop  offset="0" style="stop-color:#90562D"/>
			<stop  offset="1" style="stop-color:#FAF065"/>
		</linearGradient>
		<path fill="url(#SVGID_30_)" d="M387.066,142.323c0,0,5.571,0.45,0.949,7.704c-7.047,3.917-12.89,6.811-12.89,6.811
			s-1.95-0.831-4.644-0.824c-2.691,0.007-12.729-3.495-7.718-4.437c5.011-0.94,8.084,2.672,11.796,1.177
			C378.27,151.259,387.066,142.323,387.066,142.323z"/>
		<linearGradient id="SVGID_31_" gradientUnits="userSpaceOnUse" x1="136.7905" y1="70.5605" x2="136.7905" y2="100.8667">
			<stop  offset="0" style="stop-color:#90562D"/>
			<stop  offset="1" style="stop-color:#FAF065"/>
		</linearGradient>
		<path fill="url(#SVGID_31_)" d="M134.054,70.772c0,0-0.188,6.272-3.518,10.675c-0.798,10.876,4.029,15.876,7.596,19.419
			c4.178-1.062,5-4.827,5-4.827s-6.908-2.695-7.356-11.476C135.326,75.785,139.903,69.288,134.054,70.772z"/>
		<linearGradient id="SVGID_32_" gradientUnits="userSpaceOnUse" x1="148.2861" y1="66.8296" x2="148.2861" y2="91.8291">
			<stop  offset="0" style="stop-color:#90562D"/>
			<stop  offset="1" style="stop-color:#FAF065"/>
		</linearGradient>
		<path fill="url(#SVGID_32_)" d="M139.113,77.528c0,0,3.869-3.044,3.008-6.438c2.294-3.161,4.594-4.261,4.594-4.261
			s2.308,0.962,6.431,0.948c3.408,3.262,5.729,8.348,3.328,15.147c-2.402,6.798-4.095,8.26-4.095,8.26s-6.662,2.206-8.13-1.549
			c-1.469-3.753-2.691-6.539-1.729-8.846c0.962-2.309,3.254-5.468,5.077-4.384c1.823,1.085,4.255,2.532,3.046,3.871
			c-1.208,1.338-3.516,0.377-3.516,0.377s-0.838,2.791,0.015,4.121c0.853,1.332,3.646,2.171,4.484-0.621
			c0.84-2.793,1.187-7.523,1.187-7.523s-5.468-3.256-6.323-4.585C144.805,75.568,141.072,83.223,139.113,77.528z"/>
		<linearGradient id="SVGID_33_" gradientUnits="userSpaceOnUse" x1="162.9146" y1="60.395" x2="162.9146" y2="89.5977">
			<stop  offset="0" style="stop-color:#90562D"/>
			<stop  offset="1" style="stop-color:#FAF065"/>
		</linearGradient>
		<path fill="url(#SVGID_33_)" d="M156.524,62.794c0,0,1.193-5.46,7.762,0.094c2.935,7.509,5.019,13.687,5.019,13.687
			s-1.085,1.821-1.44,4.491c-0.354,2.668-5.171,12.145-5.432,7.053c-0.259-5.092,3.733-7.652,2.749-11.531
			C164.197,72.711,156.524,62.794,156.524,62.794z"/>
		<linearGradient id="SVGID_34_" gradientUnits="userSpaceOnUse" x1="91.1772" y1="123.6162" x2="91.1772" y2="148.8164">
			<stop  offset="0" style="stop-color:#90562D"/>
			<stop  offset="1" style="stop-color:#FAF065"/>
		</linearGradient>
		<path fill="url(#SVGID_34_)" d="M80.822,124.79c0,0,2.972,5.527,2.289,11.004c4.745,9.819,11.425,11.737,16.286,13.023
			c3.088-3.008,1.918-6.68,1.918-6.68s-7.331,1.119-12.108-6.263C84.429,128.496,85.146,120.58,80.822,124.79z"/>
		<linearGradient id="SVGID_35_" gradientUnits="userSpaceOnUse" x1="97.5337" y1="112.6533" x2="97.5337" y2="136.7173">
			<stop  offset="0" style="stop-color:#90562D"/>
			<stop  offset="1" style="stop-color:#FAF065"/>
		</linearGradient>
		<path fill="url(#SVGID_35_)" d="M88.58,128.112c0,0,1.829-4.57-0.613-7.079c0.407-3.885,1.85-5.987,1.85-5.987
			s2.479-0.32,6.043-2.393c4.583,1.122,9.135,4.367,10.454,11.456c1.317,7.088,0.582,9.201,0.582,9.201s-4.667,5.24-7.815,2.722
			c-3.148-2.517-5.599-4.318-5.918-6.797c-0.321-2.48,0.085-6.362,2.206-6.335c2.122,0.029,4.951,0.066,4.573,1.83
			c-0.377,1.763-2.856,2.084-2.856,2.084s0.668,2.836,2.073,3.562c1.405,0.727,4.243,0.059,3.574-2.779
			c-0.668-2.839-2.732-7.109-2.732-7.109s-6.363-0.087-7.769-0.811C92.53,123.57,93.123,132.065,88.58,128.112z"/>
		<linearGradient id="SVGID_36_" gradientUnits="userSpaceOnUse" x1="106.1255" y1="102.5742" x2="106.1255" y2="126.6338">
			<stop  offset="0" style="stop-color:#90562D"/>
			<stop  offset="1" style="stop-color:#FAF065"/>
		</linearGradient>
		<path fill="url(#SVGID_36_)" d="M96.295,106.648c0,0-1.696-5.326,6.769-3.799c6.295,5.037,11.188,9.346,11.188,9.346
			s-0.03,2.12,0.998,4.609c1.027,2.488,1.591,13.104-1.179,8.824c-2.77-4.28-0.592-8.493-3.383-11.361
			C107.898,111.402,96.295,106.648,96.295,106.648z"/>
		<linearGradient id="SVGID_37_" gradientUnits="userSpaceOnUse" x1="67.2285" y1="191.4531" x2="67.2285" y2="210.062">
			<stop  offset="0" style="stop-color:#90562D"/>
			<stop  offset="1" style="stop-color:#FAF065"/>
		</linearGradient>
		<path fill="url(#SVGID_37_)" d="M54.132,193.285c0,0,4.619,4.248,5.768,9.646c7.701,7.722,14.64,7.345,19.654,6.968
			c1.932-3.854-0.376-6.939-0.376-6.939s-6.56,3.459-13.492-1.95C58.755,195.604,56.838,187.891,54.132,193.285z"/>
		<linearGradient id="SVGID_38_" gradientUnits="userSpaceOnUse" x1="70.3755" y1="176.8223" x2="70.3755" y2="198.1094">
			<stop  offset="0" style="stop-color:#90562D"/>
			<stop  offset="1" style="stop-color:#FAF065"/>
		</linearGradient>
		<path fill="url(#SVGID_38_)" d="M62.55,193.882c0,0,0.231-4.917-2.898-6.487c-0.888-3.804-0.214-6.263-0.214-6.263
			s2.238-1.115,4.926-4.241c4.697-0.441,10.061,1.132,13.63,7.398c3.567,6.265,3.565,8.502,3.565,8.502s-2.692,6.48-6.492,5.132
			c-3.799-1.346-6.705-2.245-7.819-4.482c-1.116-2.238-2.004-6.04,0.008-6.708c2.014-0.668,4.699-1.56,4.92,0.23
			c0.221,1.79-2.016,2.905-2.016,2.905s1.561,2.461,3.125,2.687c1.565,0.227,4.028-1.335,2.466-3.796
			c-1.562-2.463-4.911-5.821-4.911-5.821s-6.041,2.002-7.605,1.779C64.795,188.296,68.138,196.128,62.55,193.882z"/>
		<linearGradient id="SVGID_39_" gradientUnits="userSpaceOnUse" x1="74.854" y1="165.2681" x2="74.854" y2="183.7944">
			<stop  offset="0" style="stop-color:#90562D"/>
			<stop  offset="1" style="stop-color:#FAF065"/>
		</linearGradient>
		<path fill="url(#SVGID_39_)" d="M62.808,171.075c0,0-3.347-4.477,5.151-5.807c7.598,2.696,13.633,5.164,13.633,5.164
			s0.667,2.013,2.453,4.028c1.786,2.015,5.797,11.859,1.777,8.723c-4.02-3.136-3.342-7.831-6.919-9.625
			C75.327,171.765,62.808,171.075,62.808,171.075z"/>
	</g>
</g>
</svg>
