<?xml version="1.0" encoding="UTF-8" standalone="no"?>
<!-- Created with Inkscape (http://www.inkscape.org/) -->

<svg
   xmlns:dc="http://purl.org/dc/elements/1.1/"
   xmlns:cc="http://creativecommons.org/ns#"
   xmlns:rdf="http://www.w3.org/1999/02/22-rdf-syntax-ns#"
   xmlns:svg="http://www.w3.org/2000/svg"
   xmlns="http://www.w3.org/2000/svg"
   xmlns:xlink="http://www.w3.org/1999/xlink"
   version="1.1"
   width="976.06476"
   height="826.75574"
   id="svg4910">
  <defs
     id="defs4912">
    <linearGradient
       id="linearGradient6939">
      <stop
         id="stop6941"
         style="stop-color:#ffff00;stop-opacity:1"
         offset="0" />
      <stop
         id="stop6943"
         style="stop-color:#ffff00;stop-opacity:0"
         offset="1" />
    </linearGradient>
    <linearGradient
       id="linearGradient6899">
      <stop
         id="stop6901"
         style="stop-color:#803300;stop-opacity:1"
         offset="0" />
      <stop
         id="stop6903"
         style="stop-color:#803300;stop-opacity:0"
         offset="1" />
    </linearGradient>
    <linearGradient
       id="linearGradient6146">
      <stop
         id="stop6148"
         style="stop-color:#000000;stop-opacity:1"
         offset="0" />
      <stop
         id="stop6150"
         style="stop-color:#000000;stop-opacity:0"
         offset="1" />
    </linearGradient>
    <linearGradient
       id="linearGradient4833">
      <stop
         id="stop4835"
         style="stop-color:#666666;stop-opacity:1"
         offset="0" />
      <stop
         id="stop4837"
         style="stop-color:#666666;stop-opacity:0"
         offset="1" />
    </linearGradient>
    <filter
       color-interpolation-filters="sRGB"
       id="filter4413">
      <feGaussianBlur
         id="feGaussianBlur4415"
         stdDeviation="0.93435183" />
    </filter>
    <filter
       x="-0.16554493"
       y="-0.36612958"
       width="1.3310899"
       height="1.7322592"
       color-interpolation-filters="sRGB"
       id="filter3912">
      <feGaussianBlur
         id="feGaussianBlur3914"
         stdDeviation="4.5247168" />
    </filter>
    <linearGradient
       id="linearGradient3052">
      <stop
         id="stop3054"
         style="stop-color:#d4a96d;stop-opacity:1"
         offset="0" />
      <stop
         id="stop3056"
         style="stop-color:#d4a96d;stop-opacity:0"
         offset="1" />
    </linearGradient>
    <linearGradient
       id="linearGradient4099">
      <stop
         id="stop4101"
         style="stop-color:#d45500;stop-opacity:0.53539824"
         offset="0" />
      <stop
         id="stop4103"
         style="stop-color:#d45500;stop-opacity:0"
         offset="1" />
    </linearGradient>
    <filter
       x="-0.069654547"
       y="-0.10578699"
       width="1.139309"
       height="1.211574"
       color-interpolation-filters="sRGB"
       id="filter3960">
      <feGaussianBlur
         id="feGaussianBlur3962"
         stdDeviation="1.4308734" />
    </filter>
    <filter
       x="-0.25463516"
       y="-0.12535138"
       width="1.5092703"
       height="1.2507029"
       color-interpolation-filters="sRGB"
       id="filter4034">
      <feGaussianBlur
         id="feGaussianBlur4036"
         stdDeviation="3.117504" />
    </filter>
    <filter
       x="-0.03975039"
       y="-0.38156411"
       width="1.0795008"
       height="1.7631282"
       color-interpolation-filters="sRGB"
       id="filter4060">
      <feGaussianBlur
         id="feGaussianBlur4062"
         stdDeviation="3.3383519" />
    </filter>
    <linearGradient
       id="linearGradient4066">
      <stop
         id="stop4068"
         style="stop-color:#808080;stop-opacity:1"
         offset="0" />
      <stop
         id="stop4070"
         style="stop-color:#808080;stop-opacity:0"
         offset="1" />
    </linearGradient>
    <linearGradient
       id="linearGradient4076">
      <stop
         id="stop4078"
         style="stop-color:#666666;stop-opacity:1"
         offset="0" />
      <stop
         id="stop4080"
         style="stop-color:#666666;stop-opacity:0"
         offset="1" />
    </linearGradient>
    <linearGradient
       x1="275.77164"
       y1="673.55499"
       x2="296.47977"
       y2="723.55756"
       id="linearGradient4131"
       xlink:href="#linearGradient4125"
       gradientUnits="userSpaceOnUse"
       gradientTransform="translate(-1.5152288,0.75761441)" />
    <linearGradient
       id="linearGradient4125">
      <stop
         id="stop4127"
         style="stop-color:#ffffff;stop-opacity:1"
         offset="0" />
      <stop
         id="stop4129"
         style="stop-color:#ffffff;stop-opacity:0"
         offset="1" />
    </linearGradient>
    <linearGradient
       x1="285.87317"
       y1="771.53973"
       x2="289.91379"
       y2="858.4129"
       id="linearGradient5816"
       xlink:href="#linearGradient4833"
       gradientUnits="userSpaceOnUse" />
    <radialGradient
       cx="253.21532"
       cy="768.88245"
       r="34.367722"
       fx="253.21532"
       fy="768.88245"
       id="radialGradient5818"
       xlink:href="#linearGradient3052"
       gradientUnits="userSpaceOnUse"
       gradientTransform="matrix(2.5640907,-1.1767548,0.46023545,1.0028304,-771.76229,-131.40894)" />
    <radialGradient
       cx="253.21532"
       cy="768.88245"
       r="34.367722"
       fx="253.21532"
       fy="768.88245"
       id="radialGradient5820"
       xlink:href="#linearGradient3052"
       gradientUnits="userSpaceOnUse"
       gradientTransform="matrix(2.5640907,-0.98671834,0.46023545,0.84088134,-769.42951,-61.841492)" />
    <radialGradient
       cx="253.21532"
       cy="768.88245"
       r="34.367722"
       fx="253.21532"
       fy="768.88245"
       id="radialGradient5822"
       xlink:href="#linearGradient3052"
       gradientUnits="userSpaceOnUse"
       gradientTransform="matrix(1.45245,-0.50399144,0.26070409,0.42950149,-347.23017,126.51908)" />
    <radialGradient
       cx="287.41559"
       cy="700.98926"
       r="105.3996"
       fx="287.41559"
       fy="700.98926"
       id="radialGradient5824"
       xlink:href="#linearGradient4099"
       gradientUnits="userSpaceOnUse"
       gradientTransform="matrix(1.5855067,-0.17316116,0.09831754,0.90021995,-240.70104,-311.62505)" />
    <radialGradient
       cx="413.77356"
       cy="738.36011"
       r="27.235174"
       fx="413.77356"
       fy="738.36011"
       id="radialGradient5826"
       xlink:href="#linearGradient4066"
       gradientUnits="userSpaceOnUse"
       gradientTransform="matrix(2.8061714,-0.79578163,0.45657982,1.6100412,-1010.1376,-555.07528)" />
    <radialGradient
       cx="395.8537"
       cy="727.19678"
       r="29.092289"
       fx="395.8537"
       fy="727.19678"
       id="radialGradient5828"
       xlink:href="#linearGradient4076"
       gradientUnits="userSpaceOnUse"
       gradientTransform="matrix(2.0388951,-0.11762759,0.06653035,1.1531992,-397.61102,-517.25607)" />
    <linearGradient
       x1="275.77164"
       y1="673.55499"
       x2="296.47977"
       y2="723.55756"
       id="linearGradient5830"
       xlink:href="#linearGradient4125"
       gradientUnits="userSpaceOnUse"
       gradientTransform="matrix(1.5969729,0,0,1.5969729,-177.06132,-876.45883)" />
    <linearGradient
       x1="275.77164"
       y1="673.55499"
       x2="296.47977"
       y2="723.55756"
       id="linearGradient5944"
       xlink:href="#linearGradient4125"
       gradientUnits="userSpaceOnUse"
       gradientTransform="matrix(1.5969729,0,0,1.5969729,-174.47976,-848.06166)" />
    <radialGradient
       cx="395.8537"
       cy="727.19678"
       r="29.092289"
       fx="395.8537"
       fy="727.19678"
       id="radialGradient5947"
       xlink:href="#linearGradient4076"
       gradientUnits="userSpaceOnUse"
       gradientTransform="matrix(2.0388951,-0.11762759,0.06653035,1.1531992,-395.02946,-488.8589)" />
    <radialGradient
       cx="413.77356"
       cy="738.36011"
       r="27.235174"
       fx="413.77356"
       fy="738.36011"
       id="radialGradient5952"
       xlink:href="#linearGradient4066"
       gradientUnits="userSpaceOnUse"
       gradientTransform="matrix(2.8061714,-0.79578163,0.45657982,1.6100412,-1007.556,-526.67811)" />
    <radialGradient
       cx="287.41559"
       cy="700.98926"
       r="105.3996"
       fx="287.41559"
       fy="700.98926"
       id="radialGradient5959"
       xlink:href="#linearGradient4099"
       gradientUnits="userSpaceOnUse"
       gradientTransform="matrix(1.5855067,-0.17316116,0.09831754,0.90021995,-238.11948,-283.22788)" />
    <radialGradient
       cx="253.21532"
       cy="768.88245"
       r="34.367722"
       fx="253.21532"
       fy="768.88245"
       id="radialGradient5963"
       xlink:href="#linearGradient3052"
       gradientUnits="userSpaceOnUse"
       gradientTransform="matrix(1.45245,-0.50399144,0.26070409,0.42950149,-344.64861,154.91625)" />
    <radialGradient
       cx="253.21532"
       cy="768.88245"
       r="34.367722"
       fx="253.21532"
       fy="768.88245"
       id="radialGradient5966"
       xlink:href="#linearGradient3052"
       gradientUnits="userSpaceOnUse"
       gradientTransform="matrix(2.5640907,-0.98671834,0.46023545,0.84088134,-766.84795,-33.444326)" />
    <radialGradient
       cx="253.21532"
       cy="768.88245"
       r="34.367722"
       fx="253.21532"
       fy="768.88245"
       id="radialGradient5969"
       xlink:href="#linearGradient3052"
       gradientUnits="userSpaceOnUse"
       gradientTransform="matrix(2.5640907,-1.1767548,0.46023545,1.0028304,-769.18073,-103.01177)" />
    <radialGradient
       cx="253.21532"
       cy="768.88245"
       r="34.367722"
       fx="253.21532"
       fy="768.88245"
       id="radialGradient6044"
       xlink:href="#linearGradient3052"
       gradientUnits="userSpaceOnUse"
       gradientTransform="matrix(2.5640907,-1.1767548,0.46023545,1.0028304,-769.18073,-103.01177)" />
    <radialGradient
       cx="253.21532"
       cy="768.88245"
       r="34.367722"
       fx="253.21532"
       fy="768.88245"
       id="radialGradient6046"
       xlink:href="#linearGradient3052"
       gradientUnits="userSpaceOnUse"
       gradientTransform="matrix(2.5640907,-0.98671834,0.46023545,0.84088134,-766.84795,-33.444326)" />
    <radialGradient
       cx="253.21532"
       cy="768.88245"
       r="34.367722"
       fx="253.21532"
       fy="768.88245"
       id="radialGradient6048"
       xlink:href="#linearGradient3052"
       gradientUnits="userSpaceOnUse"
       gradientTransform="matrix(1.45245,-0.50399144,0.26070409,0.42950149,-344.64861,154.91625)" />
    <radialGradient
       cx="287.41559"
       cy="700.98926"
       r="105.3996"
       fx="287.41559"
       fy="700.98926"
       id="radialGradient6050"
       xlink:href="#linearGradient4099"
       gradientUnits="userSpaceOnUse"
       gradientTransform="matrix(1.5855067,-0.17316116,0.09831754,0.90021995,-238.11948,-283.22788)" />
    <radialGradient
       cx="413.77356"
       cy="738.36011"
       r="27.235174"
       fx="413.77356"
       fy="738.36011"
       id="radialGradient6052"
       xlink:href="#linearGradient4066"
       gradientUnits="userSpaceOnUse"
       gradientTransform="matrix(2.8061714,-0.79578163,0.45657982,1.6100412,-1007.556,-526.67811)" />
    <radialGradient
       cx="395.8537"
       cy="727.19678"
       r="29.092289"
       fx="395.8537"
       fy="727.19678"
       id="radialGradient6054"
       xlink:href="#linearGradient4076"
       gradientUnits="userSpaceOnUse"
       gradientTransform="matrix(2.0388951,-0.11762759,0.06653035,1.1531992,-395.02946,-488.8589)" />
    <linearGradient
       x1="275.77164"
       y1="673.55499"
       x2="296.47977"
       y2="723.55756"
       id="linearGradient6056"
       xlink:href="#linearGradient4125"
       gradientUnits="userSpaceOnUse"
       gradientTransform="matrix(1.5969729,0,0,1.5969729,-174.47976,-848.06166)" />
    <linearGradient
       x1="275.77164"
       y1="673.55499"
       x2="296.47977"
       y2="723.55756"
       id="linearGradient6059"
       xlink:href="#linearGradient4125"
       gradientUnits="userSpaceOnUse"
       gradientTransform="matrix(1.5969729,0,0,1.5969729,-614.63579,-1401.8063)" />
    <radialGradient
       cx="395.8537"
       cy="727.19678"
       r="29.092289"
       fx="395.8537"
       fy="727.19678"
       id="radialGradient6062"
       xlink:href="#linearGradient4076"
       gradientUnits="userSpaceOnUse"
       gradientTransform="matrix(2.0388951,-0.11762759,0.06653035,1.1531992,-835.18549,-1042.6036)" />
    <radialGradient
       cx="413.77356"
       cy="738.36011"
       r="27.235174"
       fx="413.77356"
       fy="738.36011"
       id="radialGradient6067"
       xlink:href="#linearGradient4066"
       gradientUnits="userSpaceOnUse"
       gradientTransform="matrix(2.8061714,-0.79578163,0.45657982,1.6100412,-1447.712,-1080.4228)" />
    <radialGradient
       cx="287.41559"
       cy="700.98926"
       r="105.3996"
       fx="287.41559"
       fy="700.98926"
       id="radialGradient6074"
       xlink:href="#linearGradient4099"
       gradientUnits="userSpaceOnUse"
       gradientTransform="matrix(1.5855067,-0.17316116,0.09831754,0.90021995,-678.27551,-836.97257)" />
    <radialGradient
       cx="253.21532"
       cy="768.88245"
       r="34.367722"
       fx="253.21532"
       fy="768.88245"
       id="radialGradient6078"
       xlink:href="#linearGradient3052"
       gradientUnits="userSpaceOnUse"
       gradientTransform="matrix(1.45245,-0.50399144,0.26070409,0.42950149,-784.80464,-398.82844)" />
    <radialGradient
       cx="253.21532"
       cy="768.88245"
       r="34.367722"
       fx="253.21532"
       fy="768.88245"
       id="radialGradient6081"
       xlink:href="#linearGradient3052"
       gradientUnits="userSpaceOnUse"
       gradientTransform="matrix(2.5640907,-0.98671834,0.46023545,0.84088134,-1207.004,-587.18902)" />
    <radialGradient
       cx="253.21532"
       cy="768.88245"
       r="34.367722"
       fx="253.21532"
       fy="768.88245"
       id="radialGradient6084"
       xlink:href="#linearGradient3052"
       gradientUnits="userSpaceOnUse"
       gradientTransform="matrix(2.5640907,-1.1767548,0.46023545,1.0028304,-1209.3368,-656.75646)" />
    <filter
       x="-0.04981342"
       y="-0.10558296"
       width="1.0996268"
       height="1.2111659"
       color-interpolation-filters="sRGB"
       id="filter6142">
      <feGaussianBlur
         id="feGaussianBlur6144"
         stdDeviation="5.3004135" />
    </filter>
    <linearGradient
       x1="-44.388718"
       y1="958.57764"
       x2="-40.968063"
       y2="799.80688"
       id="linearGradient6152"
       xlink:href="#linearGradient6146"
       gradientUnits="userSpaceOnUse" />
    <linearGradient
       x1="-44.388718"
       y1="958.57764"
       x2="-40.968063"
       y2="799.80688"
       id="linearGradient6754"
       xlink:href="#linearGradient6146"
       gradientUnits="userSpaceOnUse" />
    <radialGradient
       cx="253.21532"
       cy="768.88245"
       r="34.367722"
       fx="253.21532"
       fy="768.88245"
       id="radialGradient6756"
       xlink:href="#linearGradient3052"
       gradientUnits="userSpaceOnUse"
       gradientTransform="matrix(2.5640907,-1.1767548,0.46023545,1.0028304,-1209.3368,-656.75646)" />
    <radialGradient
       cx="253.21532"
       cy="768.88245"
       r="34.367722"
       fx="253.21532"
       fy="768.88245"
       id="radialGradient6758"
       xlink:href="#linearGradient3052"
       gradientUnits="userSpaceOnUse"
       gradientTransform="matrix(2.5640907,-0.98671834,0.46023545,0.84088134,-1207.004,-587.18902)" />
    <radialGradient
       cx="253.21532"
       cy="768.88245"
       r="34.367722"
       fx="253.21532"
       fy="768.88245"
       id="radialGradient6760"
       xlink:href="#linearGradient3052"
       gradientUnits="userSpaceOnUse"
       gradientTransform="matrix(1.45245,-0.50399144,0.26070409,0.42950149,-784.80464,-398.82844)" />
    <radialGradient
       cx="287.41559"
       cy="700.98926"
       r="105.3996"
       fx="287.41559"
       fy="700.98926"
       id="radialGradient6762"
       xlink:href="#linearGradient4099"
       gradientUnits="userSpaceOnUse"
       gradientTransform="matrix(1.5855067,-0.17316116,0.09831754,0.90021995,-678.27551,-836.97257)" />
    <radialGradient
       cx="413.77356"
       cy="738.36011"
       r="27.235174"
       fx="413.77356"
       fy="738.36011"
       id="radialGradient6764"
       xlink:href="#linearGradient4066"
       gradientUnits="userSpaceOnUse"
       gradientTransform="matrix(2.8061714,-0.79578163,0.45657982,1.6100412,-1447.712,-1080.4228)" />
    <radialGradient
       cx="395.8537"
       cy="727.19678"
       r="29.092289"
       fx="395.8537"
       fy="727.19678"
       id="radialGradient6766"
       xlink:href="#linearGradient4076"
       gradientUnits="userSpaceOnUse"
       gradientTransform="matrix(2.0388951,-0.11762759,0.06653035,1.1531992,-835.18549,-1042.6036)" />
    <linearGradient
       x1="275.77164"
       y1="673.55499"
       x2="296.47977"
       y2="723.55756"
       id="linearGradient6768"
       xlink:href="#linearGradient4125"
       gradientUnits="userSpaceOnUse"
       gradientTransform="matrix(1.5969729,0,0,1.5969729,-614.63579,-1401.8063)" />
    <linearGradient
       x1="-44.388718"
       y1="958.57764"
       x2="-40.968063"
       y2="799.80688"
       id="linearGradient6814"
       xlink:href="#linearGradient6146"
       gradientUnits="userSpaceOnUse" />
    <linearGradient
       x1="684.14172"
       y1="896.39752"
       x2="606.69489"
       y2="-368.56699"
       id="linearGradient6935"
       xlink:href="#linearGradient6899"
       gradientUnits="userSpaceOnUse"
       gradientTransform="matrix(0.25896813,0,0,0.25896813,141.50079,95.307646)" />
    <linearGradient
       x1="255.60269"
       y1="2486.6387"
       x2="265.92892"
       y2="3.1776578"
       id="linearGradient6945"
       xlink:href="#linearGradient6939"
       gradientUnits="userSpaceOnUse"
       gradientTransform="matrix(0.25896813,0,0,0.25896813,141.50079,95.307646)" />
    <filter
       color-interpolation-filters="sRGB"
       id="filter6961">
      <feGaussianBlur
         id="feGaussianBlur6963"
         stdDeviation="28.442658" />
    </filter>
  </defs>
  <metadata
     id="metadata4915">
    <rdf:RDF>
      <cc:Work
         rdf:about="">
        <dc:format>image/svg+xml</dc:format>
        <dc:type
           rdf:resource="http://purl.org/dc/dcmitype/StillImage" />
        <dc:title></dc:title>
      </cc:Work>
    </rdf:RDF>
  </metadata>
  <g
     transform="translate(206.78454,537.88072)"
     id="layer1">
    <path
       d="m -4.5076399,-20.816644 188.4636699,-48.612448 18.95789,28.14405 226.37939,-52.45028 5.57584,30.7026 65.79503,-2.55855 13.38202,40.936798 40.14609,7.67565 34.57028,131.765334 -27.87924,20.4684 4.46067,33.26115 -109.28662,37.09898 -25.64888,67.80158 -168.3906,-19.18914 -35.68542,34.54043 -102.59562,0 -3.3455,-30.7026 -160.5844,8.95492 3.3455,-29.42332 -41.2613,-6.39638 4.4607,-49.89172 c 0,0 -31.2247,-8.95493 -28.9944,-16.63058 2.2303,-7.67565 5.5758,-143.278804 5.5758,-143.278804 l 35.6855,-10.2342 0,-26.86477 z"
       id="path6895"
       style="fill:#2b1100;stroke:#000000;stroke-width:0.23133436px;stroke-linecap:butt;stroke-linejoin:miter;stroke-opacity:1" />
    <path
       d="m 205.62777,-32.323174 c -4.80726,1.7647 -10.14082,-1.548548 -11.98537,-6.045288 -4.65075,-6.7317 -9.15344,-13.58255 -13.75768,-20.35327 -61.18286,15.74406 -122.320457,31.670088 -183.5436599,47.253588 -16.1262001,1.4513 -32.2523001,2.9025997 -48.3785001,4.3538997 0,8.44344 0,16.88688 0,25.3303203 -11.9413,3.48157 -23.9072,6.8744 -35.859,10.31826 -1.3532,44.60765 -2.0592,89.257234 -4.977,133.797504 -0.5728,0.97272 0.3249,1.3238 1.0743,1.70702 8.7685,4.99997 18.5934,7.54895 28.1729,10.52113 -1.4332,16.25697 -2.8998,32.51107 -4.3458,48.76694 13.8118,2.13012 27.6227,4.26557 41.4349,6.39327 -1.0384,9.10977 -2.0772,18.21949 -3.1157,27.32923 52.7917,-2.94577 105.583703,-5.88602 158.3752,-8.83728 1.1331,10.40187 2.2659,20.80377 3.3989,31.20566 30.13744,0 60.27486,0 90.41227,0 12.04772,-11.66405 24.09304,-23.33058 36.14224,-34.99307 55.18697,6.2846 110.37441,12.56502 165.56155,18.84802 8.21216,-21.69306 16.39494,-43.39679 24.62626,-65.08193 35.39015,-12.00539 70.77915,-24.01415 106.16886,-36.02084 -1.39198,-10.3884 -2.78389,-20.77681 -4.17586,-31.1652 9.08038,-6.67068 18.16006,-13.34233 27.24018,-20.01338 -10.49898,-39.975514 -20.99799,-79.951024 -31.497,-119.9265243 -13.25083,-2.5178797 -26.50044,-5.0423697 -39.75161,-7.5586297 -4.27416,-13.16101 -8.56573,-26.316348 -12.86745,-39.468368 -22.29079,0.85506 -44.58186,1.70353 -66.87044,2.61396 -1.78615,-9.68316 -3.53771,-19.37224 -5.29266,-29.06108 -72.06328,16.69536 -144.12655,33.39071 -216.18983,50.086058 z"
       id="path6897"
       style="fill:url(#linearGradient6935);fill-opacity:1;stroke:#000000;stroke-width:0.23133436px;stroke-linecap:butt;stroke-linejoin:miter;stroke-opacity:1" />
    <path
       d="m 205.62777,-32.323174 c -4.80726,1.7647 -10.14082,-1.548548 -11.98537,-6.045288 -4.65075,-6.7317 -9.15344,-13.58255 -13.75768,-20.35327 -61.18286,15.74406 -122.320457,31.670088 -183.5436599,47.253588 -16.1262001,1.4513 -32.2523001,2.9025997 -48.3785001,4.3538997 0,8.44344 0,16.88688 0,25.3303203 -11.9413,3.48157 -23.9072,6.8744 -35.859,10.31826 -1.3532,44.60765 -2.0592,89.257234 -4.977,133.797504 -0.5728,0.97272 0.3249,1.3238 1.0743,1.70702 8.7685,4.99997 18.5934,7.54895 28.1729,10.52113 -1.4332,16.25697 -2.8998,32.51107 -4.3458,48.76694 13.8118,2.13012 27.6227,4.26557 41.4349,6.39327 -1.0384,9.10977 -2.0772,18.21949 -3.1157,27.32923 52.7917,-2.94577 105.583703,-5.88602 158.3752,-8.83728 1.1331,10.40187 2.2659,20.80377 3.3989,31.20566 30.13744,0 60.27486,0 90.41227,0 12.04772,-11.66405 24.09304,-23.33058 36.14224,-34.99307 55.18697,6.2846 110.37441,12.56502 165.56155,18.84802 8.21216,-21.69306 16.39494,-43.39679 24.62626,-65.08193 35.39015,-12.00539 70.77915,-24.01415 106.16886,-36.02084 -1.39198,-10.3884 -2.78389,-20.77681 -4.17586,-31.1652 9.08038,-6.67068 18.16006,-13.34233 27.24018,-20.01338 -10.49898,-39.975514 -20.99799,-79.951024 -31.497,-119.9265243 -13.25083,-2.5178797 -26.50044,-5.0423697 -39.75161,-7.5586297 -4.27416,-13.16101 -8.56573,-26.316348 -12.86745,-39.468368 -22.29079,0.85506 -44.58186,1.70353 -66.87044,2.61396 -1.78615,-9.68316 -3.53771,-19.37224 -5.29266,-29.06108 -72.06328,16.69536 -144.12655,33.39071 -216.18983,50.086058 z"
       id="path6937"
       style="fill:url(#linearGradient6945);fill-opacity:1;stroke:#000000;stroke-width:0.23133436px;stroke-linecap:butt;stroke-linejoin:miter;stroke-opacity:1" />
    <g
       transform="matrix(1.5649029,0,0,1.5649029,475.23395,347.04806)"
       id="g6092">
      <path
         d="m -11.35496,-245.00322 c -0.16313,-21.8623 -17.3902,-34.88531 -29.51025,-51.38688 -19.1957,-19.73539 -48.39339,-19.68379 -73.96363,-21.48443 -14.74009,0.034 -30.75779,-0.94847 -45.99802,3.50063 -14.32814,3.34563 -44.77768,14.12384 -62.84013,30.94549 -17.20488,11.57832 -33.23226,25.36643 -43.94889,43.35885 -13.51638,19.09191 -22.396,41.72983 -23.41736,65.23118 -4.0415,13.88124 -37.07232,28.96863 -12.87024,41.44349 20.28354,14.75292 38.95702,-11.11026 58.58918,-2.70678 14.76692,9.18253 32.75266,11.44646 49.13544,6.12057 13.20864,-5.18534 25.53962,-17.0489 40.76016,-13.48249 14.43884,15.79366 37.9455,-6.88901 52.79412,8.39616 32.2735,2.17647 64.65696,-0.15506 96.97411,0.99733 20.77443,6.2877 39.72222,-17.83035 23.4797,-34.65906 -10.2855,-6.92128 -34.06933,-5.60159 -25.71662,-25.48163 7.84205,-16.95928 2.58105,-35.25495 -3.25776,-51.84009 -0.90286,-3.52754 -1.54114,-7.13984 -1.63568,-10.78706"
         id="path3012"
         style="fill:#be8d48;fill-opacity:1;stroke:#000000;stroke-width:1.59697294px;stroke-linecap:butt;stroke-linejoin:miter;stroke-opacity:1" />
      <path
         d="m 16.86046,-241.8705 c -19.28537,11.37727 -41.87233,1.78542 -62.64898,2.78624 -24.95896,-1.09442 -51.86133,4.42735 -71.21688,20.88644 -12.36317,18.0648 1.38697,39.25133 9.89703,55.78079 5.08846,12.19484 -4.19914,33.7611 16.96545,28.54922 29.19593,-0.44593 58.40664,-0.0985 87.61157,-0.20702 17.29005,9.89253 42.93353,-13.36765 30.29394,-30.72692 -15.10877,-4.60695 -35.70913,-21.73659 -19.38827,-37.70873 9.10923,-7.00816 20.90926,-14.197 13.32586,-27.12772 -0.31393,-4.36325 -0.67991,-9.6686 -4.83972,-12.2323 z"
         id="path3016"
         style="fill:#be8d48;fill-opacity:1;stroke:#000000;stroke-width:1.59697294px;stroke-linecap:butt;stroke-linejoin:miter;stroke-opacity:1" />
      <path
         d="m 8.89238,-242.57924 c -7.57873,-13.91297 25.32238,-5.51431 21.72926,-22.87066 8.33607,-14.1072 29.29201,-36.13145 45.70565,-22.34959 5.09485,10.58447 -2.68828,25.88502 11.98209,30.35964 2.47672,9.7725 -6.07594,17.89363 3.48406,27.1876 6.69587,14.65002 -12.88963,33.86827 -27.80077,25.70052 -12.99214,-7.75644 -24.62668,-13.06735 -38.31609,-3.48789 -19.93395,7.13635 -13.05261,-24.27025 -16.7842,-34.53962 z"
         id="path3022"
         style="fill:#ffffff;stroke:#000000;stroke-width:1.59697294px;stroke-linecap:butt;stroke-linejoin:miter;stroke-opacity:1" />
      <path
         d="m 369.74598,736.23527 c 6.88631,5.95109 5.04104,13.12515 -0.0926,19.17128 -8.9569,6.90355 -30.46705,10.41909 -47.66457,7.75416 -14.05379,-3.31041 -15.39595,-11.54763 -11.37724,-17.51335 5.82955,-5.61709 20.44744,-7.91929 32.68544,-10.14599 9.82343,-1.442 22.73757,-2.04539 30.1697,1.80563"
         transform="matrix(1.5969729,0,0,1.5969729,-612.21601,-1403.0162)"
         id="path3024"
         style="fill:#d4ac71;fill-opacity:1;stroke:none;filter:url(#filter3912)" />
      <path
         d="m -175.40397,-160.85622 c 3.71303,-21.37333 -25.01551,-17.00376 -36.86637,-10.66951 16.66401,-11.82507 44.30872,-10.13038 57.98216,-27.83543 13.97956,-7.76893 14.02407,-32.03685 -7.53278,-21.39857 -14.68821,4.30802 -29.1362,13.30826 -45.00661,10.2243 -17.39643,0.65987 -40.13622,7.21646 -44.0982,26.7705 3.31947,14.18443 -7.45876,35.17846 -1.13684,44.64593 21.8078,3.70604 43.55392,16.18183 65.95404,8.23117 16.4868,-0.25833 39.75079,-26.69947 13.31756,-31.21089 l -2.61296,1.2425 z"
         id="path3050"
         style="fill:url(#radialGradient6756);fill-opacity:1;stroke:none" />
      <path
         d="m -194.4459,-172.98589 c -14.03203,-2.19315 -17.35289,-4.37703 -14.28178,-5.92175 16.66401,-9.91541 38.66257,-3.91535 52.33601,-18.76117 13.97957,-6.51431 18.46034,-32.85376 -3.09651,-23.93347 -14.68821,3.61232 -29.1362,11.15909 -45.00661,8.57316 -17.39643,0.5533 -37.5148,7.86589 -41.47677,24.26211 3.31946,11.89375 -20.9692,41.39467 -14.64728,49.33324 21.8078,3.10753 54.44293,-0.14357 76.84305,-6.8102 16.48679,-0.21661 39.75079,-22.38772 13.31755,-26.17058 z"
         id="path3916"
         style="fill:url(#radialGradient6758);fill-opacity:1;stroke:none" />
      <path
         d="m -199.12505,-186.43968 c 2.10328,-9.15396 -14.17023,-7.28253 -20.88325,-4.56963 9.43947,-5.06456 23.72832,-1.22964 31.47375,-8.81253 7.91885,-3.32735 9.31476,-16.83014 -2.89628,-12.27388 -8.32027,1.84508 -16.50445,5.6998 -25.49437,4.37896 -9.85434,0.28262 -22.73548,3.09073 -24.97977,11.46552 1.88033,6.07504 -4.22509,15.06656 -0.64398,19.12138 12.35321,1.58725 24.67146,6.9305 37.36019,3.52532 9.33909,-0.11051 22.51716,-11.43509 7.54385,-13.3673 l -1.48014,0.53216 0,0 z"
         id="path3918"
         style="fill:url(#radialGradient6760);fill-opacity:1;stroke:none" />
      <path
         d="m 325.81741,691.23527 c 6.88631,5.95109 5.04104,13.12515 -0.0926,19.17128 -8.9569,6.90355 -30.46705,10.41909 -47.66457,7.75416 -14.05379,-3.31041 -15.39595,-11.54763 -11.37724,-17.51335 5.82955,-5.61709 20.44744,-7.91929 32.68544,-10.14599 9.82343,-1.442 22.73757,-2.04539 30.1697,1.80563"
         transform="matrix(2.4265353,0,0,1.7162906,-859.30333,-1486.1222)"
         id="path3922"
         style="fill:#d4ac71;fill-opacity:1;stroke:none;filter:url(#filter3912)" />
      <path
         d="m -11.35496,-245.00322 c -0.16313,-21.8623 -17.3902,-34.88531 -29.51025,-51.38688 -19.1957,-19.73539 -48.39339,-19.68379 -73.96363,-21.48443 -14.74009,0.034 -27.93471,3.89109 -41.96506,5.92041 -22.39406,8.99177 -48.81064,11.70406 -66.87309,28.52571 -17.20488,11.57832 -33.23226,25.36643 -43.94889,43.35885 -13.51638,19.09191 -22.396,41.72983 -23.41736,65.23118 -4.0415,13.88124 -37.07232,28.96863 -12.87024,41.44349 20.28354,14.75292 38.95702,-11.11026 58.58918,-2.70678 14.76692,9.18253 32.75266,11.44646 49.13544,6.12057 13.20864,-5.18534 25.53962,-17.0489 40.76016,-13.48249 14.43884,15.79366 37.9455,-6.88901 52.79412,8.39616 32.2735,2.17647 64.65696,-0.15506 96.97411,0.99733 20.77443,6.2877 39.72222,-17.83035 23.4797,-34.65906 -10.2855,-6.92128 -34.06933,-5.60159 -25.71662,-25.48163 7.84205,-16.95928 2.58105,-35.25495 -3.25776,-51.84009 -0.90286,-3.52754 -1.54114,-7.13984 -1.63568,-10.78706"
         id="path4097"
         style="fill:url(#radialGradient6762);fill-opacity:1;stroke:none" />
      <path
         d="m 6.44046,-199.3051 c -2.06365,2.57611 -3.82016,5.63203 -5.51313,8.77065 -1.60684,3.07092 -3.25005,6.09303 -4.81926,9.20941 -0.88016,2.54829 -2.27826,4.42606 -3.65348,6.31917 -1.53974,2.09785 -3.27047,3.77533 -5.09078,5.22597 -2.50803,1.89858 -5.13635,3.37848 -7.84064,4.44576 -2.36852,0.70496 -4.69673,1.67991 -7.02218,2.65746 -2.82522,1.52403 -5.79486,2.09942 -8.71047,3.01894 -2.70238,1.05932 -5.48199,1.42737 -8.25627,1.68196 -2.57527,0.19956 -5.15453,0.18487 -7.73222,0.18678 -3.51181,0.003 -7.02358,-0.01 -10.53539,-0.0128 -1.67837,-0.003 -3.35671,-0.003 -5.03508,-0.003 0,0 3.02767,-0.73983 3.02767,-0.73983 l 0,0 c 1.682,-2.2e-4 3.36396,9e-4 5.04594,0.002 1.16659,0.002 2.33319,0.006 3.49978,0.01 0.86847,0.002 3.4738,-0.01 2.6054,0.006 -0.54377,0.01 -1.0876,0.001 -1.63141,0.002 2.57547,-6.4e-4 5.15229,0.0128 7.7259,-0.16125 2.7704,-0.23148 5.55199,-0.55357 8.25061,-1.61141 2.90368,-0.96681 5.8893,-1.41517 8.70145,-2.99367 2.33003,-0.96377 4.65093,-2.00711 7.02887,-2.66547 2.70051,-1.01164 5.31961,-2.46522 7.82055,-4.34187 1.81771,-1.40019 3.53546,-3.04821 5.07058,-5.10945 1.38209,-1.83898 2.7876,-3.7084 3.66004,-6.22708 1.56729,-3.12933 3.23373,-6.1345 4.8356,-9.22347 1.69316,-3.15925 3.45806,-6.21592 5.47863,-8.88701 0,0 3.08929,0.44327 3.08929,0.44327 z"
         id="path3924"
         style="fill:#000000;fill-opacity:1;stroke:none" />
      <path
         d="m 280.82241,762.95348 c -0.33672,0.16836 -0.8418,0.84179 -1.01015,0.50507 -0.16836,-0.33671 1.17851,-0.84179 1.01015,-0.50507 -1.95515,3.91029 -0.6258,0.56544 -1.51523,1.01015 -0.30305,0.15152 -0.45457,0.60609 -0.75762,0.75762 -0.0753,0.0376 -0.19301,-0.0595 -0.25253,0 -0.0595,0.0595 0.0753,0.21489 0,0.25253 -0.15059,0.0753 -0.34536,-0.0532 -0.50508,0 -0.11294,0.0376 -0.14606,0.1993 -0.25254,0.25254 -0.0753,0.0376 -0.17268,-0.0266 -0.25254,0 -1.4308,0.7154 0.37647,-0.0941 -1.01015,0.25254 -1.05656,-0.45731 -0.29212,0.3986 -0.50507,0.50508 -0.30117,0.15058 -0.69072,-0.10648 -1.01016,0 -0.11294,0.0376 -0.14606,0.19929 -0.25254,0.25253 -0.15058,0.0753 -0.35449,-0.0753 -0.50507,0 -0.10648,0.0532 -0.14606,0.1993 -0.25254,0.25254 -0.15048,0.0752 -1.02805,-0.0587 -1.26269,0 -0.25825,0.0646 -0.49936,0.18798 -0.75762,0.25254 -0.24499,0.0613 -0.50998,-0.0495 -0.75761,0 -0.26103,0.0522 -0.49936,0.18798 -0.75761,0.25254 -0.34496,0.0862 -1.22072,-0.0982 -1.51523,0 -0.11294,0.0376 -0.14606,0.1993 -0.25254,0.25254 -0.16138,0.0807 -0.80689,-0.0678 -1.01015,0 -0.17857,0.0595 -0.32651,0.19301 -0.50508,0.25253 -0.14248,0.0475 -0.59167,0 -0.75761,0 -0.4209,0 -0.8418,0 -1.26269,0 -0.16836,0 -0.3545,-0.0753 -0.50508,0 -0.0753,0.0376 0.0595,0.19302 0,0.25254 -0.0595,0.0595 -0.17268,-0.0266 -0.25254,0 -0.17857,0.0595 -0.32246,0.20689 -0.50508,0.25254 -0.24499,0.0612 -0.51803,-0.0799 -0.75761,0 -0.16836,0.0842 -0.33672,0.16836 -0.50508,0.25254 0,0.0842 0.0595,0.19301 0,0.25254 -0.0491,0.0492 -1.17047,-0.0461 -1.26269,0 -0.0753,0.0376 0,0.16836 0,0.25254 -0.0842,0.0842 -0.1396,0.21489 -0.25253,0.25253 -10e-4,3.8e-4 -0.75738,-2.4e-4 -0.75762,0 -0.0595,0.0595 0.0595,0.19302 0,0.25254 -0.0691,0.0691 -0.87315,-0.0685 -1.01015,0 -0.21296,0.10648 -0.2792,0.42979 -0.50508,0.50508 -0.15972,0.0532 -0.33672,0 -0.50507,0 -0.16836,0.16836 -0.30697,0.373 -0.50508,0.50507 -0.10394,0.0693 -1.11695,-0.0729 -1.26269,0 -1.051,0.52551 0.26997,-0.0174 -0.25254,0.50508 -0.0516,0.0516 -0.65748,-0.0501 -0.75761,0 -1.15577,0.57788 1.07162,-0.10467 -0.75762,0.50508 -0.15972,0.0532 -0.35449,-0.0753 -0.50507,0 -0.21296,0.10648 -0.29212,0.39859 -0.50508,0.50507 -0.62199,0.311 0.22797,-0.73305 -0.75762,0.25254 -0.0595,0.0595 0.0799,0.22592 0,0.25254 -0.23957,0.0799 -0.53173,-0.11294 -0.75761,0 -0.16836,0.0842 -0.11944,0.37198 -0.25254,0.50508 -0.0595,0.0595 -0.19301,-0.0595 -0.25254,0 -0.0595,0.0595 0.0376,0.17724 0,0.25253 -0.0532,0.10648 -0.19929,0.14606 -0.25253,0.25254 -0.0377,0.0753 0,0.16836 0,0.25254 0,0.0842 -0.0753,0.21489 0,0.25254 0.15058,0.0753 0.33671,0 0.50507,0 1.87801,0 0.61848,0 2.27285,0 0.42089,0 0.84179,0 1.26269,0 0.0842,0 0.16835,0 0.25253,0 0.0842,0 0.1825,-0.0467 0.25254,0 0.19811,0.13207 0.37301,0.30697 0.50508,0.50507 0.0934,0.14009 -0.0753,0.3545 0,0.50508 0.5255,1.051 -0.0174,-0.26997 0.50507,0.25254 0.0595,0.0595 0,0.16836 0,0.25254 0,0.42089 0,0.84179 0,1.26269 0,0.0842 0,0.16836 0,0.25254 0,0.0842 0.0376,0.17724 0,0.25253 -0.0532,0.10648 -0.14605,0.1993 -0.25253,0.25254 -0.0753,0.0376 -0.17725,-0.0376 -0.25254,0 -1.19253,0.59627 1.54139,-0.13281 -1.01015,0.50508 -0.0817,0.0204 -0.19302,-0.0595 -0.25254,0 -0.1331,0.1331 -0.11944,0.37198 -0.25254,0.50507 -0.0595,0.0595 -0.17725,-0.0376 -0.25254,0 -0.21296,0.10648 -0.29212,0.3986 -0.50507,0.50508 -0.0753,0.0376 -0.17268,-0.0266 -0.25254,0 -0.17857,0.0595 -0.33672,0.16836 -0.50508,0.25254 -0.16836,0.0842 -0.37198,0.11944 -0.50508,0.25254 -0.0595,0.0595 0.0376,0.17724 0,0.25254 -0.0652,0.13044 -1.17702,1.17702 -1.26269,1.26269 -0.25253,0.25253 -0.50507,0.50507 -0.75761,0.75761 -0.0842,0.0842 -0.16836,0.16836 -0.25254,0.25254 -0.0842,0.0842 -0.21489,0.1396 -0.25254,0.25254 -0.0532,0.15972 0.0532,0.34535 0,0.50507 -0.0376,0.11294 -0.1993,0.14606 -0.25253,0.25254 -0.0376,0.0753 0,0.16836 0,0.25254 0,0.0842 -0.0595,0.19301 0,0.25254 0.0595,0.0595 0.19301,-0.0595 0.25253,0 0.0595,0.0595 -0.0595,0.19301 0,0.25254 0.0595,0.0595 0.17725,-0.0376 0.25254,0 0.62413,0.31206 -0.0872,0.25253 0.50508,0.25253 0.16836,0 0.33672,0 0.50507,0 0.0842,0 0.17725,-0.0376 0.25254,0 0.10648,0.0532 0.14606,0.1993 0.25254,0.25254 0.0753,0.0376 0.21489,-0.0753 0.25254,0 0,1.14963 -0.11905,0.0144 0.25254,0.75762 0.0376,0.0753 0,0.16835 0,0.25253 0,0.16836 0.0753,0.3545 0,0.50508 -0.0376,0.0753 -0.17725,-0.0376 -0.25254,0 -0.22384,0.11192 -0.52773,0.60436 -0.75762,0.75761 -0.31323,0.20883 -0.69691,0.29626 -1.01015,0.50508 -0.0991,0.066 -0.14606,0.1993 -0.25254,0.25254 -0.26937,0.13469 -0.33756,-0.25 -0.50507,0.25254 -0.016,0.0478 -0.016,1.4674 0,1.51523 0.0376,0.11293 0.16836,0.16835 0.25254,0.25253 0.0842,0.16836 0.19301,0.32651 0.25253,0.50508 0.0266,0.0799 0,0.16836 0,0.25254 0.0842,0.16836 0.19302,0.3265 0.25254,0.50507 0.1045,0.31351 -0.20731,0.27516 0.25254,0.50508 0.0753,0.0376 0.1825,-0.0467 0.25254,0 0.004,0.003 1.21751,1.17233 1.26269,1.26269 0.0376,0.0753 -0.0376,0.17725 0,0.25254 0.0532,0.10648 0.16836,0.16836 0.25254,0.25254 0.0842,0.0842 0.14606,0.1993 0.25253,0.25254 0.0753,0.0376 0.19302,-0.0595 0.25254,0 0.0595,0.0595 -0.0595,0.19301 0,0.25253 0.0595,0.0595 0.19302,-0.0595 0.25254,0 0.0595,0.0595 -0.0595,0.19302 0,0.25254 0.32783,0.32783 0.61007,0.25254 1.01015,0.25254 0.0842,0 0.1825,-0.0467 0.25254,0 0.19811,0.13207 0.30697,0.37301 0.50508,0.50508 0.0974,0.0649 0.61697,-0.0469 0.75761,0 0.16836,0.0842 0.33672,0.16836 0.50508,0.25254 0,0.0842 -0.0595,0.19301 0,0.25253 0.0595,0.0595 0.16836,0 0.25254,0 0.33671,0 0.67343,0 1.01015,0 0.50508,0 1.01015,0 1.51523,0 0.16836,0 0.36499,-0.0934 0.50507,0 0.15662,0.10441 0.11944,0.37198 0.25254,0.50508 0.0595,0.0595 0.16836,0 0.25254,0 0.16836,0 0.33672,0 0.50508,0 0.84179,0 1.68358,0 2.52538,0 0.75761,0 1.51523,0 2.27284,0 0.14551,0 1.17065,0.046 1.26269,0 0.21296,-0.10648 0.29212,-0.3986 0.50508,-0.50508 0.15872,-0.0794 0.85143,0.0794 1.01015,0 0.0753,-0.0376 -0.0595,-0.19301 0,-0.25253 0.11905,-0.11905 0.34536,0.0532 0.50508,0 0.17857,-0.0595 0.37197,-0.11944 0.50507,-0.25254 0.0595,-0.0595 -0.0376,-0.17725 0,-0.25254 0.0523,-0.10449 0.65058,-0.68625 0.75762,-0.75762 0.15662,-0.10441 0.3265,-0.19301 0.50507,-0.25253 0.0799,-0.0266 0.19302,0.0595 0.25254,0 0.1331,-0.1331 0.11944,-0.37198 0.25254,-0.50508 0.0595,-0.0595 0.17725,0.0376 0.25254,0 0.30304,-0.15152 0.45457,-0.60609 0.75761,-0.75761 0.0753,-0.0376 0.19302,0.0595 0.25254,0 0.0595,-0.0595 -0.0595,-0.19302 0,-0.25254 0.1331,-0.1331 0.34846,-0.14813 0.50508,-0.25254 0.21791,-0.14528 0.56036,-0.56036 0.75761,-0.75762 0.0842,-0.0842 0.14606,-0.19929 0.25254,-0.25253 0.0753,-0.0377 0.19301,0.0595 0.25254,0 0.1331,-0.1331 0.11944,-0.37198 0.25254,-0.50508 0.11904,-0.11905 0.35449,0.0753 0.50507,0 0.0676,-0.0338 0.43745,-0.47126 0.50508,-0.50508 0.0753,-0.0376 0.19301,0.0595 0.25254,0 0.0595,-0.0595 -0.0595,-0.19301 0,-0.25253 0.11904,-0.11905 0.34535,0.0532 0.50507,0 0.16836,-0.0842 0.33672,-0.16836 0.50508,-0.25254 0.0842,0 0.17268,0.0266 0.25254,0 0.17857,-0.0595 0.3265,-0.19302 0.50507,-0.25254 0.2269,-0.0756 0.52501,0.0581 0.75762,0 0.25825,-0.0646 0.49936,-0.18798 0.75761,-0.25254 0.20928,-0.0523 0.99677,0 1.26269,0 0.8418,0 1.68359,0 2.52538,0 0.33672,0 0.67344,0 1.01016,0 0.16836,0 0.33671,0 0.50507,0 0.0842,0 0.17088,0.0204 0.25254,0 0.25825,-0.0646 0.49504,-0.20877 0.75762,-0.25254 0.2491,-0.0415 0.50507,0 0.75761,0 0.75762,0 1.51834,0.0686 2.27284,0 0.42747,-0.0389 0.83678,-0.19929 1.26269,-0.25253 0.25059,-0.0313 0.50508,0 0.75762,0 0.16836,0 0.34876,0.0625 0.50508,0 0.2818,-0.11273 0.48614,-0.36935 0.75761,-0.50508 0.0753,-0.0376 0.17725,0.0376 0.25254,0 0.10648,-0.0532 0.14606,-0.1993 0.25254,-0.25254 0.15058,-0.0753 0.38602,0.11905 0.50507,0 0.0595,-0.0595 -0.0595,-0.19301 0,-0.25254 0.11905,-0.11904 0.365,0.0934 0.50508,0 0.29716,-0.1981 0.46045,-0.5595 0.75761,-0.75761 0.15662,-0.10441 0.34846,-0.14813 0.50508,-0.25254 0.099,-0.066 0.1396,-0.21489 0.25254,-0.25254 0.15972,-0.0532 0.34174,0.0408 0.50507,0 0.69084,-0.17271 0.40639,-0.3551 1.01016,-0.75761 0.07,-0.0467 0.18249,0.0467 0.25253,0 0.1746,-0.1164 1.72756,-1.71416 1.76777,-1.76777 0.0505,-0.0673 -0.0467,-0.1825 0,-0.25254 0.13207,-0.1981 0.33672,-0.33671 0.50508,-0.50507 0.0842,-0.0842 0.21489,-0.1396 0.25254,-0.25254 0.0532,-0.15972 0,-0.33672 0,-0.50508 0,-0.0842 -0.0376,-0.17724 0,-0.25254 0.0532,-0.10648 0.21489,-0.1396 0.25253,-0.25253 0.0464,-0.13922 0,-1.30092 0,-1.51523 0,-0.16836 0.10102,-0.37039 0,-0.50508 -0.2283,-0.3044 -1.12817,-0.71461 -1.51523,-0.75761 -0.50198,-0.0558 -1.01522,0.0714 -1.51522,0 -0.68719,-0.0982 -1.33224,-0.41334 -2.02031,-0.50508 -0.58409,-0.0779 -1.17851,0 -1.76777,0 -1.76776,0 -3.53553,0 -5.3033,0 -0.58925,0 -1.17851,0 -1.76776,0 -0.49806,0 -1.37181,0.14342 -1.76777,-0.25254 -0.0595,-0.0595 0,-0.16836 0,-0.25254 0,-0.50507 0,-1.01015 0,-1.51523 0,-0.16835 -0.033,-0.33998 0,-0.50507 0.0723,-0.36137 0.30305,-0.92597 0.50508,-1.26269 0.15615,-0.26026 0.34892,-0.49736 0.50507,-0.75762 0.0969,-0.1614 0.14813,-0.34846 0.25254,-0.50507 0.19426,-0.29139 0.56335,-0.46623 0.75761,-0.75762 0.10442,-0.15661 0.1396,-0.35449 0.25254,-0.50507 0.14286,-0.19048 0.37301,-0.30697 0.50508,-0.50508 0.0467,-0.07 0,-0.16836 0,-0.25254 0,-0.16836 -0.0532,-0.34535 0,-0.50507 0.0376,-0.11294 0.1865,-0.15349 0.25254,-0.25254 0.10441,-0.15662 0.19301,-0.32651 0.25254,-0.50508 0.0266,-0.0799 -0.0595,-0.19301 0,-0.25254 0.13309,-0.1331 0.37197,-0.11944 0.50507,-0.25253 0.0595,-0.0595 0,-0.16836 0,-0.25254 0,-0.17565 0.0457,-1.17137 0,-1.26269 -0.0532,-0.10648 -0.16836,-0.16836 -0.25254,-0.25254 -0.0842,-0.0842 -0.14606,-0.1993 -0.25253,-0.25254 -0.0753,-0.0376 -0.17268,0.0266 -0.25254,0 -0.35715,-0.11905 -0.65301,-0.38603 -1.01016,-0.50508 -0.0799,-0.0266 -0.17267,0.0266 -0.25253,0 -0.17858,-0.0595 -0.32651,-0.19301 -0.50508,-0.25253 -0.0799,-0.0266 -0.16836,0 -0.25254,0 -0.18054,0 -1.38596,0.0431 -1.51523,0 -0.11294,-0.0376 -0.14606,-0.1993 -0.25254,-0.25254 -0.0753,-0.0376 -0.17724,0.0376 -0.25253,0 -0.10648,-0.0532 -0.16836,-0.16836 -0.25254,-0.25254 -0.0842,-0.0842 -0.21489,-0.1396 -0.25254,-0.25254 -0.0532,-0.15972 0,-0.33672 0,-0.50507 0,-0.0842 -0.0595,-0.19302 0,-0.25254 0.0595,-0.0595 0.17725,0.0376 0.25254,0 0.40087,-0.20044 0.31308,-0.5489 0,-0.75762 -0.40841,-0.27227 -0.8418,-0.50507 -1.26269,-0.75761 z"
         transform="matrix(1.5969729,0,0,1.5173291,-612.21601,-1342.2517)"
         id="path3930"
         style="fill:#be8d48;fill-opacity:1;stroke:none;filter:url(#filter3960)" />
      <path
         d="m 219.2031,728.10322 c 0.67344,-0.16836 1.32615,-0.50508 2.02031,-0.50508 0.16836,0 -0.11905,0.38603 0,0.50508 0.11905,0.11904 0.33672,0 0.50507,0 0,0.16835 -0.0753,0.35449 0,0.50507 0.21296,0.42592 0.85957,0.5584 1.01016,1.01015 0.1789,0.5367 -0.1789,1.48361 0,2.02031 0.11904,0.35714 0.38603,0.65301 0.50507,1.01015 0.11581,0.34741 -0.149,1.21723 0,1.51523 0.10648,0.21296 0.3986,0.29212 0.50508,0.50508 0.0768,0.15356 0,1.67154 0,2.0203 0,1.51523 0,3.03046 0,4.54569 0,1.01015 0,2.0203 0,3.03046 0,0.16835 0,0.33671 0,0.50507 0,0.16836 0.0934,0.365 0,0.50508 -0.26414,0.39621 -0.74601,0.61394 -1.01015,1.01015 -0.18678,0.28017 0.18677,0.72999 0,1.01015 -0.26415,0.39622 -0.7972,0.58424 -1.01016,1.01016 -0.15058,0.30117 0,0.67343 0,1.01015 0,0.50508 0.15972,1.03607 0,1.51523 -0.0532,0.15972 -0.35449,-0.0753 -0.50507,0 -0.21296,0.10648 -0.3986,0.29212 -0.50508,0.50507 -0.15058,0.30117 0.15059,0.70899 0,1.01016 -0.10648,0.21296 -0.3986,0.29211 -0.50507,0.50507 -0.0753,0.15059 0.0753,0.35449 0,0.50508 -0.10648,0.21296 -0.3986,0.29212 -0.50508,0.50508 -0.15873,0.31745 0.15872,1.70285 0,2.0203 -0.10648,0.21296 -0.3986,0.29212 -0.50508,0.50508 -0.0753,0.15058 0.0753,0.35449 0,0.50507 -0.10648,0.21296 -0.39859,0.29212 -0.50507,0.50508 -0.16406,0.32811 0.16019,2.205 0,2.52538 -0.10648,0.21296 -0.3986,0.29212 -0.50508,0.50508 -0.0753,0.15058 0,0.33671 0,0.50507 0,0.16836 0,0.33672 0,0.50508 0,0.84179 0,1.68359 0,2.52538 0,1.17851 0,2.35702 0,3.53553 0,0.33672 0,0.67344 0,1.01016 0,0.16836 0.0753,0.35449 0,0.50507 -0.10648,0.21296 -0.3986,0.29212 -0.50508,0.50508 -0.0753,0.15058 0,0.33672 0,0.50508 -0.16836,0.33671 -0.29625,0.69691 -0.50507,1.01015 -0.26415,0.39621 -0.7972,0.58423 -1.01016,1.01015 -0.0753,0.15059 0.0753,0.35449 0,0.50508 -0.21295,0.42592 -0.79719,0.58423 -1.01015,1.01015 -0.0753,0.15058 0.11905,0.38603 0,0.50508 -0.11905,0.11904 -0.42978,-0.15059 -0.50507,0 -0.80018,1.60034 1.0452,0.47002 -0.50508,2.0203 -0.11905,0.11905 -0.38603,-0.11905 -0.50508,0 -0.2662,0.2662 -0.29625,0.69692 -0.50507,1.01015 -0.13207,0.19811 -0.3986,0.29212 -0.50508,0.50508 -0.15058,0.30117 0.2381,0.77206 0,1.01015 -0.2662,0.2662 -0.69692,0.29626 -1.01015,0.50508 -1.00059,-0.0504 -0.23888,0.74395 -0.50508,1.01015 -1.04502,1.04502 0.0409,-1.59693 -1.01015,0.50508 -0.0753,0.15058 0.0753,0.35449 0,0.50507 -0.10648,0.21296 -0.3986,0.29212 -0.50508,0.50508 -0.0753,0.15058 0.0753,0.35449 0,0.50508 -0.10648,0.21296 -0.39859,0.29211 -0.50507,0.50507 -0.0753,0.15059 0.11904,0.38603 0,0.50508 -0.11905,0.11905 -0.35449,-0.0753 -0.50508,0 -0.26975,0.13488 -1.24932,1.24932 -1.51523,1.51523 -0.57788,0.57788 -0.59789,0.70437 -1.51523,1.01015 -0.15972,0.0532 -0.35449,-0.0753 -0.50507,0 -0.21296,0.10648 -0.29212,0.3986 -0.50508,0.50508 -0.30095,0.15047 -2.0561,-0.11732 -2.52538,0 -0.5165,0.12912 -0.99873,0.37595 -1.51523,0.50507 -0.16333,0.0408 -0.33672,0 -0.50508,0 -0.33671,0 -0.67343,0 -1.01015,0 -1.01015,0 -2.0203,0 -3.03046,0 -0.16835,0 -0.33671,0 -0.50507,0 -0.16836,0 -0.38603,-0.11904 -0.50508,0 -0.11905,0.11905 0.11905,0.38603 0,0.50508 -0.11905,0.11905 -0.38603,0.11905 -0.50507,0 -0.0163,-0.0162 0,-1.39273 0,-1.51523 0,-0.33672 -0.10648,-0.69071 0,-1.01015 0.11904,-0.35714 0.38602,-0.65301 0.50507,-1.01015 0.10648,-0.31944 -0.15058,-0.70899 0,-1.01016 1.051,-2.102 -0.0349,0.53995 1.01015,-0.50507 0.2662,-0.2662 0.29626,-0.69692 0.50508,-1.01016 0.38852,-0.58278 1.12671,-0.93244 1.51523,-1.51522 0.20882,-0.31324 0.29625,-0.69692 0.50508,-1.01016 0.13207,-0.1981 0.39859,-0.29211 0.50507,-0.50507 0.0753,-0.15059 -0.0753,-0.3545 0,-0.50508 0.21296,-0.42592 0.74601,-0.61394 1.01015,-1.01015 0.20883,-0.31324 0.29626,-0.69692 0.50508,-1.01015 0.13207,-0.19811 0.3986,-0.29212 0.50508,-0.50508 0.0753,-0.15059 -0.11905,-0.38603 0,-0.50508 0.11904,-0.11905 0.38603,0.11905 0.50507,0 0.11905,-0.11905 -0.0532,-0.34535 0,-0.50507 0.11905,-0.35715 0.29626,-0.69692 0.50508,-1.01016 0.13207,-0.1981 0.3986,-0.29211 0.50508,-0.50507 0.0753,-0.15059 -0.0753,-0.35449 0,-0.50508 0.10647,-0.21296 0.373,-0.30697 0.50507,-0.50508 0.20883,-0.31323 0.29625,-0.69691 0.50508,-1.01015 0.77356,-1.16034 0.2885,0.21658 1.51523,-1.01015 0.23809,-0.2381 -0.2381,-0.77206 0,-1.01015 0.11904,-0.11905 0.42978,0.15058 0.50507,0 0.17602,-0.35204 -0.17115,-2.51702 0,-3.03046 0.11905,-0.35714 0.38603,-0.65301 0.50508,-1.01015 0.15704,-0.47113 -0.15561,-2.05857 0,-2.52538 0.0753,-0.22588 0.3986,-0.29212 0.50508,-0.50508 0.149,-0.29801 -0.11581,-1.16782 0,-1.51523 0.23809,-0.71429 0.77205,-1.30602 1.01015,-2.0203 0.0532,-0.15972 -0.0408,-0.34175 0,-0.50508 0.12912,-0.5165 0.40066,-0.99317 0.50507,-1.51523 0.066,-0.33018 0,-0.67343 0,-1.01015 0.16836,-0.50508 0.37596,-0.99873 0.50508,-1.51523 0.0817,-0.32666 -0.15058,-0.70898 0,-1.01015 0.10648,-0.21296 0.3986,-0.29212 0.50508,-0.50508 0.0753,-0.15058 -0.0532,-0.34536 0,-0.50508 0.11904,-0.35714 0.38603,-0.65301 0.50507,-1.01015 0.0532,-0.15972 -0.0532,-0.34536 0,-0.50507 0.11905,-0.35715 0.41377,-0.64494 0.50508,-1.01016 0.0817,-0.32666 -0.10648,-0.69071 0,-1.01015 0.0753,-0.22588 0.3986,-0.29212 0.50508,-0.50508 0.0753,-0.15058 -0.0753,-0.35449 0,-0.50507 0.10648,-0.21296 0.39859,-0.29212 0.50507,-0.50508 0.15059,-0.30117 -0.23809,-0.77206 0,-1.01015 0.11905,-0.11905 0.38603,0.11905 0.50508,0 0.11905,-0.11905 -0.0753,-0.35449 0,-0.50508 0.10648,-0.21296 0.3986,-0.29212 0.50507,-0.50507 0.0753,-0.15059 -0.0532,-0.34536 0,-0.50508 0.2381,-0.71429 0.82755,-1.28986 1.01016,-2.02031 0.0817,-0.32666 -0.15059,-0.70898 0,-1.01015 0.0753,-0.15058 0.42978,0.15059 0.50507,0 0.15059,-0.30117 -0.10648,-0.69071 0,-1.01015 0.0753,-0.22588 0.3986,-0.29212 0.50508,-0.50508 0.20203,-0.40406 -0.20203,-1.11116 0,-1.51523 1.15577,-2.31153 -0.20934,2.14325 1.01015,-1.51522 0.0532,-0.15972 -0.11905,-0.38603 0,-0.50508 0.11905,-0.11905 0.38603,0.11905 0.50508,0 0.11905,-0.11905 -0.0753,-0.35449 0,-0.50508 0.10648,-0.21296 0.3986,-0.29211 0.50507,-0.50507 0.0753,-0.15059 -0.0753,-0.35449 0,-0.50508 0.21296,-0.42592 0.7972,-0.58423 1.01016,-1.01015 0.15058,-0.30117 -0.15059,-0.70899 0,-1.01015 1.051,-2.10201 -0.0349,0.53994 1.01015,-0.50508 0.2381,-0.2381 -0.10648,-0.69071 0,-1.01015 0.2867,-0.86012 0.67343,-1.68359 1.01015,-2.52538 z"
         transform="matrix(1.5969729,0,0,1.5969729,-612.21601,-1403.0162)"
         id="path3964"
         style="fill:#d2a669;fill-opacity:1;stroke:none;filter:url(#filter4034)" />
      <path
         d="m 396.98995,776.08546 c -0.67343,0.16836 -1.85195,1.17851 -2.0203,0.50508 -0.16836,-0.67344 2.51115,-0.99592 2.0203,-0.50508 -0.7986,0.7986 -2.04988,0.9549 -3.03046,1.51523 -1.00058,-0.0504 -0.23887,0.74395 -0.50507,1.01015 -0.11905,0.11905 -0.38603,-0.11904 -0.50508,0 -0.2662,0.2662 -0.23888,0.74396 -0.50508,1.01016 -0.11904,0.11904 -0.35449,-0.0753 -0.50507,0 -0.21296,0.10647 -0.33672,0.33671 -0.50508,0.50507 -0.16836,0.16836 -0.3986,0.29212 -0.50507,0.50508 -0.0753,0.15058 0.15058,0.42978 0,0.50507 -0.30117,0.15059 -0.70899,-0.15058 -1.01016,0 -0.15058,0.0753 0.11905,0.38603 0,0.50508 -0.11904,0.11905 -0.33671,0 -0.50507,0 -0.16836,0 -0.33672,0 -0.50508,0 -0.67343,0 -1.35995,-0.13207 -2.0203,0 -2.03249,0.4065 -0.23206,0.36857 -1.51523,1.01015 -0.15059,0.0753 -0.34175,-0.0408 -0.50508,0 -0.5165,0.12913 -0.99873,0.37595 -1.51523,0.50508 -0.41461,0.10365 -1.72335,-0.14848 -2.0203,0 -0.54294,0.27147 -1.02961,0.64594 -1.51523,1.01015 -0.77013,0.5776 -0.29393,0.70483 -1.51523,1.01015 -0.32667,0.0817 -0.67344,0 -1.01015,0 -1.01016,0 -2.02031,0 -3.03046,0 -3.19882,0 -6.39763,0 -9.59645,0 -1.01015,0 -2.02031,0 -3.03046,0 -0.33672,0 -0.69071,-0.10648 -1.01015,0 -0.22588,0.0753 -0.29212,0.3986 -0.50508,0.50508 -0.31051,0.15526 -2.95352,-0.1164 -3.53553,0 -0.52206,0.10441 -0.99317,0.40067 -1.51523,0.50508 -0.50121,0.10024 -1.99473,0 -2.52538,0 -1.51523,0 -3.03046,0 -4.54569,0 -5.21912,0 -10.43824,0 -15.65736,0 -4.71405,0 -9.42809,0 -14.14214,0 -0.67343,0 -1.34687,0 -2.0203,0 -0.16836,0 -0.38603,0.11904 -0.50508,0 -0.11905,-0.11905 0.0753,-0.35449 0,-0.50508 -0.10648,-0.21296 -0.33672,-0.33672 -0.50508,-0.50508 -0.33671,-0.33671 -0.74601,-0.61393 -1.01015,-1.01015 -0.18678,-0.28016 0.15059,-0.70898 0,-1.01015 -0.55837,-1.11675 -0.31347,-0.15674 -1.01015,-0.50508 -0.42592,-0.21296 -0.58424,-0.79719 -1.01015,-1.01015 -0.26707,-0.13353 -1.77424,0.0615 -2.02031,0 -0.36522,-0.0913 -0.65301,-0.38603 -1.01015,-0.50508 -0.2941,-0.098 -2.68293,0 -3.03046,0 -2.69374,0 -5.38748,0 -8.08122,0 -1.01015,0 -2.0203,0 -3.03046,0 -0.33671,0 -0.70898,0.15059 -1.01015,0 -0.15058,-0.0753 0.11905,-0.38602 0,-0.50507 -0.23809,-0.2381 -0.69071,0.10648 -1.01015,0 -2.86161,-1.4308 0.75292,0.18823 -2.02031,-0.50508 -0.36522,-0.0913 -0.64493,-0.41377 -1.01015,-0.50507 -0.3973,-0.0993 -2.50522,0 -3.03046,0 -2.35702,0 -4.71404,0 -7.07106,0 -1.68359,0 -3.36718,0 -5.05077,0 -0.50483,0 -2.09327,-0.10803 -2.52538,0 -0.50508,0.16835 -1.01015,0.33671 -1.51523,0.50507 0,0.16836 0.11905,0.38603 0,0.50508 -0.1382,0.1382 -1.74631,-0.137 -2.0203,0 -0.60609,0.30304 -0.90914,1.21218 -1.51523,1.51523 -0.15059,0.0753 -0.38603,-0.11905 -0.50508,0 -0.11905,0.11904 0.0753,0.35449 0,0.50507 -0.10648,0.21296 -0.39859,0.29212 -0.50507,0.50508 -0.0753,0.15058 0,0.33672 0,0.50508 0,0.77264 0.0532,1.18283 -0.50508,2.0203 -0.0934,0.14008 -0.38603,-0.11905 -0.50508,0 -0.11904,0.11905 0.11905,0.38603 0,0.50508 -0.11904,0.11904 -0.36499,-0.0934 -0.50507,0 -0.39622,0.26414 -0.61394,0.74601 -1.01016,1.01015 -0.14008,0.0934 -0.34174,-0.0408 -0.50507,0 -0.5165,0.12912 -0.99873,0.37595 -1.51523,0.50508 -0.16333,0.0408 -0.34174,-0.0408 -0.50508,0 -0.5165,0.12912 -0.99317,0.40066 -1.51523,0.50507 -0.66035,0.13207 -1.34687,0 -2.0203,0 -1.17851,0 -2.35702,0 -3.53553,0 -0.60388,0 -2.70082,-0.10988 -3.03046,0 -0.91416,-0.30442 -0.93936,0.8182 -1.51523,1.01015 -0.61567,0.20523 -3.00048,-0.21402 -3.53554,0 -0.44213,0.17686 -0.58423,0.7972 -1.01015,1.01016 -0.14569,0.0728 -2.70765,0 -3.03046,0 -0.16835,0 -0.35449,0.0753 -0.50507,0 -0.21296,-0.10648 -0.33672,-0.33672 -0.50508,-0.50508 -0.16836,-0.16836 -0.39859,-0.29212 -0.50507,-0.50508 -0.0753,-0.15058 0.11904,-0.38602 0,-0.50507 -0.11905,-0.11905 -0.3545,0.0753 -0.50508,0 -0.21296,-0.10648 -0.29212,-0.3986 -0.50508,-0.50508 -0.30117,-0.15058 -0.70898,0.15059 -1.01015,0 -0.21296,-0.10648 -0.29212,-0.39859 -0.50508,-0.50507 -0.15058,-0.0753 -0.33671,0 -0.50507,0 -0.16836,0 -0.33672,0 -0.50508,0 -0.84179,0 -1.68359,0 -2.52538,0 -3.03046,0 -6.06091,0 -9.09137,0 -2.8621,0 -5.7242,0 -8.5863,0 -0.84179,0 -1.68359,0 -2.52538,0 -0.16836,0 -0.33672,0 -0.50508,0 -0.16836,0 -0.35449,-0.0753 -0.50507,0 -0.21296,0.10648 -0.29212,0.39859 -0.50508,0.50507 -0.15058,0.0753 -0.33672,0 -0.50508,0 -0.75176,0 -0.64467,-0.0753 -1.51522,0.50508 -0.19811,0.13207 -0.33672,0.33672 -0.50508,0.50507 -0.50508,0.50508 -1.01015,1.01016 -1.51523,1.51523 -0.16836,0.16836 -0.30697,0.37301 -0.50508,0.50508 -0.31323,0.20882 -0.67343,0.33672 -1.01015,0.50508 -0.33672,0.16835 -0.65301,0.38602 -1.01015,0.50507 -0.31944,0.10648 -0.69071,-0.10648 -1.01015,0 -0.35715,0.11905 -0.67344,0.33672 -1.01016,0.50508 -0.33671,0.16836 -0.69691,0.29625 -1.01015,0.50507 -0.19811,0.13208 -0.30697,0.37301 -0.50507,0.50508 -0.31324,0.20882 -0.65301,0.38603 -1.01016,0.50508 -0.15972,0.0532 -0.38603,-0.11905 -0.50507,0 -0.11905,0.11904 0.11904,0.38603 0,0.50507 -0.11905,0.11905 -0.35449,-0.0753 -0.50508,0 -0.21296,0.10648 -0.33672,0.33672 -0.50508,0.50508 -0.16835,0.16836 -0.33671,0.33672 -0.50507,0.50508 -0.16836,0.16835 -0.50508,0.26698 -0.50508,0.50507 0,0.16836 0.34536,-0.0532 0.50508,0 0.35714,0.11905 0.65301,0.38603 1.01015,0.50508 0.31944,0.10648 0.67344,0 1.01015,0 1.01016,0 2.02031,0 3.03046,0 0.16836,0 0.38603,0.11905 0.50508,0 0.11904,-0.11905 -0.11905,-0.38603 0,-0.50508 0.11904,-0.11905 0.34535,0.0532 0.50507,0 3.65848,-1.21949 -0.7963,0.14562 1.51523,-1.01015 0.30117,-0.15058 0.69072,0.10648 1.01015,0 0.35715,-0.11905 0.64494,-0.41377 1.01016,-0.50508 0.32666,-0.0817 0.69071,0.10648 1.01015,0 0.22588,-0.0753 0.29212,-0.39859 0.50508,-0.50507 0.15058,-0.0753 0.35449,0.0753 0.50507,0 0.21296,-0.10648 0.29212,-0.3986 0.50508,-0.50508 0.30117,-0.15058 0.77206,0.2381 1.01015,0 0.11905,-0.11905 -0.11905,-0.38603 0,-0.50508 0.2381,-0.23809 0.77206,0.2381 1.01015,0 0.11905,-0.11904 -0.11904,-0.38602 0,-0.50507 0.11905,-0.11905 0.34536,0.0532 0.50508,0 0.35714,-0.11905 0.65301,-0.38603 1.01015,-0.50508 0.15972,-0.0532 0.33672,0 0.50508,0 0.50507,0 1.01015,0 1.51523,0 1.17851,0 2.35702,0 3.53553,0 0.67344,0 1.34687,0 2.02031,0 0.16836,0 0.38603,0.11905 0.50507,0 0.11905,-0.11905 -0.11904,-0.38603 0,-0.50507 0.11905,-0.11905 0.33672,0 0.50508,0 0.33672,0 0.67343,0 1.01015,0 0.33373,0 2.91042,0.08 3.03046,0 0.39621,-0.26415 0.61394,-0.74601 1.01015,-1.01016 0.0672,-0.0448 2.26296,0 2.52538,0 0.8418,0 1.68359,0 2.52538,0 0.33672,0 0.69072,-0.10648 1.01016,0 0.71428,0.2381 1.30602,0.77206 2.0203,1.01016 0.31944,0.10648 0.68349,-0.0817 1.01015,0 0.51651,0.12912 0.99873,0.37595 1.51523,0.50507 0.16334,0.0408 0.34175,-0.0408 0.50508,0 0.5165,0.12913 0.99317,0.40067 1.51523,0.50508 0.49527,0.0991 1.01015,0 1.51523,0 1.17851,0 2.35702,0 3.53553,0 0.33672,0 0.67344,0 1.01015,0 0.16836,0 0.3545,-0.0753 0.50508,0 1.24825,0.62412 -0.17434,0.50507 1.01015,0.50507 0.97772,0 2.76542,-0.26503 3.53554,0.50508 0.11904,0.11905 0,0.33672 0,0.50508 0,0.16836 0,0.67343 0,0.50507 0,-0.33671 0.23809,-1.24824 0,-1.01015 -0.37647,0.37646 -0.20976,1.07225 -0.50508,1.51523 -0.0934,0.14008 -0.33672,0 -0.50508,0 -0.67343,0 -1.34687,0 -2.0203,0 -0.33672,0 -0.67344,0 -1.01015,0 -0.16836,0 -0.50508,0.16836 -0.50508,0 0,-0.16836 0.33672,0 0.50508,0 1.85194,0 3.70389,0 5.55584,0 0.67343,0 1.34687,0 2.0203,0 0.16836,0 0.33672,0 0.50508,0 0.16836,0 0.50507,-0.16836 0.50507,0 0,0.16836 -0.67343,0 -0.50507,0 0.33671,0 0.70898,-0.15058 1.01015,0 0.15058,0.0753 0.16836,0.50508 0,0.50508 -0.16836,0 -0.11905,-0.62413 0,-0.50508 0.2662,0.2662 0.23888,0.74395 0.50508,1.01015 0.11904,0.11905 0.33671,0 0.50507,0 0.16836,0 0.33672,0 0.50508,0 1.85194,0 3.70389,0 5.55584,0 0.16836,0 0.33671,0 0.50507,0 0.16836,0 0.38603,0.11905 0.50508,0 0.11905,-0.11905 -0.11905,-0.38603 0,-0.50507 0.11905,-0.11905 0.38603,0.11904 0.50508,0 0.11904,-0.11905 -0.15059,-0.42979 0,-0.50508 0.30117,-0.15058 0.69071,0.10648 1.01015,0 0.0396,-0.0132 1.50202,-1.47559 1.51523,-1.51523 0.10648,-0.31944 -0.18678,-0.72999 0,-1.01015 0.20882,-0.31324 0.69691,-0.29625 1.01015,-0.50508 0.19811,-0.13207 0.33672,-0.33672 0.50508,-0.50507 0.16835,-0.16836 0.39859,-0.29212 0.50507,-0.50508 0.0753,-0.15059 -0.0753,-0.35449 0,-0.50508 0.10648,-0.21296 0.33672,-0.33671 0.50508,-0.50507 0.33672,-0.33672 0.61394,-0.74601 1.01015,-1.01016 0.14008,-0.0934 0.33672,0 0.50508,0 0.33671,0 0.70898,0.15059 1.01015,0 0.15058,-0.0753 -0.15058,-0.42978 0,-0.50507 0.30117,-0.15059 0.68349,0.0817 1.01015,0 0.36522,-0.0913 0.65301,-0.38603 1.01016,-0.50508 0.15971,-0.0532 0.34535,0.0532 0.50507,0 0.35714,-0.11905 0.65301,-0.38603 1.01015,-0.50507 0.31702,-0.10568 1.6137,0 2.02031,0 1.68359,0 3.36717,0 5.05076,0 0.8418,0 1.68359,0 2.52538,0 0.33189,0 1.23027,-0.095 1.51523,0 3.65848,1.21949 -0.79631,-0.14562 1.51523,1.01015 0.15059,0.0753 0.35449,-0.0753 0.50508,0 2.31153,1.15577 -2.14325,-0.20934 1.51523,1.01015 0.31943,0.10648 0.69071,-0.10648 1.01015,0 0.35714,0.11905 0.65301,0.38603 1.01015,0.50508 0.47916,0.15972 1.02523,-0.1225 1.51523,0 0.36522,0.0913 0.65301,0.38603 1.01015,0.50507 0.27335,0.0911 1.84824,0 2.02031,0 1.17851,0 2.35702,0 3.53553,0 1.01015,0 2.02031,0 3.03046,0 0.16836,0 0.33672,0 0.50508,0 0.16835,0 0.35449,0.0753 0.50507,0 0.21296,-0.10648 0.3986,-0.29211 0.50508,-0.50507 0.0753,-0.15059 -0.15059,-0.42979 0,-0.50508 0.15803,-0.079 2.71748,0 3.03046,0 0.45289,0 3.80041,-0.0801 4.04061,0 0.22587,0.0753 0.29211,0.3986 0.50507,0.50508 0.30117,0.15058 0.70899,-0.15059 1.01015,0 0.21296,0.10648 0.29212,0.39859 0.50508,0.50507 0.15059,0.0753 0.35449,-0.0753 0.50508,0 0.21296,0.10648 0.29211,0.3986 0.50507,0.50508 0.15059,0.0753 0.38603,-0.11905 0.50508,0 0.11905,0.11905 -0.15059,0.42978 0,0.50508 0.60234,0.30117 1.36698,-0.16334 2.0203,0 0.36523,0.0913 0.64494,0.41377 1.01016,0.50507 0.32666,0.0817 0.69071,-0.10648 1.01015,0 0.22588,0.0753 0.29212,0.3986 0.50508,0.50508 0.15058,0.0753 0.33671,0 0.50507,0 0.33672,0 0.69072,-0.10648 1.01015,0 0.22588,0.0753 0.29212,0.3986 0.50508,0.50507 0.15059,0.0753 0.33672,0 0.50508,0 0.21246,0 2.88021,-0.0751 3.03045,0 0.21296,0.10648 0.29212,0.3986 0.50508,0.50508 0.15371,0.0769 1.28776,0 1.51523,0 1.34687,0 2.69374,0 4.04061,0 0.28191,0 2.29418,-0.0771 2.52538,0 0.45176,0.15059 0.58424,0.79719 1.01015,1.01015 0.15059,0.0753 0.33672,0 0.50508,0 0.33672,0 0.67344,0 1.01015,0 0.16836,0 0.33672,0 0.50508,0 0.16836,0 0.35449,-0.0753 0.50508,0 0.21295,0.10648 0.29211,0.3986 0.50507,0.50508 0.15371,0.0769 1.28777,0 1.51523,0 1.34687,0 2.69374,0 4.04061,0 3.87225,0 7.7445,0 11.61675,0 1.68359,0 3.36718,0 5.05077,0 0.33672,0 0.67343,0 1.01015,0 0.33672,0 0.70898,0.15058 1.01015,0 0.15059,-0.0753 -0.11904,-0.38603 0,-0.50508 0.0784,-0.0784 1.31869,0.0655 1.51523,0 0.35714,-0.11904 0.64493,-0.41377 1.01015,-0.50507 0.32667,-0.0817 0.67344,0 1.01016,0 0.33671,0 0.67343,0 1.01015,0 1.01015,0 2.0203,0 3.03046,0 3.19881,0 6.39763,0 9.59645,0 2.86209,0 5.72419,0 8.58629,0 0.33672,0 0.67344,0 1.01016,0 0.16835,0 0.38602,0.11904 0.50507,0 0.2381,-0.2381 -0.15058,-0.70899 0,-1.01016 0.55838,-1.11675 0.31347,-0.15673 1.01015,-0.50507 2.10201,-1.051 -0.53994,0.0349 0.50508,-1.01015 0.2662,-0.2662 0.74395,-0.23888 1.01015,-0.50508 0.11905,-0.11905 -0.11904,-0.38603 0,-0.50508 0.2662,-0.2662 0.65301,-0.38603 1.01016,-0.50507 0.15971,-0.0532 0.38602,0.11904 0.50507,0 0.2662,-0.2662 0.38603,-0.65301 0.50508,-1.01016 0.0532,-0.15971 -0.11905,-0.38602 0,-0.50507 0.25254,-0.25254 1.26269,0.25254 1.51523,0 0.11904,-0.11905 -0.0753,-0.35449 0,-0.50508 0.10648,-0.21296 0.39859,-0.29212 0.50507,-0.50507 0.0753,-0.15059 -0.11904,-0.38603 0,-0.50508 0.11905,-0.11905 0.35449,0.0753 0.50508,0 0.21296,-0.10648 0.29212,-0.3986 0.50508,-0.50508 0.15058,-0.0753 0.38602,0.11905 0.50507,0 0.2381,-0.23809 -0.15058,-0.70898 0,-1.01015 1.05101,-2.10201 -0.0349,0.53995 1.01015,-0.50508 0.0162,-0.0162 0,-1.39273 0,-1.51522 0,-1.17852 0,-2.35703 0,-3.53554 0,-0.16836 0,-0.33672 0,-0.50507 0,-0.16836 0.0753,-0.3545 0,-0.50508 -0.10647,-0.21296 -0.39859,-0.29212 -0.50507,-0.50508 -0.0769,-0.15371 0,-1.28776 0,-1.51523 0,-0.52251 0.11905,-0.69809 -0.50508,-1.01015 -0.15058,-0.0753 -0.33672,0 -0.50507,0 -0.67344,0 -1.34687,0 -2.02031,0 z"
         transform="matrix(1.5969729,0,0,1.446286,-612.21601,-1286.0703)"
         id="path4038"
         style="fill:#7f602a;fill-opacity:1;stroke:none;filter:url(#filter4060)" />
      <path
         d="m 8.89238,-242.57924 c -7.57873,-13.91297 25.32238,-5.51431 21.72926,-22.87066 8.33607,-14.1072 29.29201,-36.13145 45.70565,-22.34959 5.09485,10.58447 -2.68828,25.88502 11.98209,30.35964 2.47672,9.7725 -6.07594,17.89363 3.48406,27.1876 6.69587,14.65002 -12.88963,33.86827 -27.80077,25.70052 -12.99214,-7.75644 -24.62668,-13.06735 -38.31609,-3.48789 -19.93395,7.13635 -13.05261,-24.27025 -16.7842,-34.53962 z"
         id="path4064"
         style="fill:url(#radialGradient6764);fill-opacity:1;stroke:#000000;stroke-width:1.59697294px;stroke-linecap:butt;stroke-linejoin:miter;stroke-opacity:1" />
      <path
         d="m -180.88451,-163.35012 c 4.78608,-6.20119 -0.77141,-11.66456 -8.03312,-10.78703 -6.2404,-0.2513 -15.63262,-3.01476 -21.56375,-3.68177 5.48119,-1.45582 12.1797,-3.837 17.33423,-6.22985 6.31167,-2.8838 12.99489,-4.97932 19.92283,-5.59565 9.28576,-1.70311 19.47577,-6.64822 22.13438,-16.50034 1.5523,-5.55333 7.57877,-15.87048 0.78668,-19.11984 -6.3975,-0.41568 -11.83622,3.9396 -17.13326,6.96659 -5.98768,3.90749 -13.04326,6.46002 -20.2754,5.64197 -11.197,0.0367 -22.39409,0.0112 -33.59107,-0.0193 2.53856,0.6286 -5.60651,1.50353 -6.707,2.70521 -8.22349,6.07317 -14.14995,14.92414 -18.70817,24.00015 -2.74702,6.48529 -4.23375,13.53927 -8.18213,19.49821 -4.0138,7.43184 -10.16297,14.79291 -9.2122,23.78243 2.45131,6.10383 9.99745,4.48862 15.18614,5.57453 8.18283,2.01717 10.71703,4.17761 18.07657,8.25381 11.61752,4.86536 41.52875,0.0395 49.71215,-8.7782 8.94079,-6.37469 10.04591,-1.62168 18.8902,-8.33665 6.00979,-3.48691 10.59976,-11.16621 7.76181,-18.07973 2.80576,-4.24863 4.83228,6.59015 2.40314,8.94449 -3.78675,9.87731 -15.01095,13.99778 -24.8376,14.40896 -2.20859,0.57719 -1.99694,1.55332 -4.83784,3.46956 -8.36108,7.49985 -28.65394,11.34308 -39.3291,8.89267 -7.07905,-2.63624 -17.38324,-5.19697 -24.83528,-6.9327 -5.48383,-1.70741 -11.26129,-2.0665 -16.85451,-3.11753 -6.99463,-3.98207 -2.9808,-13.42692 0.12424,-18.81554 4.68635,-8.45948 10.21608,-16.66062 12.38023,-26.23116 4.2243,-9.61516 10.29618,-18.65251 18.25838,-25.54834 8.0644,-5.75236 17.05473,-5.33547 26.28702,-5.64835 8.07703,-0.16238 17.47903,2.20689 25.4733,0.90231 10.26182,-2.77297 17.94297,-12.00159 28.99321,-12.44976 7.97464,-0.70267 7.27911,9.22215 4.64898,14.07425 -1.93792,7.6712 -5.60595,15.76048 -13.3116,19.11273 -10.1145,4.99528 -22.1003,4.08613 -32.01757,9.68761 -5.7525,2.18368 -11.6152,5.90188 -17.93726,5.25097 7.15595,-0.48786 13.1531,2.90417 20.32239,2.9522 7.04776,-0.79308 15.82962,4.37415 11.31864,10.75995 -0.73902,0.59911 -1.65011,1.22914 -2.64761,0.99321 z"
         id="path4088"
         style="fill:#000000;fill-opacity:1;stroke:none" />
      <path
         d="m -20.19534,-264.25244 c 17.51233,-12.71266 36.36212,-23.60907 54.13541,-35.65935 8.0809,-9.03207 31.05569,-10.13554 19.93236,6.57667 -8.06077,17.67595 24.61179,18.80119 15.70013,35.58643 -2.02996,25.56674 -31.29044,14.41271 -48.36439,15.29554 -25.9893,9.66832 -40.93631,-21.57271 -40.02254,-22.55043 0.54114,-2.39103 4.42775,-2.53144 6.03354,-4.382"
         id="path3020"
         style="fill:#ffffff;stroke:none" />
      <path
         d="m -18.91204,-266.24866 c 17.51233,-12.71265 34.50848,-21.61285 52.28176,-33.66313 8.08091,-9.03207 31.0557,-10.13554 19.93236,6.57667 -8.06076,17.67595 24.6118,18.80119 15.70013,35.58643 -2.02996,25.56674 -31.29043,14.41271 -48.36439,15.29554 -15.0101,2.53897 -24.96657,16.64056 -38.02633,-19.55612 -1.88283,-1.82068 -2.27382,-3.10177 -0.66803,-4.95232"
         id="path4074"
         style="fill:url(#radialGradient6766);fill-opacity:1;stroke:#000000;stroke-width:1.59697294px;stroke-linecap:butt;stroke-linejoin:miter;stroke-opacity:1" />
      <path
         d="m -62.3142,-306.66996 c 8.39078,5.71419 4.87396,19.57669 -3.63877,23.33923 -19.67906,12.34904 -38.64566,26.53123 -61.00617,33.7636 -26.08604,9.62127 -52.99443,17.32246 -80.43781,21.87658 -11.09649,1.32474 -22.86193,2.45372 -33.64838,-0.77413 -9.01995,-6.29019 -6.2786,-19.28686 -2.3537,-27.94393 23.58408,-39.33995 67.30156,-48.67896 86.3485,-52.19761 36.31599,-3.99292 61.70788,-8.20714 94.73633,1.93626 z"
         id="path4107"
         style="fill:url(#linearGradient6768);fill-opacity:1;stroke:none" />
    </g>
    <path
       d="m 542.84375,-2358.4062 c -15.8416,180.6828 -31.60161,361.3734 -47.375,542.0624 -151.43308,-105.0109 -302.87638,-210.0072 -454.34375,-314.9687 -13.255916,152.1236 -26.474125,304.2504 -39.71875,456.375 -57.825372,-90.1167 -115.61349,-180.2574 -173.4375,-270.375 -18.92467,129.2449 -36.61011,258.6703 -57.03125,387.7187 -53.10461,-47.466 -109.83442,-90.8411 -165.33796,-135.4921 -147.33299,-116.4837 -296.0965,-231.1882 -445.56829,-344.9141 -12.2526,-8.2694 -26.10884,-13.7147 -39.4375,-20.0625 8.49012,25.5334 21.2159,49.3564 36.8251,71.249 118.09767,185.3136 236.53566,370.41 354.7374,555.6573 -254.96824,-33.0768 -509.90184,-66.4219 -764.90625,-99.2188 -7.1869,0.9713 -16.5141,-2.4433 -21.6875,4.5938 -5.5716,6.8427 0.4138,15.9405 7.2813,19.0937 25.9817,17.1663 54.4918,30.0834 81.4397,45.7639 167.2284,91.36 334.45683,182.7199 501.68525,274.0798 -175.52905,30.3063 -351.08705,60.4479 -526.56255,91.0626 -6.9271,2.8446 -16.9808,2.5211 -19.9687,11.0312 -3.0763,8.3886 5.6405,14.8656 13.0937,15.875 29.9073,8.9944 61.407,13.1955 91.8975,20.5413 114.4508,24.1633 228.90169,48.3266 343.35255,72.48995 -136.10286,83.04379 -272.16735,166.15048 -408.31245,249.125 146.4886,5.27527 292.97883,10.50793 439.4687,15.75 -170.58741,120.68174 -341.153,241.39431 -511.75,362.0625 -3.8197,6.11867 -12.6529,10.4218 -10.9687,18.9375 1.1116,8.4024 11.1831,10.63783 18.125,8.34375 21.7046,-3.69397 41.5723,-14.20515 62.561,-20.51019 273.09524,-97.50633 546.18505,-195.02792 819.25145,-292.61481 36.59226,-65.43503 87.78429,-121.54092 142.62283,-171.78889 129.84326,-117.03158 292.771904,-194.25131 462.53487,-232.62771 101.81214,-23.1817 205.89393,-37.1953 310.37355,-40.6459 164.07315,-4.8554 331.3276,20.1986 479.3656,92.78617 86.6666,42.55893 166.6764,101.10459 226.8531,176.62008 7.0168,8.96548 13.212,18.4083 19,28.15625 357.5459,-172.59409 715.0265,-345.3232 1072.5626,-517.9375 5.6111,-5.06 15.4867,-7.1547 16.3437,-16.125 1.0898,-8.8774 -8.882,-13.3035 -16.4063,-12.2187 -32.4244,0.029 -64.648,4.8752 -97.0238,6.4146 -182.1635,13.3674 -364.4604,26.7075 -547.1323,30.2876 -29.7284,0.4834 -59.6942,0.1615 -89.1563,-3.296 12.5607,-49.733 20.2838,-100.6729 29.5889,-151.108 17.5598,-100.9911 33.6712,-202.2259 49.5985,-303.4858 -156.9302,84.158 -313.5292,169.0435 -475.5,243.1876 -19.4754,8.6852 -39.1187,16.8638 -59.4687,23.0624 10.1537,-85.177 24.4994,-169.7806 37.3423,-254.6166 13.0054,-82.5715 26.2709,-165.1022 39.7202,-247.6021 -117.3428,93.8657 -234.68765,187.729 -352.03125,281.5937 -110.28705,-224.2314 -220.56183,-448.4689 -330.875,-672.6874 -0.54167,6.1249 -1.08333,12.2499 -1.625,18.375 z"
       transform="matrix(0.25896813,0,0,0.25896813,141.50079,95.307646)"
       id="path6949"
       style="fill:#000000;stroke:none;filter:url(#filter6961)" />
    <path
       d="m 41.895363,-72.341982 c 0,0 42.7867,-81.562098 165.798367,-106.966688 196.72287,-40.62755 263.40551,66.85418 263.40551,66.85418 l 274.10212,-132.37128 c 0,0 -196.55129,16.045 -192.54003,6.68541 4.01123,-9.3596 20.05625,-112.31502 20.05625,-112.31502 0,0 -137.71961,74.87667 -137.71961,65.5171 0,-9.3596 18.71917,-124.3488 18.71917,-124.3488 l -86.91045,69.52836 -81.5621,-165.79837 -12.03376,137.71961 -117.66336,-81.56208 -10.69667,123.01167 -45.460837,-70.86541 c 0,0 -14.7079,102.95542 -14.7079,97.60711 0,-5.34834 -163.124203,-129.69712 -163.124203,-129.69712 l 101.6183,159.11294 -205.9109,-26.74167 159.113,86.91044 -147.0792,25.40459 120.3375,25.40459 -102.9554,62.842928 112.315,4.01126 -141.7309,100.2812677 z"
       id="path6947"
       style="fill:#ffff00;stroke:none" />
  </g>
</svg>
