<?xml version="1.0" encoding="UTF-8" standalone="no"?>
<!-- Created with Inkscape (http://www.inkscape.org/) -->

<svg
   xmlns:dc="http://purl.org/dc/elements/1.1/"
   xmlns:cc="http://creativecommons.org/ns#"
   xmlns:rdf="http://www.w3.org/1999/02/22-rdf-syntax-ns#"
   xmlns:svg="http://www.w3.org/2000/svg"
   xmlns="http://www.w3.org/2000/svg"
   xmlns:xlink="http://www.w3.org/1999/xlink"
   version="1.1"
   width="714.76874"
   height="464.46356"
   id="svg4910">
  <defs
     id="defs4912">
    <linearGradient
       x1="285.87317"
       y1="771.53973"
       x2="289.91379"
       y2="858.4129"
       id="linearGradient4839"
       xlink:href="#linearGradient4833"
       gradientUnits="userSpaceOnUse" />
    <linearGradient
       id="linearGradient4833">
      <stop
         id="stop4835"
         style="stop-color:#666666;stop-opacity:1"
         offset="0" />
      <stop
         id="stop4837"
         style="stop-color:#666666;stop-opacity:0"
         offset="1" />
    </linearGradient>
    <filter
       x="-0.049274124"
       y="-0.14023243"
       width="1.0985482"
       height="1.2804649"
       color-interpolation-filters="sRGB"
       id="filter4881">
      <feGaussianBlur
         id="feGaussianBlur4883"
         stdDeviation="4.731216" />
    </filter>
    <linearGradient
       x1="353.55341"
       y1="631.12854"
       x2="350.52292"
       y2="742.24536"
       id="linearGradient4803"
       xlink:href="#linearGradient4785"
       gradientUnits="userSpaceOnUse" />
    <linearGradient
       id="linearGradient4785">
      <stop
         id="stop4787"
         style="stop-color:#ff9a00;stop-opacity:1"
         offset="0" />
      <stop
         id="stop4789"
         style="stop-color:#ff9a00;stop-opacity:0"
         offset="1" />
    </linearGradient>
    <filter
       color-interpolation-filters="sRGB"
       id="filter4413">
      <feGaussianBlur
         id="feGaussianBlur4415"
         stdDeviation="0.93435183" />
    </filter>
    <filter
       color-interpolation-filters="sRGB"
       id="filter4426">
      <feGaussianBlur
         id="feGaussianBlur4428"
         stdDeviation="1.8930762" />
    </filter>
    <filter
       x="-0.16554493"
       y="-0.36612958"
       width="1.3310899"
       height="1.7322592"
       color-interpolation-filters="sRGB"
       id="filter3912">
      <feGaussianBlur
         id="feGaussianBlur3914"
         stdDeviation="4.5247168" />
    </filter>
    <radialGradient
       cx="253.21532"
       cy="768.88245"
       r="34.367722"
       fx="253.21532"
       fy="768.88245"
       id="radialGradient3058"
       xlink:href="#linearGradient3052"
       gradientUnits="userSpaceOnUse"
       gradientTransform="matrix(1.6055944,-0.73686587,0.2881924,0.62795707,-373.90788,467.29646)" />
    <linearGradient
       id="linearGradient3052">
      <stop
         id="stop3054"
         style="stop-color:#d4a96d;stop-opacity:1"
         offset="0" />
      <stop
         id="stop3056"
         style="stop-color:#d4a96d;stop-opacity:0"
         offset="1" />
    </linearGradient>
    <radialGradient
       cx="253.21532"
       cy="768.88245"
       r="34.367722"
       fx="253.21532"
       fy="768.88245"
       id="radialGradient4090"
       xlink:href="#linearGradient3052"
       gradientUnits="userSpaceOnUse"
       gradientTransform="matrix(1.6055944,-0.61786793,0.2881924,0.52654703,-372.44713,510.85853)" />
    <radialGradient
       cx="253.21532"
       cy="768.88245"
       r="34.367722"
       fx="253.21532"
       fy="768.88245"
       id="radialGradient3920"
       xlink:href="#linearGradient3052"
       gradientUnits="userSpaceOnUse"
       gradientTransform="matrix(0.90950195,-0.31559173,0.16324891,0.26894726,-108.07236,628.80704)" />
    <radialGradient
       cx="287.41559"
       cy="700.98926"
       r="105.3996"
       fx="287.41559"
       fy="700.98926"
       id="radialGradient4105"
       xlink:href="#linearGradient4099"
       gradientUnits="userSpaceOnUse"
       gradientTransform="matrix(0.99282007,-0.10843087,0.06156494,0.56370396,-41.365451,354.44789)" />
    <linearGradient
       id="linearGradient4099">
      <stop
         id="stop4101"
         style="stop-color:#d45500;stop-opacity:0.53539824"
         offset="0" />
      <stop
         id="stop4103"
         style="stop-color:#d45500;stop-opacity:0"
         offset="1" />
    </linearGradient>
    <filter
       x="-0.069654547"
       y="-0.10578699"
       width="1.139309"
       height="1.211574"
       color-interpolation-filters="sRGB"
       id="filter3960">
      <feGaussianBlur
         id="feGaussianBlur3962"
         stdDeviation="1.4308734" />
    </filter>
    <filter
       x="-0.25463516"
       y="-0.12535138"
       width="1.5092703"
       height="1.2507029"
       color-interpolation-filters="sRGB"
       id="filter4034">
      <feGaussianBlur
         id="feGaussianBlur4036"
         stdDeviation="3.117504" />
    </filter>
    <filter
       x="-0.03975039"
       y="-0.38156411"
       width="1.0795008"
       height="1.7631282"
       color-interpolation-filters="sRGB"
       id="filter4060">
      <feGaussianBlur
         id="feGaussianBlur4062"
         stdDeviation="3.3383519" />
    </filter>
    <radialGradient
       cx="413.77356"
       cy="738.36011"
       r="27.235174"
       fx="413.77356"
       fy="738.36011"
       id="radialGradient4072"
       xlink:href="#linearGradient4066"
       gradientUnits="userSpaceOnUse"
       gradientTransform="matrix(1.7571816,-0.49830628,0.2859033,1.0081832,-523.17485,202.00308)" />
    <linearGradient
       id="linearGradient4066">
      <stop
         id="stop4068"
         style="stop-color:#808080;stop-opacity:1"
         offset="0" />
      <stop
         id="stop4070"
         style="stop-color:#808080;stop-opacity:0"
         offset="1" />
    </linearGradient>
    <radialGradient
       cx="395.8537"
       cy="727.19678"
       r="29.092289"
       fx="395.8537"
       fy="727.19678"
       id="radialGradient4082"
       xlink:href="#linearGradient4076"
       gradientUnits="userSpaceOnUse"
       gradientTransform="matrix(1.2767249,-0.0736566,0.04166029,0.72211569,-139.62008,225.68489)" />
    <linearGradient
       id="linearGradient4076">
      <stop
         id="stop4078"
         style="stop-color:#666666;stop-opacity:1"
         offset="0" />
      <stop
         id="stop4080"
         style="stop-color:#666666;stop-opacity:0"
         offset="1" />
    </linearGradient>
    <linearGradient
       x1="275.77164"
       y1="673.55499"
       x2="296.47977"
       y2="723.55756"
       id="linearGradient4131"
       xlink:href="#linearGradient4125"
       gradientUnits="userSpaceOnUse"
       gradientTransform="translate(-1.5152288,0.75761441)" />
    <linearGradient
       id="linearGradient4125">
      <stop
         id="stop4127"
         style="stop-color:#ffffff;stop-opacity:1"
         offset="0" />
      <stop
         id="stop4129"
         style="stop-color:#ffffff;stop-opacity:0"
         offset="1" />
    </linearGradient>
    <linearGradient
       x1="275.77164"
       y1="673.55499"
       x2="296.47977"
       y2="723.55756"
       id="linearGradient5012"
       xlink:href="#linearGradient4125"
       gradientUnits="userSpaceOnUse"
       gradientTransform="translate(-1.5152288,0.75761441)" />
  </defs>
  <metadata
     id="metadata4915">
    <rdf:RDF>
      <cc:Work
         rdf:about="">
        <dc:format>image/svg+xml</dc:format>
        <dc:type
           rdf:resource="http://purl.org/dc/dcmitype/StillImage" />
        <dc:title></dc:title>
      </cc:Work>
    </rdf:RDF>
  </metadata>
  <g
     transform="translate(71.47657,-10.594211)"
     id="layer1">
    <g
       transform="matrix(1.5969729,0,0,1.5969729,-174.64154,-877.66872)"
       id="g4885">
      <path
         d="m 403.05087,786.69206 c -0.28886,4.76191 3.86028,-1.19047 5.05076,0 0.23809,0.2381 -0.2381,0.77206 0,1.01016 0.47619,0.47619 1.41796,-0.30117 2.0203,0 0.42592,0.21295 0.5584,0.85956 1.01016,1.01015 0.63887,0.21296 1.38142,-0.21296 2.0203,0 0.45176,0.15058 0.67344,0.67343 1.01015,1.01015 0.33672,0.33672 0.85957,0.5584 1.01016,1.01015 0.21295,0.63888 -0.21296,1.38143 0,2.02031 0.15058,0.45175 0.79719,0.58423 1.01015,1.01015 0.15371,0.30742 0,2.57553 0,3.03046 0,0.24499 0.0325,2.99797 0,3.03046 -0.2381,0.23809 -0.70898,-0.15059 -1.01015,0 -0.42592,0.21296 -0.58424,0.79719 -1.01016,1.01015 -0.30117,0.15058 -0.69071,-0.10648 -1.01015,0 -0.71428,0.23809 -1.30602,0.77206 -2.0203,1.01015 -0.58516,0.19505 -3.16523,0 -4.04061,0 -2.69374,0 -5.38748,0 -8.08122,0 -0.67344,0 -1.34687,0 -2.02031,0 -0.33672,0 -0.70898,-0.15058 -1.01015,0 -0.42592,0.21296 -0.58424,0.7972 -1.01015,1.01015 -0.548,0.274 -3.76421,-0.2764 -4.04061,0 -0.2381,0.2381 0.23809,0.77206 0,1.01016 -0.2381,0.23809 -0.70899,-0.15059 -1.01016,0 -0.42592,0.21296 -0.58423,0.79719 -1.01015,1.01015 -0.30117,0.15058 -0.70898,-0.15059 -1.01015,0 -0.42592,0.21296 -0.58424,0.79719 -1.01016,1.01015 -0.30116,0.15059 -0.70898,-0.15058 -1.01015,0 -0.42592,0.21296 -0.67343,0.67344 -1.01015,1.01015 -0.33672,0.33672 -0.79719,0.58424 -1.01015,1.01016 -0.0264,0.0528 -0.0264,2.97761 0,3.03045 1.0215,2.04302 2.34423,0.32393 3.03045,1.01016 0.2381,0.23809 0,0.67343 0,1.01015 0.33672,0.33672 0.61394,0.74601 1.01016,1.01015 1.25294,0.8353 2.78767,1.18501 4.04061,2.02031 0.39621,0.26414 0.67343,0.67343 1.01015,1.01015 0.67344,0.67343 1.59439,1.16847 2.02031,2.0203 0.11876,0.23754 0,3.37702 0,4.04061 0,0.82681 0.14778,5.76535 0,6.06092 -0.15059,0.30117 -0.77206,-0.2381 -1.01016,0 -0.23809,0.2381 0.15059,0.70898 0,1.01015 -0.21296,0.42592 -0.74601,0.61394 -1.01015,1.01016 -0.41765,0.62647 -0.47776,1.4879 -1.01015,2.0203 -0.2381,0.2381 -0.77206,-0.23809 -1.01015,0 -2.45347,2.45346 0.30038,1.48333 -2.02031,3.03046 -0.62647,0.41764 -1.34687,0.67343 -2.02031,1.01015 -0.67343,0.33672 -1.30601,0.77206 -2.0203,1.01015 -0.31944,0.10648 -0.69071,-0.10648 -1.01015,0 -0.71429,0.2381 -1.30602,0.77206 -2.02031,1.01016 -0.90914,0.30304 -2.12132,-0.30305 -3.03046,0 -0.71428,0.23809 -1.30601,0.77205 -2.0203,1.01015 -0.63888,0.21296 -1.41797,-0.30117 -2.02031,0 -0.42591,0.21296 -0.55839,0.85957 -1.01015,1.01015 -1.27775,0.42592 -2.71989,-0.26414 -4.04061,0 -1.04412,0.20882 -1.98634,0.80133 -3.03046,1.01015 -0.66035,0.13207 -1.34687,0 -2.0203,0 -2.00864,0 -4.05227,0 -6.06092,0 -0.84589,0 -4.28257,-0.19204 -5.05076,0 -0.73044,0.18261 -1.30602,0.77206 -2.0203,1.01016 -0.6545,0.21816 -4.22375,0 -5.05077,0 -4.04061,0 -8.08122,0 -12.12183,0 -3.70389,0 -7.40778,0 -11.11168,0 -1.34687,0 -2.73395,-0.32667 -4.04061,0 -0.46197,0.11549 -0.58423,0.79719 -1.01015,1.01015 -0.30117,0.15058 -0.69071,-0.10648 -1.01015,0 -0.71429,0.23809 -1.30602,0.77206 -2.02031,1.01015 -0.31943,0.10648 -0.67343,0 -1.01015,0 -0.67343,0 -1.35603,-0.11071 -2.0203,0 -1.36944,0.22824 -2.75159,0.49454 -4.04061,1.01015 -5.13421,2.05368 5.09466,-0.011 -3.03046,2.02031 -1.30666,0.32666 -2.83593,-0.60234 -4.04061,0 -2.69374,1.34687 3.03046,1.01015 -1.01015,1.01015 -1.01016,0 -2.02031,0 -3.03046,0 -0.67344,0 -1.41797,-0.30117 -2.02031,0 -0.85183,0.42592 -1.16847,1.59439 -2.0203,2.02031 -0.60234,0.30117 -1.34687,0 -2.02031,0 -2.0203,0 -4.04061,0 -6.06091,0 -1.01015,0 -2.07214,-0.31944 -3.03046,0 -0.45175,0.15058 -0.67343,0.67343 -1.01015,1.01015 -0.67344,0.33672 -1.28986,0.82754 -2.02031,1.01015 -0.82146,0.20537 -5.00345,0 -6.06091,0 -0.33672,0 -0.68349,-0.0817 -1.01016,0 -1.033,0.25825 -1.99745,0.7519 -3.03045,1.01015 -0.2059,0.0515 -4.70074,0.11668 -5.05077,0 -0.71428,-0.23809 -1.30602,-0.77205 -2.0203,-1.01015 -0.60833,-0.20277 -1.41198,0.20278 -2.02031,0 -0.71428,-0.23809 -1.30602,-0.77206 -2.0203,-1.01015 -0.31944,-0.10648 -0.70898,0.15058 -1.01015,0 -0.42592,-0.21296 -0.54818,-0.89466 -1.01016,-1.01015 -0.97999,-0.245 -2.05046,0.24499 -3.03045,0 -0.46198,-0.1155 -0.58424,-0.7972 -1.01016,-1.01016 -0.30117,-0.15058 -0.69071,0.10648 -1.01015,0 -0.71428,-0.23809 -1.28986,-0.82754 -2.0203,-1.01015 -4.59851,0 -0.0578,0.47619 -3.03046,-1.01015 -0.60234,-0.30117 -1.41797,0.30117 -2.02031,0 -0.42591,-0.21296 -0.61393,-0.74601 -1.01015,-1.01015 -0.62647,-0.41765 -1.39383,-0.59251 -2.0203,-1.01016 -0.39622,-0.26414 -0.58424,-0.79719 -1.01016,-1.01015 -0.30117,-0.15058 -0.67343,0 -1.01015,0 -1.34687,0 -2.71989,0.26414 -4.04061,0 -0.93389,-0.18678 -1.1168,-1.71913 -2.0203,-2.0203 -1.27776,-0.42592 -2.83594,0.60233 -4.04061,0 -0.0808,-0.0404 -0.0808,-2.86884 0,-3.03046 0.21295,-0.42592 0.746,-0.61394 1.01015,-1.01015 0.41764,-0.62647 0.47775,-1.48791 1.01015,-2.02031 0.2381,-0.23809 0.77206,0.2381 1.01015,0 0.47619,-0.47619 -0.47619,-1.54411 0,-2.0203 0.5324,-0.5324 1.48791,-0.47776 2.02031,-1.01016 0.23809,-0.23809 0,-0.67343 0,-1.01015 0,-1.55468 0.43078,-1.94976 -1.01015,-3.03046 -0.97125,-0.72843 -1.94458,-1.47736 -3.03046,-2.0203 -0.30117,-0.15059 -0.67344,0 -1.01015,0 -0.67344,0 -1.34687,0 -2.02031,0 -1.68359,0 -3.36717,0 -5.05076,0 -1.34687,0 -2.69374,0 -4.04061,0 -0.67344,0 -1.41797,0.30117 -2.02031,0 -0.85183,-0.42592 -1.13604,-1.6666 -2.0203,-2.02031 -4.20897,-1.68359 -1.68359,1.12239 -5.05077,0 -0.45175,-0.15058 -0.58423,-0.79719 -1.01015,-1.01015 -0.30117,-0.15058 -0.67343,0 -1.01015,0 -0.67344,0 -1.34687,0 -2.02031,0 -2.0203,0 -4.04061,0 -6.06091,0 -0.33672,0 -0.67344,0 -1.01015,0 -0.33672,0 -0.70899,0.15058 -1.01016,0 -0.42591,-0.21296 -0.58423,-0.79719 -1.01015,-1.01015 -0.30117,-0.15059 -0.67343,0 -1.01015,0 -0.67344,-1.01016 -1.16184,-2.172 -2.02031,-3.03046 -0.23809,-0.2381 -0.67343,0 -1.01015,0 -0.67343,0 -1.41797,0.30117 -2.0203,0 -0.30117,-0.15058 0.15058,-0.70898 0,-1.01015 -2.10201,-4.20402 0.0697,1.07989 -2.02031,-1.01016 -0.23809,-0.23809 0.15059,-0.70898 0,-1.01015 -0.21296,-0.42592 -0.79719,-0.58423 -1.01015,-1.01015 -0.13668,-0.27335 0,-5.62579 0,-6.06092 0,-1.50352 -0.15059,-1.28935 1.01015,-3.03045 0.26414,-0.39622 0.79719,-0.58424 1.01015,-1.01016 0.15059,-0.30117 -0.23809,-0.77205 0,-1.01015 0.2381,-0.23809 0.77206,0.2381 1.01016,0 0.23809,-0.23809 -0.2381,-0.77206 0,-1.01015 0.23809,-0.2381 0.67343,0 1.01015,0 1.23307,0 2.32939,0.39198 3.03046,-1.01015 0.15058,-0.30117 0,-0.67344 0,-1.01016 0,-0.87538 0.19505,-3.45545 0,-4.04061 0.60884,-1.82831 -1.63639,-1.8787 -2.02031,-3.03045 -0.42592,-1.27776 0.60234,-2.83594 0,-4.04061 -0.42592,-0.85184 -1.49202,-1.22788 -2.0203,-2.02031 -0.18678,-0.28017 0,-0.67343 0,-1.01015 0,-0.33672 -0.2381,-0.77206 0,-1.01015 0.23809,-0.2381 0.67343,0 1.01015,0 0.52823,0 3.775,-0.13281 4.04061,0 0.42592,0.21295 0.5584,0.85956 1.01015,1.01015 0.55688,0.18562 5.20365,0 6.06092,0 4.71404,0 9.42809,0 14.14213,0 0.39498,0 6.63539,-0.14523 7.07107,0 0.90351,0.30117 1.16847,1.59439 2.02031,2.0203 0.30116,0.15059 0.67343,0 1.01015,0 1.01015,0 2.0203,0 3.03046,0 0.67343,0 1.41796,0.30117 2.0203,0 0.85184,-0.42591 1.22788,-1.49202 2.02031,-2.0203 0.24097,-0.16065 7.54695,0.089 8.08122,0 8.86729,-1.47788 -1.54412,-0.37159 5.05076,-2.02031 0.65333,-0.16333 1.36698,0.16334 2.0203,0 0.73045,-0.18261 1.32124,-0.73052 2.02031,-1.01015 0.98864,-0.39545 2.07808,-0.53396 3.03046,-1.01015 0.42591,-0.21296 0.61393,-0.74601 1.01015,-1.01015 0.62647,-0.41765 1.34687,-0.67344 2.0203,-1.01016 0.67344,-0.33671 1.30602,-0.77205 2.02031,-1.01015 0.63888,-0.21296 1.54411,0.47619 2.0203,0 0.2381,-0.23809 0,-0.67343 0,-1.01015 0.67344,-0.33672 1.30602,-0.77206 2.02031,-1.01015 0.31944,-0.10648 0.77206,0.23809 1.01015,0 0.5324,-0.5324 0.47776,-1.48791 1.01015,-2.02031 0.31434,-0.31433 4.33263,0.28725 5.05077,0 1.39814,-0.55926 2.61204,-1.54411 4.04061,-2.0203 0.63887,-0.21296 1.36697,0.16333 2.0203,0 0.73045,-0.18262 1.28986,-0.82755 2.02031,-1.01016 0.65333,-0.16333 1.38143,0.21296 2.0203,0 0.45176,-0.15058 0.5584,-0.85957 1.01016,-1.01015 0.63887,-0.21296 1.34687,0 2.0203,0 1.34687,0 2.69374,0 4.04061,0 5.05076,0 10.10153,0 15.15229,0 4.04061,0 8.08122,0 12.12183,0 1.47065,0 4.82721,-0.20562 6.06091,0 1.05031,0.17505 1.99746,0.7519 3.03046,1.01015 0.83877,0.2097 6.98576,0 7.07107,0 5.05076,0 10.10153,0 15.15229,0 0.26384,0 5.55306,-0.16928 6.06091,0 0.71429,0.2381 1.28987,0.82754 2.02031,1.01016 0.65333,0.16333 1.35603,-0.11072 2.0203,0 1.36944,0.22823 2.67925,0.73788 4.04061,1.01015 0.99054,0.1981 2.02031,0 3.03046,0 1.34687,0 2.69374,0 4.04061,0 0.67344,0 1.41797,-0.30117 2.02031,0 0.30117,0.15058 -0.2381,0.77206 0,1.01015 0.47619,0.47619 1.38143,-0.21296 2.0203,0 0.71429,0.2381 1.30602,0.77206 2.02031,1.01015 0.31943,0.10648 0.77205,-0.23809 1.01015,0 0.23809,0.2381 -0.15059,0.70899 0,1.01016 0.26975,0.5395 2.49865,2.49864 3.03046,3.03045 0.45493,0.45493 2.56932,2.87675 3.03045,3.03046 0.63888,0.21296 1.34687,0 2.02031,0 0.33672,0 0.70898,-0.15058 1.01015,0 0.85184,0.42592 1.16847,1.59439 2.02031,2.02031 0.26117,0.13058 5.34491,0 6.06091,0 3.25163,0 -1.72444,-0.2381 2.02031,1.01015 0.63887,0.21296 1.34687,0 2.0203,0 5.0249,0 3.21926,0.32854 9.09138,-2.02031 z"
         transform="matrix(0.96681128,0,0,0.90782032,9.0334182,61.072637)"
         id="path4831"
         style="fill:url(#linearGradient4839);fill-opacity:1;stroke:none;filter:url(#filter4881)" />
      <path
         d="m 174.86769,792.00248 c -26.8355,4.82376 -54.54536,-3.10902 -78.991922,-15.54958 -15.249659,-7.60142 -34.765094,-21.25685 -30.740564,-43.58184 -3.294118,-22.46812 26.004415,-31.8064 38.001796,-17.87108 7.08414,21.68498 -23.730324,17.29155 -10.499085,0.19032 -22.461902,-3.18033 -17.955826,30.59423 -3.21784,38.82764 12.699015,10.27933 29.159105,3.69557 43.248275,1.52132 20.04019,-5.05447 37.57005,-22.29314 42.04948,-45.76979 8.24818,-28.00302 11.03688,-62.00568 -4.29463,-87.4406 -9.25919,-14.46935 -33.21757,-13.21913 -36.4826,6.3092 -8.66468,18.0151 14.58745,37.28841 24.23188,24.03364 -14.85775,2.0315 -24.7268,-26.37361 -4.06935,-22.62123 21.49111,4.6194 9.97487,42.76116 -9.5822,35.01822 -15.53724,-1.85913 -27.35312,-18.23232 -25.52494,-36.13983 -1.15511,-25.06256 22.96413,-37.10313 41.52505,-37.29149 25.6625,-2.55742 51.73119,13.36121 65.59725,37.88279 12.08303,15.96364 -7.81627,35.23581 3.37227,50.25496 15.15322,12.85172 36.88718,6.65259 51.68755,-3.8721 19.36501,-8.01118 38.61416,-21.26273 48.27004,-42.94732 9.79251,-12.88378 20.7702,-29.10941 18.26618,-47.22042 -8.66059,-16.54192 -29.9744,-12.87095 -44.71915,-15.09251 -16.52982,-0.67345 -37.84773,9.45512 -37.25403,31.73232 7.9007,19.98827 34.07306,16.44572 45.627,2.7894 11.6736,-11.99435 -1.05044,-30.88565 -9.67239,-11.04551 -3.01946,17.77751 -33.95119,19.43421 -21.19241,-2.3676 12.01789,-14.39218 34.38601,-18.66562 49.14051,-7.52604 10.01459,15.9931 -8.05342,33.93129 -21.82255,36.34118 -15.02273,3.04496 -32.67388,9.12993 -46.34729,-1.72584 -16.00382,-10.57855 -16.33911,-39.40783 1.18536,-48.33664 20.71043,-15.56362 48.17347,-18.0522 71.32657,-9.2161 18.20135,11.26321 43.68297,17.04211 50.99334,42.35457 8.2736,29.80008 -23.03593,53.82879 -12.94387,83.37614 11.2556,22.13486 36.41394,22.10128 56.05735,24.65807 23.32761,3.98891 52.70432,-18.45068 48.12889,-47.94877 3.5977,-19.68533 -11.56288,-36.88764 -28.49702,-37.10711 -14.13121,-0.74982 -33.42074,5.64138 -34.33389,25.06945 -3.97927,25.22972 30.38572,28.09196 35.7107,7.286 4.1053,-23.1484 -28.11494,23.76422 -26.68021,-7.31629 6.30877,-19.26668 38.5911,-20.11366 44.36145,0.8886 5.39815,21.75506 -16.9871,29.91036 -30.92707,34.35006 -17.84509,4.17477 -37.58464,-10.66105 -38.07376,-32.43702 -2.14228,-26.75834 23.15162,-44.30391 44.0021,-43.97374 31.03439,-2.46712 58.61797,26.05843 65.41581,59.70736 9.98935,33.45569 -17.91283,66.84845 -46.09873,69.8012 -15.7579,3.65918 -34.09173,4.76149 -46.15924,18.30222 -5.75678,21.98961 20.855,25.50849 34.41547,22.50397 15.76991,-2.53801 31.44586,-7.01837 46.63414,-12.12598 25.51471,-20.4412 -36.87466,-21.45759 -16.25077,-3.05747 2.42678,6.18377 -28.79289,13.68453 -21.98085,-6.73211 10.3891,-17.09044 35.23233,-27.08601 50.01489,-11.73916 13.51096,17.72863 -6.95613,37.18533 -22.56315,38.72023 -32.82194,7.04106 -66.4252,-0.34029 -99.55773,2.80728 -34.47662,3.36657 -69.20312,1.41954 -103.80175,1.8699 -22.72595,0.46927 -45.2312,-6.10582 -67.95076,-1.66067 -12.97626,1.47887 -25.96455,3.45225 -39.0336,3.1178 z"
         id="path4775"
         style="opacity:0.51769912;fill:#ffff00;stroke:none" />
      <path
         d="m 304.46875,559.25 c -18.32055,0.77958 -37.71007,7.76448 -49.03125,22.59375 -8.77859,15.69118 2.54068,39.33838 21.375,39.84375 13.02982,1.11749 25.89715,-2.80598 38.03125,-6.90625 9.31706,-4.82536 18.08522,-16.42818 13.03125,-27.25 -9.27662,-9.70254 -25.86856,-7.5445 -36.65625,-1.21875 -5.30311,3.34586 -11.81192,9.4461 -10.34375,16.25 4.47105,5.20873 13.197,0.66843 15.96875,-4.40625 2.83359,-5.8503 4.53185,-14.35379 12.21875,-15.46875 8.32585,-1.25477 11.73026,9.85457 9.28125,16.25 -6.38244,19.02424 -34.54542,27.42718 -49.6875,13.5 -9.43235,-8.37813 -6.22356,-23.32349 1.625,-31.5625 11.18946,-13.57306 30.62832,-14.59791 46.90625,-12.25 12.65647,0.35104 28.0867,3.76892 33.5,16.53125 3.09323,20.1389 -10.17238,37.22736 -20.375,53.09375 -10.44239,20.67195 -31.35388,33.34878 -51.71875,43.03125 -14.85417,9.49713 -36.98764,13.21271 -51.09375,0.625 -8.75246,-10.37436 -2.43757,-25.00286 -0.46875,-36.5625 1.27126,-13.24091 -9.69913,-23.30659 -17.46875,-32.375 -19.03771,-18.67675 -51.38643,-25.6068 -74.46265,-10.34614 -16.87559,11.40655 -17.878,38.51599 -3.97485,52.59614 5.44535,5.17226 13.55025,8.86708 21.1875,7.34375 3.56417,-1.19515 6.57157,-4.05306 8.1875,-7.46875 -6.27826,7.1988 -18.23087,5.9297 -24.09375,-1.03125 -8.34327,-7.83281 -8.99493,-20.95029 -4.28125,-30.9375 5.49517,-15.06678 28.09949,-18.33487 37.9375,-5.84375 10.69097,12.21568 13.18644,29.48014 14.19569,45.21797 0.60087,23.39444 -4.24361,47.15811 -14.16444,68.21953 -10.42246,18.0282 -30.39594,28.68547 -50.90625,30.71875 -14.24278,3.41263 -31.762101,0.16478 -39.65625,-13.15625 -6.583426,-9.66755 -8.53877,-25.42178 1.1875,-33.71875 2.925,-2.7101 10.180526,-2.61154 11.625,-2.65625 -11.92847,-3.13716 -25.841916,6.49478 -24.53125,19.375 -0.948623,9.21637 0.614377,18.84416 6.90625,25.90625 12.480771,14.23125 31.10599,21.16079 48.5,27.375 17.8592,5.85922 37.07739,7.08505 55.65625,4.4375 25.78555,-0.61865 51.63213,-7.98929 77.375,-2.84375 33.03932,2.43982 66.22182,1.35365 99.30999,1.2523 28.37958,-1.52234 56.81575,-3.76815 85.22126,-1.53355 18.90203,0.0979 39.31763,0.93198 56.46875,-7.6875 9.0297,-5.47168 16.08357,-18.63119 8.75,-28.125 -8.4654,-10.71946 -25.63647,-8.93162 -35.20385,-0.62803 -5.44649,3.73241 -13.1353,10.32104 -9.8899,17.62803 4.16538,4.05523 11.64257,2.11062 15.5,-0.78125 -6.56413,-3.56694 -4.08958,-14.3618 3,-15.53125 8.80883,-2.38023 21.98044,-2.38604 25.625,7.71875 0.71856,10.20537 -10.55965,15.05732 -18.98209,16.46764 -19.38691,5.43328 -40.28393,13.26579 -60.42416,7.65736 -10.30636,-3.08929 -18.52308,-15.41896 -12.90625,-25.6875 7.55182,-10.89866 21.95347,-14.4253 34.3125,-17.0625 16.02476,-2.64651 33.54452,-6.18475 44.40625,-19.28125 13.71627,-14.55249 18.79591,-37.10257 11.28125,-56.0625 -7.27637,-25.8804 -28.59952,-49.94635 -56.75,-51.3125 -21.46806,-1.18144 -44.67347,14.30447 -45.40625,37.125 -1.55181,17.8205 13.95494,37.36223 32.8125,33.75 10.22572,-1.86937 20.30862,-6.66998 27.5625,-14.21875 7.57082,-9.73001 2.67666,-26.75683 -10.125,-29.09375 -10.43127,-2.99393 -25.06419,2.65834 -25.5625,14.8125 -0.2338,2.50684 2.0177,5.55036 4.5,3.40625 6.65162,-2.65303 12.14393,-11.16045 20.15625,-8.9375 5.95826,5.79624 0.86045,15.23127 -3.84375,20.15625 -10.74118,10.29843 -33.34756,5.88638 -35.59375,-10.21875 -3.32276,-16.01198 8.13,-32.92786 24.375,-35.3125 16.7536,-4.59836 36.63551,3.33949 42.5,20.34375 3.6152,10.44824 2.57238,22.06638 1.625,32.9375 -4.98288,24.87393 -32.40167,42.39711 -57.12104,36.06732 -18.77225,-1.50329 -41.1742,-5.42908 -51.16021,-23.25482 -8.66879,-16.89859 -0.34472,-36.17312 6.78125,-52.03125 6.71935,-15.04634 9.44975,-34.91667 -2.6875,-48.03125 -12.02105,-13.7343 -30.28429,-19.78339 -46.125,-28.03125 -7.79252,-2.41242 -15.97997,-3.63624 -24.1875,-3.40625 z M 149.875,632.59375 c -4.91668,0.33066 -5.66279,6.359 -3.25,9.8125 2.45134,5.89908 10.66934,9.72954 16.03125,5.84375 1.23947,-7.83385 -4.20064,-16.52214 -12.78125,-15.65625 z m -52.78125,81.8125 c -3.138133,2.51154 -7.633908,10.12471 -1.75,12.15625 6.17182,1.085 8.30403,-8.8387 3.0625,-11.5625 -0.363517,-0.13212 -0.947269,-1.25383 -1.3125,-0.59375 z"
         id="path4783"
         style="opacity:0.88053098;fill:url(#linearGradient4803);fill-opacity:1;stroke:none" />
      <g
         transform="translate(372.74629,-140.41121)"
         id="g4328"
         style="fill:#000000;filter:url(#filter4413)">
        <path
           d="m -75.764745,819.35714 c -28.806865,1.46793 -54.255875,18.30268 -73.900775,38.35697 -13.067,14.666 -21.98785,33.45072 -23.42666,53.31339 -3.54361,7.33426 -14.74227,11.9087 -12.59532,21.34404 4.72363,8.86978 17.08623,11.17589 25.65236,6.6572 6.33579,-3.12004 13.81362,-4.26273 20.11784,-0.54999 6.89953,4.06971 14.8278,4.93198 22.61196,3.43041 9.69503,-0.344 20.029621,-2.5505 26.717116,-10.005 3.613293,-1.38696 5.643009,3.82587 9.407803,3.61446 8.669722,1.85136 18.717433,-5.23393 26.180927,1.33985 5.921236,4.05575 13.422822,0.17185 20.053141,1.24094 16.337756,-0.0936 32.8522142,-0.7743 48.988994,1.31411 10.68464,0.0951 21.064284,-12.14724 15.287681,-22.40346 -3.208335,-4.2768 -9.463207,-4.16406 -12.595316,-8.6311 -4.674913,-3.77563 -4.26016,-10.64551 0.340414,-14.30207 2.85323,-3.40507 7.848991,-0.41924 11.171767,-3.33403 6.694705,-5.05163 14.550132,-0.11923 20.610516,3.17824 11.393237,6.14749 25.907993,-9.64895 18.568033,-20.37812 -4.898095,-4.432 3.231207,-13.33254 -3.373192,-16.82596 -7.398065,-4.04363 -0.06948,-16.48231 -8.355615,-20.09768 -2.985122,-1.51229 -6.520699,-1.32584 -9.748217,-0.81014 2.403908,-3.79746 0.228329,-9.62308 -4.703902,-9.3166 -10.41402,-0.51967 -17.007775,9.47493 -25.981763,13.28527 -5.4460481,3.3453 -10.8635781,6.73876 -16.10577862,10.42688 C -9.133595,838.53654 -18.397117,825.80252 -33.151109,822.69118 c -13.78656,-3.82333 -28.415576,-3.20023 -42.613636,-3.33404 z m 25.531046,13.24266 c 7.047487,0.63925 16.627558,-1.17402 20.85809,5.98257 -7.239802,6.64976 -16.60372,10.77047 -24.602644,16.42089 -11.410754,7.16693 -25.3611,4.44669 -38.157101,5.40136 -10.059706,-0.41772 -21.377786,-1.12095 -29.368646,-7.83177 -3.3526,-4.24381 0.47761,-9.94132 5.36755,-10.42369 17.984143,-6.5384 37.444379,-7.45325 56.368274,-9.3454 3.175518,-0.15643 6.355193,-0.22173 9.534477,-0.20396 z"
           transform="matrix(1,0,0,0.97761286,0,18.343065)"
           id="path4312"
           style="fill:#000000;fill-opacity:1;stroke:none;filter:url(#filter4426)" />
      </g>
      <path
         d="m 376.25,725.13004 c -0.10215,-13.68984 -10.88948,-21.84465 -18.47887,-32.17768 -12.02005,-12.358 -30.3032,-12.32569 -46.31489,-13.45322 -9.23002,0.0213 -19.26006,-0.59392 -28.80326,2.19204 -8.97206,2.09498 -28.0391,8.84413 -39.34953,19.37759 -10.77343,7.25017 -20.80953,15.88407 -27.52012,27.15065 -8.46375,11.95506 -14.02403,26.13058 -14.66359,40.84677 -2.53073,8.69222 -23.21412,18.13971 -8.05915,25.95128 12.70124,9.23805 24.39429,-6.95708 36.68765,-1.69495 9.24682,5.74996 20.50921,7.1676 30.76786,3.83261 8.27105,-3.24698 15.99252,-10.67576 25.52339,-8.44253 9.04138,9.88975 23.76089,-4.31379 33.05887,5.25755 20.20917,1.36287 40.4872,-0.0971 60.7237,0.62451 13.00863,3.93726 24.87345,-11.16509 14.70263,-21.70297 -6.44062,-4.334 -21.33369,-3.50763 -16.10335,-15.95621 4.91057,-10.61964 1.61621,-22.07611 -2.03996,-32.46147 -0.56536,-2.20889 -0.96504,-4.47086 -1.02424,-6.75469"
         id="path3012"
         style="fill:#be8d48;fill-opacity:1;stroke:#000000;stroke-width:1px;stroke-linecap:butt;stroke-linejoin:miter;stroke-opacity:1" />
      <path
         d="m 393.91806,727.0917 c -12.0762,7.12427 -26.21981,1.118 -39.22983,1.7447 -15.62892,-0.68531 -32.47477,2.77234 -44.59492,13.07877 -7.74163,11.3119 0.8685,24.57858 6.19737,34.92908 3.18631,7.63622 -2.62944,21.14068 10.6235,17.87708 18.28205,-0.27923 36.57335,-0.0617 54.86103,-0.12963 10.82676,6.19455 26.88432,-8.37062 18.9696,-19.24073 -9.46088,-2.8848 -22.36051,-13.61112 -12.14064,-23.61263 5.70406,-4.3884 13.09306,-8.88994 8.34445,-16.98696 -0.19658,-2.7322 -0.42575,-6.05433 -3.03056,-7.65968 z"
         id="path3016"
         style="fill:#be8d48;fill-opacity:1;stroke:#000000;stroke-width:1px;stroke-linecap:butt;stroke-linejoin:miter;stroke-opacity:1" />
      <path
         d="m 388.92857,726.6479 c -4.74568,-8.71209 15.85649,-3.45298 13.60653,-14.32126 5.21992,-8.83371 18.34221,-22.62496 28.62018,-13.99497 3.19032,6.62783 -1.68336,16.2088 7.503,19.01074 1.55089,6.11939 -3.80466,11.20472 2.18167,17.02446 4.19285,9.17362 -8.07129,21.20779 -17.40842,16.09327 -8.13548,-4.85696 -15.42085,-8.18257 -23.99295,-2.18406 -12.48233,4.46867 -8.17334,-15.19766 -10.51001,-21.62818 z"
         id="path3022"
         style="fill:#ffffff;stroke:#000000;stroke-width:1px;stroke-linecap:butt;stroke-linejoin:miter;stroke-opacity:1" />
      <path
         d="m 369.74598,736.23527 c 6.88631,5.95109 5.04104,13.12515 -0.0926,19.17128 -8.9569,6.90355 -30.46705,10.41909 -47.66457,7.75416 -14.05379,-3.31041 -15.39595,-11.54763 -11.37724,-17.51335 5.82955,-5.61709 20.44744,-7.91929 32.68544,-10.14599 9.82343,-1.442 22.73757,-2.04539 30.1697,1.80563"
         id="path3024"
         style="fill:#d4ac71;fill-opacity:1;stroke:none;filter:url(#filter3912)" />
      <path
         d="m 273.52502,777.8216 c 2.32504,-13.38365 -15.66433,-10.64749 -23.08516,-6.68108 10.43475,-7.40468 27.74544,-6.34349 36.30754,-17.43012 8.75379,-4.86479 8.78166,-20.06099 -4.71691,-13.39946 -9.19753,2.69762 -18.24464,8.33343 -28.18245,6.4023 -10.89338,0.4132 -25.13269,4.51884 -27.61362,16.76328 2.0786,8.88207 -4.67056,22.02821 -0.71187,27.9566 13.65571,2.32066 27.2728,10.13281 41.29941,5.15423 10.32378,-0.16176 24.89134,-16.7188 8.33925,-19.54378 l -1.63619,0.77803 z"
         id="path3050"
         style="fill:url(#radialGradient3058);fill-opacity:1;stroke:none" />
      <path
         d="m 261.60125,770.22619 c -8.78664,-1.37332 -10.86611,-2.74083 -8.94303,-3.70811 10.43475,-6.20888 24.20991,-2.45173 32.77201,-11.74796 8.75379,-4.07916 11.55958,-20.57252 -1.93899,-14.98677 -9.19753,2.26198 -18.24464,6.98765 -28.18245,5.36838 -10.89338,0.34647 -23.49119,4.9255 -25.97212,15.19256 2.0786,7.44769 -13.13059,25.92071 -9.1719,30.89172 13.65571,1.94589 34.09133,-0.0899 48.11794,-4.26444 10.32378,-0.13564 24.89134,-14.01885 8.33925,-16.38762 z"
         id="path3916"
         style="fill:url(#radialGradient4090);fill-opacity:1;stroke:none" />
      <path
         d="m 258.67124,761.80163 c 1.31704,-5.73207 -8.87318,-4.56021 -13.07677,-2.86143 5.91085,-3.17135 14.85831,-0.76998 19.70838,-5.51827 4.95866,-2.08354 5.83276,-10.53878 -1.81361,-7.68572 -5.21002,1.15536 -10.33483,3.56913 -15.96418,2.74204 -6.17064,0.17697 -14.23661,1.93537 -15.64195,7.17953 1.17743,3.8041 -2.64569,9.43445 -0.40325,11.97352 7.73539,0.99391 15.44889,4.33977 23.39438,2.2075 5.84799,-0.0692 14.0999,-7.16048 4.72384,-8.3704 l -0.92684,0.33323 0,0 z"
         id="path3918"
         style="fill:url(#radialGradient3920);fill-opacity:1;stroke:none" />
      <path
         d="m 325.81741,691.23527 c 6.88631,5.95109 5.04104,13.12515 -0.0926,19.17128 -8.9569,6.90355 -30.46705,10.41909 -47.66457,7.75416 -14.05379,-3.31041 -15.39595,-11.54763 -11.37724,-17.51335 5.82955,-5.61709 20.44744,-7.91929 32.68544,-10.14599 9.82343,-1.442 22.73757,-2.04539 30.1697,1.80563"
         transform="matrix(1.5194593,0,0,1.0747149,-154.7223,-52.039686)"
         id="path3922"
         style="fill:#d4ac71;fill-opacity:1;stroke:none;filter:url(#filter3912)" />
      <path
         d="m 376.25,725.13004 c -0.10215,-13.68984 -10.88948,-21.84465 -18.47887,-32.17768 -12.02005,-12.358 -30.3032,-12.32569 -46.31489,-13.45322 -9.23002,0.0213 -17.49229,2.43654 -26.27788,3.70727 -14.02282,5.63051 -30.56448,7.3289 -41.87491,17.86236 -10.77343,7.25017 -20.80953,15.88407 -27.52012,27.15065 -8.46375,11.95506 -14.02403,26.13058 -14.66359,40.84677 -2.53073,8.69222 -23.21412,18.13971 -8.05915,25.95128 12.70124,9.23805 24.39429,-6.95708 36.68765,-1.69495 9.24682,5.74996 20.50921,7.1676 30.76786,3.83261 8.27105,-3.24698 15.99252,-10.67576 25.52339,-8.44253 9.04138,9.88975 23.76089,-4.31379 33.05887,5.25755 20.20917,1.36287 40.4872,-0.0971 60.7237,0.62451 13.00863,3.93726 24.87345,-11.16509 14.70263,-21.70297 -6.44062,-4.334 -21.33369,-3.50763 -16.10335,-15.95621 4.91057,-10.61964 1.61621,-22.07611 -2.03996,-32.46147 -0.56536,-2.20889 -0.96504,-4.47086 -1.02424,-6.75469"
         id="path4097"
         style="fill:url(#radialGradient4105);fill-opacity:1;stroke:none" />
      <path
         d="m 387.39322,753.7455 c -1.29223,1.61312 -2.39213,3.52669 -3.45224,5.49205 -1.00618,1.92296 -2.03513,3.81536 -3.01775,5.76679 -0.55114,1.5957 -1.42661,2.77153 -2.28775,3.95697 -0.96416,1.31364 -2.04792,2.36405 -3.18777,3.27242 -1.57049,1.18886 -3.2163,2.11555 -4.90969,2.78387 -1.48313,0.44143 -2.94102,1.05193 -4.39718,1.66406 -1.76911,0.95432 -3.62865,1.31462 -5.45436,1.89041 -1.69219,0.66333 -3.43274,0.8938 -5.16995,1.05322 -1.6126,0.12496 -3.22769,0.11576 -4.8418,0.11696 -2.19904,0.002 -4.39806,-0.006 -6.5971,-0.008 -1.05097,-0.002 -2.10192,-0.002 -3.15289,-0.002 0,0 1.89588,-0.46327 1.89588,-0.46327 l 0,0 c 1.05324,-1.4e-4 2.10646,5.6e-4 3.15969,10e-4 0.7305,10e-4 1.46101,0.004 2.19151,0.006 0.54382,10e-4 2.17524,-0.006 1.63146,0.004 -0.3405,0.006 -0.68104,8e-4 -1.02156,10e-4 1.61272,-4e-4 3.22628,0.008 4.83784,-0.10097 1.73478,-0.14495 3.47657,-0.34664 5.1664,-1.00904 1.81824,-0.6054 3.68779,-0.88616 5.44872,-1.87459 1.45903,-0.6035 2.91234,-1.25682 4.40137,-1.66908 1.69102,-0.63347 3.33106,-1.54368 4.89711,-2.71881 1.13822,-0.87678 2.21385,-1.90874 3.17512,-3.19946 0.86544,-1.15154 1.74555,-2.32214 2.29186,-3.8993 0.98141,-1.95954 2.02491,-3.84133 3.02798,-5.7756 1.06023,-1.97827 2.16538,-3.89231 3.43063,-5.56491 0,0 1.93447,0.27757 1.93447,0.27757 z"
         id="path3924"
         style="fill:#000000;fill-opacity:1;stroke:none" />
      <path
         d="m 280.82241,762.95348 c -0.33672,0.16836 -0.8418,0.84179 -1.01015,0.50507 -0.16836,-0.33671 1.17851,-0.84179 1.01015,-0.50507 -1.95515,3.91029 -0.6258,0.56544 -1.51523,1.01015 -0.30305,0.15152 -0.45457,0.60609 -0.75762,0.75762 -0.0753,0.0376 -0.19301,-0.0595 -0.25253,0 -0.0595,0.0595 0.0753,0.21489 0,0.25253 -0.15059,0.0753 -0.34536,-0.0532 -0.50508,0 -0.11294,0.0376 -0.14606,0.1993 -0.25254,0.25254 -0.0753,0.0376 -0.17268,-0.0266 -0.25254,0 -1.4308,0.7154 0.37647,-0.0941 -1.01015,0.25254 -1.05656,-0.45731 -0.29212,0.3986 -0.50507,0.50508 -0.30117,0.15058 -0.69072,-0.10648 -1.01016,0 -0.11294,0.0376 -0.14606,0.19929 -0.25254,0.25253 -0.15058,0.0753 -0.35449,-0.0753 -0.50507,0 -0.10648,0.0532 -0.14606,0.1993 -0.25254,0.25254 -0.15048,0.0752 -1.02805,-0.0587 -1.26269,0 -0.25825,0.0646 -0.49936,0.18798 -0.75762,0.25254 -0.24499,0.0613 -0.50998,-0.0495 -0.75761,0 -0.26103,0.0522 -0.49936,0.18798 -0.75761,0.25254 -0.34496,0.0862 -1.22072,-0.0982 -1.51523,0 -0.11294,0.0376 -0.14606,0.1993 -0.25254,0.25254 -0.16138,0.0807 -0.80689,-0.0678 -1.01015,0 -0.17857,0.0595 -0.32651,0.19301 -0.50508,0.25253 -0.14248,0.0475 -0.59167,0 -0.75761,0 -0.4209,0 -0.8418,0 -1.26269,0 -0.16836,0 -0.3545,-0.0753 -0.50508,0 -0.0753,0.0376 0.0595,0.19302 0,0.25254 -0.0595,0.0595 -0.17268,-0.0266 -0.25254,0 -0.17857,0.0595 -0.32246,0.20689 -0.50508,0.25254 -0.24499,0.0612 -0.51803,-0.0799 -0.75761,0 -0.16836,0.0842 -0.33672,0.16836 -0.50508,0.25254 0,0.0842 0.0595,0.19301 0,0.25254 -0.0491,0.0492 -1.17047,-0.0461 -1.26269,0 -0.0753,0.0376 0,0.16836 0,0.25254 -0.0842,0.0842 -0.1396,0.21489 -0.25253,0.25253 -10e-4,3.8e-4 -0.75738,-2.4e-4 -0.75762,0 -0.0595,0.0595 0.0595,0.19302 0,0.25254 -0.0691,0.0691 -0.87315,-0.0685 -1.01015,0 -0.21296,0.10648 -0.2792,0.42979 -0.50508,0.50508 -0.15972,0.0532 -0.33672,0 -0.50507,0 -0.16836,0.16836 -0.30697,0.373 -0.50508,0.50507 -0.10394,0.0693 -1.11695,-0.0729 -1.26269,0 -1.051,0.52551 0.26997,-0.0174 -0.25254,0.50508 -0.0516,0.0516 -0.65748,-0.0501 -0.75761,0 -1.15577,0.57788 1.07162,-0.10467 -0.75762,0.50508 -0.15972,0.0532 -0.35449,-0.0753 -0.50507,0 -0.21296,0.10648 -0.29212,0.39859 -0.50508,0.50507 -0.62199,0.311 0.22797,-0.73305 -0.75762,0.25254 -0.0595,0.0595 0.0799,0.22592 0,0.25254 -0.23957,0.0799 -0.53173,-0.11294 -0.75761,0 -0.16836,0.0842 -0.11944,0.37198 -0.25254,0.50508 -0.0595,0.0595 -0.19301,-0.0595 -0.25254,0 -0.0595,0.0595 0.0376,0.17724 0,0.25253 -0.0532,0.10648 -0.19929,0.14606 -0.25253,0.25254 -0.0377,0.0753 0,0.16836 0,0.25254 0,0.0842 -0.0753,0.21489 0,0.25254 0.15058,0.0753 0.33671,0 0.50507,0 1.87801,0 0.61848,0 2.27285,0 0.42089,0 0.84179,0 1.26269,0 0.0842,0 0.16835,0 0.25253,0 0.0842,0 0.1825,-0.0467 0.25254,0 0.19811,0.13207 0.37301,0.30697 0.50508,0.50507 0.0934,0.14009 -0.0753,0.3545 0,0.50508 0.5255,1.051 -0.0174,-0.26997 0.50507,0.25254 0.0595,0.0595 0,0.16836 0,0.25254 0,0.42089 0,0.84179 0,1.26269 0,0.0842 0,0.16836 0,0.25254 0,0.0842 0.0376,0.17724 0,0.25253 -0.0532,0.10648 -0.14605,0.1993 -0.25253,0.25254 -0.0753,0.0376 -0.17725,-0.0376 -0.25254,0 -1.19253,0.59627 1.54139,-0.13281 -1.01015,0.50508 -0.0817,0.0204 -0.19302,-0.0595 -0.25254,0 -0.1331,0.1331 -0.11944,0.37198 -0.25254,0.50507 -0.0595,0.0595 -0.17725,-0.0376 -0.25254,0 -0.21296,0.10648 -0.29212,0.3986 -0.50507,0.50508 -0.0753,0.0376 -0.17268,-0.0266 -0.25254,0 -0.17857,0.0595 -0.33672,0.16836 -0.50508,0.25254 -0.16836,0.0842 -0.37198,0.11944 -0.50508,0.25254 -0.0595,0.0595 0.0376,0.17724 0,0.25254 -0.0652,0.13044 -1.17702,1.17702 -1.26269,1.26269 -0.25253,0.25253 -0.50507,0.50507 -0.75761,0.75761 -0.0842,0.0842 -0.16836,0.16836 -0.25254,0.25254 -0.0842,0.0842 -0.21489,0.1396 -0.25254,0.25254 -0.0532,0.15972 0.0532,0.34535 0,0.50507 -0.0376,0.11294 -0.1993,0.14606 -0.25253,0.25254 -0.0376,0.0753 0,0.16836 0,0.25254 0,0.0842 -0.0595,0.19301 0,0.25254 0.0595,0.0595 0.19301,-0.0595 0.25253,0 0.0595,0.0595 -0.0595,0.19301 0,0.25254 0.0595,0.0595 0.17725,-0.0376 0.25254,0 0.62413,0.31206 -0.0872,0.25253 0.50508,0.25253 0.16836,0 0.33672,0 0.50507,0 0.0842,0 0.17725,-0.0376 0.25254,0 0.10648,0.0532 0.14606,0.1993 0.25254,0.25254 0.0753,0.0376 0.21489,-0.0753 0.25254,0 0,1.14963 -0.11905,0.0144 0.25254,0.75762 0.0376,0.0753 0,0.16835 0,0.25253 0,0.16836 0.0753,0.3545 0,0.50508 -0.0376,0.0753 -0.17725,-0.0376 -0.25254,0 -0.22384,0.11192 -0.52773,0.60436 -0.75762,0.75761 -0.31323,0.20883 -0.69691,0.29626 -1.01015,0.50508 -0.0991,0.066 -0.14606,0.1993 -0.25254,0.25254 -0.26937,0.13469 -0.33756,-0.25 -0.50507,0.25254 -0.016,0.0478 -0.016,1.4674 0,1.51523 0.0376,0.11293 0.16836,0.16835 0.25254,0.25253 0.0842,0.16836 0.19301,0.32651 0.25253,0.50508 0.0266,0.0799 0,0.16836 0,0.25254 0.0842,0.16836 0.19302,0.3265 0.25254,0.50507 0.1045,0.31351 -0.20731,0.27516 0.25254,0.50508 0.0753,0.0376 0.1825,-0.0467 0.25254,0 0.004,0.003 1.21751,1.17233 1.26269,1.26269 0.0376,0.0753 -0.0376,0.17725 0,0.25254 0.0532,0.10648 0.16836,0.16836 0.25254,0.25254 0.0842,0.0842 0.14606,0.1993 0.25253,0.25254 0.0753,0.0376 0.19302,-0.0595 0.25254,0 0.0595,0.0595 -0.0595,0.19301 0,0.25253 0.0595,0.0595 0.19302,-0.0595 0.25254,0 0.0595,0.0595 -0.0595,0.19302 0,0.25254 0.32783,0.32783 0.61007,0.25254 1.01015,0.25254 0.0842,0 0.1825,-0.0467 0.25254,0 0.19811,0.13207 0.30697,0.37301 0.50508,0.50508 0.0974,0.0649 0.61697,-0.0469 0.75761,0 0.16836,0.0842 0.33672,0.16836 0.50508,0.25254 0,0.0842 -0.0595,0.19301 0,0.25253 0.0595,0.0595 0.16836,0 0.25254,0 0.33671,0 0.67343,0 1.01015,0 0.50508,0 1.01015,0 1.51523,0 0.16836,0 0.36499,-0.0934 0.50507,0 0.15662,0.10441 0.11944,0.37198 0.25254,0.50508 0.0595,0.0595 0.16836,0 0.25254,0 0.16836,0 0.33672,0 0.50508,0 0.84179,0 1.68358,0 2.52538,0 0.75761,0 1.51523,0 2.27284,0 0.14551,0 1.17065,0.046 1.26269,0 0.21296,-0.10648 0.29212,-0.3986 0.50508,-0.50508 0.15872,-0.0794 0.85143,0.0794 1.01015,0 0.0753,-0.0376 -0.0595,-0.19301 0,-0.25253 0.11905,-0.11905 0.34536,0.0532 0.50508,0 0.17857,-0.0595 0.37197,-0.11944 0.50507,-0.25254 0.0595,-0.0595 -0.0376,-0.17725 0,-0.25254 0.0523,-0.10449 0.65058,-0.68625 0.75762,-0.75762 0.15662,-0.10441 0.3265,-0.19301 0.50507,-0.25253 0.0799,-0.0266 0.19302,0.0595 0.25254,0 0.1331,-0.1331 0.11944,-0.37198 0.25254,-0.50508 0.0595,-0.0595 0.17725,0.0376 0.25254,0 0.30304,-0.15152 0.45457,-0.60609 0.75761,-0.75761 0.0753,-0.0376 0.19302,0.0595 0.25254,0 0.0595,-0.0595 -0.0595,-0.19302 0,-0.25254 0.1331,-0.1331 0.34846,-0.14813 0.50508,-0.25254 0.21791,-0.14528 0.56036,-0.56036 0.75761,-0.75762 0.0842,-0.0842 0.14606,-0.19929 0.25254,-0.25253 0.0753,-0.0377 0.19301,0.0595 0.25254,0 0.1331,-0.1331 0.11944,-0.37198 0.25254,-0.50508 0.11904,-0.11905 0.35449,0.0753 0.50507,0 0.0676,-0.0338 0.43745,-0.47126 0.50508,-0.50508 0.0753,-0.0376 0.19301,0.0595 0.25254,0 0.0595,-0.0595 -0.0595,-0.19301 0,-0.25253 0.11904,-0.11905 0.34535,0.0532 0.50507,0 0.16836,-0.0842 0.33672,-0.16836 0.50508,-0.25254 0.0842,0 0.17268,0.0266 0.25254,0 0.17857,-0.0595 0.3265,-0.19302 0.50507,-0.25254 0.2269,-0.0756 0.52501,0.0581 0.75762,0 0.25825,-0.0646 0.49936,-0.18798 0.75761,-0.25254 0.20928,-0.0523 0.99677,0 1.26269,0 0.8418,0 1.68359,0 2.52538,0 0.33672,0 0.67344,0 1.01016,0 0.16836,0 0.33671,0 0.50507,0 0.0842,0 0.17088,0.0204 0.25254,0 0.25825,-0.0646 0.49504,-0.20877 0.75762,-0.25254 0.2491,-0.0415 0.50507,0 0.75761,0 0.75762,0 1.51834,0.0686 2.27284,0 0.42747,-0.0389 0.83678,-0.19929 1.26269,-0.25253 0.25059,-0.0313 0.50508,0 0.75762,0 0.16836,0 0.34876,0.0625 0.50508,0 0.2818,-0.11273 0.48614,-0.36935 0.75761,-0.50508 0.0753,-0.0376 0.17725,0.0376 0.25254,0 0.10648,-0.0532 0.14606,-0.1993 0.25254,-0.25254 0.15058,-0.0753 0.38602,0.11905 0.50507,0 0.0595,-0.0595 -0.0595,-0.19301 0,-0.25254 0.11905,-0.11904 0.365,0.0934 0.50508,0 0.29716,-0.1981 0.46045,-0.5595 0.75761,-0.75761 0.15662,-0.10441 0.34846,-0.14813 0.50508,-0.25254 0.099,-0.066 0.1396,-0.21489 0.25254,-0.25254 0.15972,-0.0532 0.34174,0.0408 0.50507,0 0.69084,-0.17271 0.40639,-0.3551 1.01016,-0.75761 0.07,-0.0467 0.18249,0.0467 0.25253,0 0.1746,-0.1164 1.72756,-1.71416 1.76777,-1.76777 0.0505,-0.0673 -0.0467,-0.1825 0,-0.25254 0.13207,-0.1981 0.33672,-0.33671 0.50508,-0.50507 0.0842,-0.0842 0.21489,-0.1396 0.25254,-0.25254 0.0532,-0.15972 0,-0.33672 0,-0.50508 0,-0.0842 -0.0376,-0.17724 0,-0.25254 0.0532,-0.10648 0.21489,-0.1396 0.25253,-0.25253 0.0464,-0.13922 0,-1.30092 0,-1.51523 0,-0.16836 0.10102,-0.37039 0,-0.50508 -0.2283,-0.3044 -1.12817,-0.71461 -1.51523,-0.75761 -0.50198,-0.0558 -1.01522,0.0714 -1.51522,0 -0.68719,-0.0982 -1.33224,-0.41334 -2.02031,-0.50508 -0.58409,-0.0779 -1.17851,0 -1.76777,0 -1.76776,0 -3.53553,0 -5.3033,0 -0.58925,0 -1.17851,0 -1.76776,0 -0.49806,0 -1.37181,0.14342 -1.76777,-0.25254 -0.0595,-0.0595 0,-0.16836 0,-0.25254 0,-0.50507 0,-1.01015 0,-1.51523 0,-0.16835 -0.033,-0.33998 0,-0.50507 0.0723,-0.36137 0.30305,-0.92597 0.50508,-1.26269 0.15615,-0.26026 0.34892,-0.49736 0.50507,-0.75762 0.0969,-0.1614 0.14813,-0.34846 0.25254,-0.50507 0.19426,-0.29139 0.56335,-0.46623 0.75761,-0.75762 0.10442,-0.15661 0.1396,-0.35449 0.25254,-0.50507 0.14286,-0.19048 0.37301,-0.30697 0.50508,-0.50508 0.0467,-0.07 0,-0.16836 0,-0.25254 0,-0.16836 -0.0532,-0.34535 0,-0.50507 0.0376,-0.11294 0.1865,-0.15349 0.25254,-0.25254 0.10441,-0.15662 0.19301,-0.32651 0.25254,-0.50508 0.0266,-0.0799 -0.0595,-0.19301 0,-0.25254 0.13309,-0.1331 0.37197,-0.11944 0.50507,-0.25253 0.0595,-0.0595 0,-0.16836 0,-0.25254 0,-0.17565 0.0457,-1.17137 0,-1.26269 -0.0532,-0.10648 -0.16836,-0.16836 -0.25254,-0.25254 -0.0842,-0.0842 -0.14606,-0.1993 -0.25253,-0.25254 -0.0753,-0.0376 -0.17268,0.0266 -0.25254,0 -0.35715,-0.11905 -0.65301,-0.38603 -1.01016,-0.50508 -0.0799,-0.0266 -0.17267,0.0266 -0.25253,0 -0.17858,-0.0595 -0.32651,-0.19301 -0.50508,-0.25253 -0.0799,-0.0266 -0.16836,0 -0.25254,0 -0.18054,0 -1.38596,0.0431 -1.51523,0 -0.11294,-0.0376 -0.14606,-0.1993 -0.25254,-0.25254 -0.0753,-0.0376 -0.17724,0.0376 -0.25253,0 -0.10648,-0.0532 -0.16836,-0.16836 -0.25254,-0.25254 -0.0842,-0.0842 -0.21489,-0.1396 -0.25254,-0.25254 -0.0532,-0.15972 0,-0.33672 0,-0.50507 0,-0.0842 -0.0595,-0.19302 0,-0.25254 0.0595,-0.0595 0.17725,0.0376 0.25254,0 0.40087,-0.20044 0.31308,-0.5489 0,-0.75762 -0.40841,-0.27227 -0.8418,-0.50507 -1.26269,-0.75761 z"
         transform="matrix(1,0,0,0.95012826,0,38.049815)"
         id="path3930"
         style="fill:#be8d48;fill-opacity:1;stroke:none;filter:url(#filter3960)" />
      <path
         d="m 219.2031,728.10322 c 0.67344,-0.16836 1.32615,-0.50508 2.02031,-0.50508 0.16836,0 -0.11905,0.38603 0,0.50508 0.11905,0.11904 0.33672,0 0.50507,0 0,0.16835 -0.0753,0.35449 0,0.50507 0.21296,0.42592 0.85957,0.5584 1.01016,1.01015 0.1789,0.5367 -0.1789,1.48361 0,2.02031 0.11904,0.35714 0.38603,0.65301 0.50507,1.01015 0.11581,0.34741 -0.149,1.21723 0,1.51523 0.10648,0.21296 0.3986,0.29212 0.50508,0.50508 0.0768,0.15356 0,1.67154 0,2.0203 0,1.51523 0,3.03046 0,4.54569 0,1.01015 0,2.0203 0,3.03046 0,0.16835 0,0.33671 0,0.50507 0,0.16836 0.0934,0.365 0,0.50508 -0.26414,0.39621 -0.74601,0.61394 -1.01015,1.01015 -0.18678,0.28017 0.18677,0.72999 0,1.01015 -0.26415,0.39622 -0.7972,0.58424 -1.01016,1.01016 -0.15058,0.30117 0,0.67343 0,1.01015 0,0.50508 0.15972,1.03607 0,1.51523 -0.0532,0.15972 -0.35449,-0.0753 -0.50507,0 -0.21296,0.10648 -0.3986,0.29212 -0.50508,0.50507 -0.15058,0.30117 0.15059,0.70899 0,1.01016 -0.10648,0.21296 -0.3986,0.29211 -0.50507,0.50507 -0.0753,0.15059 0.0753,0.35449 0,0.50508 -0.10648,0.21296 -0.3986,0.29212 -0.50508,0.50508 -0.15873,0.31745 0.15872,1.70285 0,2.0203 -0.10648,0.21296 -0.3986,0.29212 -0.50508,0.50508 -0.0753,0.15058 0.0753,0.35449 0,0.50507 -0.10648,0.21296 -0.39859,0.29212 -0.50507,0.50508 -0.16406,0.32811 0.16019,2.205 0,2.52538 -0.10648,0.21296 -0.3986,0.29212 -0.50508,0.50508 -0.0753,0.15058 0,0.33671 0,0.50507 0,0.16836 0,0.33672 0,0.50508 0,0.84179 0,1.68359 0,2.52538 0,1.17851 0,2.35702 0,3.53553 0,0.33672 0,0.67344 0,1.01016 0,0.16836 0.0753,0.35449 0,0.50507 -0.10648,0.21296 -0.3986,0.29212 -0.50508,0.50508 -0.0753,0.15058 0,0.33672 0,0.50508 -0.16836,0.33671 -0.29625,0.69691 -0.50507,1.01015 -0.26415,0.39621 -0.7972,0.58423 -1.01016,1.01015 -0.0753,0.15059 0.0753,0.35449 0,0.50508 -0.21295,0.42592 -0.79719,0.58423 -1.01015,1.01015 -0.0753,0.15058 0.11905,0.38603 0,0.50508 -0.11905,0.11904 -0.42978,-0.15059 -0.50507,0 -0.80018,1.60034 1.0452,0.47002 -0.50508,2.0203 -0.11905,0.11905 -0.38603,-0.11905 -0.50508,0 -0.2662,0.2662 -0.29625,0.69692 -0.50507,1.01015 -0.13207,0.19811 -0.3986,0.29212 -0.50508,0.50508 -0.15058,0.30117 0.2381,0.77206 0,1.01015 -0.2662,0.2662 -0.69692,0.29626 -1.01015,0.50508 -1.00059,-0.0504 -0.23888,0.74395 -0.50508,1.01015 -1.04502,1.04502 0.0409,-1.59693 -1.01015,0.50508 -0.0753,0.15058 0.0753,0.35449 0,0.50507 -0.10648,0.21296 -0.3986,0.29212 -0.50508,0.50508 -0.0753,0.15058 0.0753,0.35449 0,0.50508 -0.10648,0.21296 -0.39859,0.29211 -0.50507,0.50507 -0.0753,0.15059 0.11904,0.38603 0,0.50508 -0.11905,0.11905 -0.35449,-0.0753 -0.50508,0 -0.26975,0.13488 -1.24932,1.24932 -1.51523,1.51523 -0.57788,0.57788 -0.59789,0.70437 -1.51523,1.01015 -0.15972,0.0532 -0.35449,-0.0753 -0.50507,0 -0.21296,0.10648 -0.29212,0.3986 -0.50508,0.50508 -0.30095,0.15047 -2.0561,-0.11732 -2.52538,0 -0.5165,0.12912 -0.99873,0.37595 -1.51523,0.50507 -0.16333,0.0408 -0.33672,0 -0.50508,0 -0.33671,0 -0.67343,0 -1.01015,0 -1.01015,0 -2.0203,0 -3.03046,0 -0.16835,0 -0.33671,0 -0.50507,0 -0.16836,0 -0.38603,-0.11904 -0.50508,0 -0.11905,0.11905 0.11905,0.38603 0,0.50508 -0.11905,0.11905 -0.38603,0.11905 -0.50507,0 -0.0163,-0.0162 0,-1.39273 0,-1.51523 0,-0.33672 -0.10648,-0.69071 0,-1.01015 0.11904,-0.35714 0.38602,-0.65301 0.50507,-1.01015 0.10648,-0.31944 -0.15058,-0.70899 0,-1.01016 1.051,-2.102 -0.0349,0.53995 1.01015,-0.50507 0.2662,-0.2662 0.29626,-0.69692 0.50508,-1.01016 0.38852,-0.58278 1.12671,-0.93244 1.51523,-1.51522 0.20882,-0.31324 0.29625,-0.69692 0.50508,-1.01016 0.13207,-0.1981 0.39859,-0.29211 0.50507,-0.50507 0.0753,-0.15059 -0.0753,-0.3545 0,-0.50508 0.21296,-0.42592 0.74601,-0.61394 1.01015,-1.01015 0.20883,-0.31324 0.29626,-0.69692 0.50508,-1.01015 0.13207,-0.19811 0.3986,-0.29212 0.50508,-0.50508 0.0753,-0.15059 -0.11905,-0.38603 0,-0.50508 0.11904,-0.11905 0.38603,0.11905 0.50507,0 0.11905,-0.11905 -0.0532,-0.34535 0,-0.50507 0.11905,-0.35715 0.29626,-0.69692 0.50508,-1.01016 0.13207,-0.1981 0.3986,-0.29211 0.50508,-0.50507 0.0753,-0.15059 -0.0753,-0.35449 0,-0.50508 0.10647,-0.21296 0.373,-0.30697 0.50507,-0.50508 0.20883,-0.31323 0.29625,-0.69691 0.50508,-1.01015 0.77356,-1.16034 0.2885,0.21658 1.51523,-1.01015 0.23809,-0.2381 -0.2381,-0.77206 0,-1.01015 0.11904,-0.11905 0.42978,0.15058 0.50507,0 0.17602,-0.35204 -0.17115,-2.51702 0,-3.03046 0.11905,-0.35714 0.38603,-0.65301 0.50508,-1.01015 0.15704,-0.47113 -0.15561,-2.05857 0,-2.52538 0.0753,-0.22588 0.3986,-0.29212 0.50508,-0.50508 0.149,-0.29801 -0.11581,-1.16782 0,-1.51523 0.23809,-0.71429 0.77205,-1.30602 1.01015,-2.0203 0.0532,-0.15972 -0.0408,-0.34175 0,-0.50508 0.12912,-0.5165 0.40066,-0.99317 0.50507,-1.51523 0.066,-0.33018 0,-0.67343 0,-1.01015 0.16836,-0.50508 0.37596,-0.99873 0.50508,-1.51523 0.0817,-0.32666 -0.15058,-0.70898 0,-1.01015 0.10648,-0.21296 0.3986,-0.29212 0.50508,-0.50508 0.0753,-0.15058 -0.0532,-0.34536 0,-0.50508 0.11904,-0.35714 0.38603,-0.65301 0.50507,-1.01015 0.0532,-0.15972 -0.0532,-0.34536 0,-0.50507 0.11905,-0.35715 0.41377,-0.64494 0.50508,-1.01016 0.0817,-0.32666 -0.10648,-0.69071 0,-1.01015 0.0753,-0.22588 0.3986,-0.29212 0.50508,-0.50508 0.0753,-0.15058 -0.0753,-0.35449 0,-0.50507 0.10648,-0.21296 0.39859,-0.29212 0.50507,-0.50508 0.15059,-0.30117 -0.23809,-0.77206 0,-1.01015 0.11905,-0.11905 0.38603,0.11905 0.50508,0 0.11905,-0.11905 -0.0753,-0.35449 0,-0.50508 0.10648,-0.21296 0.3986,-0.29212 0.50507,-0.50507 0.0753,-0.15059 -0.0532,-0.34536 0,-0.50508 0.2381,-0.71429 0.82755,-1.28986 1.01016,-2.02031 0.0817,-0.32666 -0.15059,-0.70898 0,-1.01015 0.0753,-0.15058 0.42978,0.15059 0.50507,0 0.15059,-0.30117 -0.10648,-0.69071 0,-1.01015 0.0753,-0.22588 0.3986,-0.29212 0.50508,-0.50508 0.20203,-0.40406 -0.20203,-1.11116 0,-1.51523 1.15577,-2.31153 -0.20934,2.14325 1.01015,-1.51522 0.0532,-0.15972 -0.11905,-0.38603 0,-0.50508 0.11905,-0.11905 0.38603,0.11905 0.50508,0 0.11905,-0.11905 -0.0753,-0.35449 0,-0.50508 0.10648,-0.21296 0.3986,-0.29211 0.50507,-0.50507 0.0753,-0.15059 -0.0753,-0.35449 0,-0.50508 0.21296,-0.42592 0.7972,-0.58423 1.01016,-1.01015 0.15058,-0.30117 -0.15059,-0.70899 0,-1.01015 1.051,-2.10201 -0.0349,0.53994 1.01015,-0.50508 0.2381,-0.2381 -0.10648,-0.69071 0,-1.01015 0.2867,-0.86012 0.67343,-1.68359 1.01015,-2.52538 z"
         id="path3964"
         style="fill:#d2a669;fill-opacity:1;stroke:none;filter:url(#filter4034)" />
      <path
         d="m 396.98995,776.08546 c -0.67343,0.16836 -1.85195,1.17851 -2.0203,0.50508 -0.16836,-0.67344 2.51115,-0.99592 2.0203,-0.50508 -0.7986,0.7986 -2.04988,0.9549 -3.03046,1.51523 -1.00058,-0.0504 -0.23887,0.74395 -0.50507,1.01015 -0.11905,0.11905 -0.38603,-0.11904 -0.50508,0 -0.2662,0.2662 -0.23888,0.74396 -0.50508,1.01016 -0.11904,0.11904 -0.35449,-0.0753 -0.50507,0 -0.21296,0.10647 -0.33672,0.33671 -0.50508,0.50507 -0.16836,0.16836 -0.3986,0.29212 -0.50507,0.50508 -0.0753,0.15058 0.15058,0.42978 0,0.50507 -0.30117,0.15059 -0.70899,-0.15058 -1.01016,0 -0.15058,0.0753 0.11905,0.38603 0,0.50508 -0.11904,0.11905 -0.33671,0 -0.50507,0 -0.16836,0 -0.33672,0 -0.50508,0 -0.67343,0 -1.35995,-0.13207 -2.0203,0 -2.03249,0.4065 -0.23206,0.36857 -1.51523,1.01015 -0.15059,0.0753 -0.34175,-0.0408 -0.50508,0 -0.5165,0.12913 -0.99873,0.37595 -1.51523,0.50508 -0.41461,0.10365 -1.72335,-0.14848 -2.0203,0 -0.54294,0.27147 -1.02961,0.64594 -1.51523,1.01015 -0.77013,0.5776 -0.29393,0.70483 -1.51523,1.01015 -0.32667,0.0817 -0.67344,0 -1.01015,0 -1.01016,0 -2.02031,0 -3.03046,0 -3.19882,0 -6.39763,0 -9.59645,0 -1.01015,0 -2.02031,0 -3.03046,0 -0.33672,0 -0.69071,-0.10648 -1.01015,0 -0.22588,0.0753 -0.29212,0.3986 -0.50508,0.50508 -0.31051,0.15526 -2.95352,-0.1164 -3.53553,0 -0.52206,0.10441 -0.99317,0.40067 -1.51523,0.50508 -0.50121,0.10024 -1.99473,0 -2.52538,0 -1.51523,0 -3.03046,0 -4.54569,0 -5.21912,0 -10.43824,0 -15.65736,0 -4.71405,0 -9.42809,0 -14.14214,0 -0.67343,0 -1.34687,0 -2.0203,0 -0.16836,0 -0.38603,0.11904 -0.50508,0 -0.11905,-0.11905 0.0753,-0.35449 0,-0.50508 -0.10648,-0.21296 -0.33672,-0.33672 -0.50508,-0.50508 -0.33671,-0.33671 -0.74601,-0.61393 -1.01015,-1.01015 -0.18678,-0.28016 0.15059,-0.70898 0,-1.01015 -0.55837,-1.11675 -0.31347,-0.15674 -1.01015,-0.50508 -0.42592,-0.21296 -0.58424,-0.79719 -1.01015,-1.01015 -0.26707,-0.13353 -1.77424,0.0615 -2.02031,0 -0.36522,-0.0913 -0.65301,-0.38603 -1.01015,-0.50508 -0.2941,-0.098 -2.68293,0 -3.03046,0 -2.69374,0 -5.38748,0 -8.08122,0 -1.01015,0 -2.0203,0 -3.03046,0 -0.33671,0 -0.70898,0.15059 -1.01015,0 -0.15058,-0.0753 0.11905,-0.38602 0,-0.50507 -0.23809,-0.2381 -0.69071,0.10648 -1.01015,0 -2.86161,-1.4308 0.75292,0.18823 -2.02031,-0.50508 -0.36522,-0.0913 -0.64493,-0.41377 -1.01015,-0.50507 -0.3973,-0.0993 -2.50522,0 -3.03046,0 -2.35702,0 -4.71404,0 -7.07106,0 -1.68359,0 -3.36718,0 -5.05077,0 -0.50483,0 -2.09327,-0.10803 -2.52538,0 -0.50508,0.16835 -1.01015,0.33671 -1.51523,0.50507 0,0.16836 0.11905,0.38603 0,0.50508 -0.1382,0.1382 -1.74631,-0.137 -2.0203,0 -0.60609,0.30304 -0.90914,1.21218 -1.51523,1.51523 -0.15059,0.0753 -0.38603,-0.11905 -0.50508,0 -0.11905,0.11904 0.0753,0.35449 0,0.50507 -0.10648,0.21296 -0.39859,0.29212 -0.50507,0.50508 -0.0753,0.15058 0,0.33672 0,0.50508 0,0.77264 0.0532,1.18283 -0.50508,2.0203 -0.0934,0.14008 -0.38603,-0.11905 -0.50508,0 -0.11904,0.11905 0.11905,0.38603 0,0.50508 -0.11904,0.11904 -0.36499,-0.0934 -0.50507,0 -0.39622,0.26414 -0.61394,0.74601 -1.01016,1.01015 -0.14008,0.0934 -0.34174,-0.0408 -0.50507,0 -0.5165,0.12912 -0.99873,0.37595 -1.51523,0.50508 -0.16333,0.0408 -0.34174,-0.0408 -0.50508,0 -0.5165,0.12912 -0.99317,0.40066 -1.51523,0.50507 -0.66035,0.13207 -1.34687,0 -2.0203,0 -1.17851,0 -2.35702,0 -3.53553,0 -0.60388,0 -2.70082,-0.10988 -3.03046,0 -0.91416,-0.30442 -0.93936,0.8182 -1.51523,1.01015 -0.61567,0.20523 -3.00048,-0.21402 -3.53554,0 -0.44213,0.17686 -0.58423,0.7972 -1.01015,1.01016 -0.14569,0.0728 -2.70765,0 -3.03046,0 -0.16835,0 -0.35449,0.0753 -0.50507,0 -0.21296,-0.10648 -0.33672,-0.33672 -0.50508,-0.50508 -0.16836,-0.16836 -0.39859,-0.29212 -0.50507,-0.50508 -0.0753,-0.15058 0.11904,-0.38602 0,-0.50507 -0.11905,-0.11905 -0.3545,0.0753 -0.50508,0 -0.21296,-0.10648 -0.29212,-0.3986 -0.50508,-0.50508 -0.30117,-0.15058 -0.70898,0.15059 -1.01015,0 -0.21296,-0.10648 -0.29212,-0.39859 -0.50508,-0.50507 -0.15058,-0.0753 -0.33671,0 -0.50507,0 -0.16836,0 -0.33672,0 -0.50508,0 -0.84179,0 -1.68359,0 -2.52538,0 -3.03046,0 -6.06091,0 -9.09137,0 -2.8621,0 -5.7242,0 -8.5863,0 -0.84179,0 -1.68359,0 -2.52538,0 -0.16836,0 -0.33672,0 -0.50508,0 -0.16836,0 -0.35449,-0.0753 -0.50507,0 -0.21296,0.10648 -0.29212,0.39859 -0.50508,0.50507 -0.15058,0.0753 -0.33672,0 -0.50508,0 -0.75176,0 -0.64467,-0.0753 -1.51522,0.50508 -0.19811,0.13207 -0.33672,0.33672 -0.50508,0.50507 -0.50508,0.50508 -1.01015,1.01016 -1.51523,1.51523 -0.16836,0.16836 -0.30697,0.37301 -0.50508,0.50508 -0.31323,0.20882 -0.67343,0.33672 -1.01015,0.50508 -0.33672,0.16835 -0.65301,0.38602 -1.01015,0.50507 -0.31944,0.10648 -0.69071,-0.10648 -1.01015,0 -0.35715,0.11905 -0.67344,0.33672 -1.01016,0.50508 -0.33671,0.16836 -0.69691,0.29625 -1.01015,0.50507 -0.19811,0.13208 -0.30697,0.37301 -0.50507,0.50508 -0.31324,0.20882 -0.65301,0.38603 -1.01016,0.50508 -0.15972,0.0532 -0.38603,-0.11905 -0.50507,0 -0.11905,0.11904 0.11904,0.38603 0,0.50507 -0.11905,0.11905 -0.35449,-0.0753 -0.50508,0 -0.21296,0.10648 -0.33672,0.33672 -0.50508,0.50508 -0.16835,0.16836 -0.33671,0.33672 -0.50507,0.50508 -0.16836,0.16835 -0.50508,0.26698 -0.50508,0.50507 0,0.16836 0.34536,-0.0532 0.50508,0 0.35714,0.11905 0.65301,0.38603 1.01015,0.50508 0.31944,0.10648 0.67344,0 1.01015,0 1.01016,0 2.02031,0 3.03046,0 0.16836,0 0.38603,0.11905 0.50508,0 0.11904,-0.11905 -0.11905,-0.38603 0,-0.50508 0.11904,-0.11905 0.34535,0.0532 0.50507,0 3.65848,-1.21949 -0.7963,0.14562 1.51523,-1.01015 0.30117,-0.15058 0.69072,0.10648 1.01015,0 0.35715,-0.11905 0.64494,-0.41377 1.01016,-0.50508 0.32666,-0.0817 0.69071,0.10648 1.01015,0 0.22588,-0.0753 0.29212,-0.39859 0.50508,-0.50507 0.15058,-0.0753 0.35449,0.0753 0.50507,0 0.21296,-0.10648 0.29212,-0.3986 0.50508,-0.50508 0.30117,-0.15058 0.77206,0.2381 1.01015,0 0.11905,-0.11905 -0.11905,-0.38603 0,-0.50508 0.2381,-0.23809 0.77206,0.2381 1.01015,0 0.11905,-0.11904 -0.11904,-0.38602 0,-0.50507 0.11905,-0.11905 0.34536,0.0532 0.50508,0 0.35714,-0.11905 0.65301,-0.38603 1.01015,-0.50508 0.15972,-0.0532 0.33672,0 0.50508,0 0.50507,0 1.01015,0 1.51523,0 1.17851,0 2.35702,0 3.53553,0 0.67344,0 1.34687,0 2.02031,0 0.16836,0 0.38603,0.11905 0.50507,0 0.11905,-0.11905 -0.11904,-0.38603 0,-0.50507 0.11905,-0.11905 0.33672,0 0.50508,0 0.33672,0 0.67343,0 1.01015,0 0.33373,0 2.91042,0.08 3.03046,0 0.39621,-0.26415 0.61394,-0.74601 1.01015,-1.01016 0.0672,-0.0448 2.26296,0 2.52538,0 0.8418,0 1.68359,0 2.52538,0 0.33672,0 0.69072,-0.10648 1.01016,0 0.71428,0.2381 1.30602,0.77206 2.0203,1.01016 0.31944,0.10648 0.68349,-0.0817 1.01015,0 0.51651,0.12912 0.99873,0.37595 1.51523,0.50507 0.16334,0.0408 0.34175,-0.0408 0.50508,0 0.5165,0.12913 0.99317,0.40067 1.51523,0.50508 0.49527,0.0991 1.01015,0 1.51523,0 1.17851,0 2.35702,0 3.53553,0 0.33672,0 0.67344,0 1.01015,0 0.16836,0 0.3545,-0.0753 0.50508,0 1.24825,0.62412 -0.17434,0.50507 1.01015,0.50507 0.97772,0 2.76542,-0.26503 3.53554,0.50508 0.11904,0.11905 0,0.33672 0,0.50508 0,0.16836 0,0.67343 0,0.50507 0,-0.33671 0.23809,-1.24824 0,-1.01015 -0.37647,0.37646 -0.20976,1.07225 -0.50508,1.51523 -0.0934,0.14008 -0.33672,0 -0.50508,0 -0.67343,0 -1.34687,0 -2.0203,0 -0.33672,0 -0.67344,0 -1.01015,0 -0.16836,0 -0.50508,0.16836 -0.50508,0 0,-0.16836 0.33672,0 0.50508,0 1.85194,0 3.70389,0 5.55584,0 0.67343,0 1.34687,0 2.0203,0 0.16836,0 0.33672,0 0.50508,0 0.16836,0 0.50507,-0.16836 0.50507,0 0,0.16836 -0.67343,0 -0.50507,0 0.33671,0 0.70898,-0.15058 1.01015,0 0.15058,0.0753 0.16836,0.50508 0,0.50508 -0.16836,0 -0.11905,-0.62413 0,-0.50508 0.2662,0.2662 0.23888,0.74395 0.50508,1.01015 0.11904,0.11905 0.33671,0 0.50507,0 0.16836,0 0.33672,0 0.50508,0 1.85194,0 3.70389,0 5.55584,0 0.16836,0 0.33671,0 0.50507,0 0.16836,0 0.38603,0.11905 0.50508,0 0.11905,-0.11905 -0.11905,-0.38603 0,-0.50507 0.11905,-0.11905 0.38603,0.11904 0.50508,0 0.11904,-0.11905 -0.15059,-0.42979 0,-0.50508 0.30117,-0.15058 0.69071,0.10648 1.01015,0 0.0396,-0.0132 1.50202,-1.47559 1.51523,-1.51523 0.10648,-0.31944 -0.18678,-0.72999 0,-1.01015 0.20882,-0.31324 0.69691,-0.29625 1.01015,-0.50508 0.19811,-0.13207 0.33672,-0.33672 0.50508,-0.50507 0.16835,-0.16836 0.39859,-0.29212 0.50507,-0.50508 0.0753,-0.15059 -0.0753,-0.35449 0,-0.50508 0.10648,-0.21296 0.33672,-0.33671 0.50508,-0.50507 0.33672,-0.33672 0.61394,-0.74601 1.01015,-1.01016 0.14008,-0.0934 0.33672,0 0.50508,0 0.33671,0 0.70898,0.15059 1.01015,0 0.15058,-0.0753 -0.15058,-0.42978 0,-0.50507 0.30117,-0.15059 0.68349,0.0817 1.01015,0 0.36522,-0.0913 0.65301,-0.38603 1.01016,-0.50508 0.15971,-0.0532 0.34535,0.0532 0.50507,0 0.35714,-0.11905 0.65301,-0.38603 1.01015,-0.50507 0.31702,-0.10568 1.6137,0 2.02031,0 1.68359,0 3.36717,0 5.05076,0 0.8418,0 1.68359,0 2.52538,0 0.33189,0 1.23027,-0.095 1.51523,0 3.65848,1.21949 -0.79631,-0.14562 1.51523,1.01015 0.15059,0.0753 0.35449,-0.0753 0.50508,0 2.31153,1.15577 -2.14325,-0.20934 1.51523,1.01015 0.31943,0.10648 0.69071,-0.10648 1.01015,0 0.35714,0.11905 0.65301,0.38603 1.01015,0.50508 0.47916,0.15972 1.02523,-0.1225 1.51523,0 0.36522,0.0913 0.65301,0.38603 1.01015,0.50507 0.27335,0.0911 1.84824,0 2.02031,0 1.17851,0 2.35702,0 3.53553,0 1.01015,0 2.02031,0 3.03046,0 0.16836,0 0.33672,0 0.50508,0 0.16835,0 0.35449,0.0753 0.50507,0 0.21296,-0.10648 0.3986,-0.29211 0.50508,-0.50507 0.0753,-0.15059 -0.15059,-0.42979 0,-0.50508 0.15803,-0.079 2.71748,0 3.03046,0 0.45289,0 3.80041,-0.0801 4.04061,0 0.22587,0.0753 0.29211,0.3986 0.50507,0.50508 0.30117,0.15058 0.70899,-0.15059 1.01015,0 0.21296,0.10648 0.29212,0.39859 0.50508,0.50507 0.15059,0.0753 0.35449,-0.0753 0.50508,0 0.21296,0.10648 0.29211,0.3986 0.50507,0.50508 0.15059,0.0753 0.38603,-0.11905 0.50508,0 0.11905,0.11905 -0.15059,0.42978 0,0.50508 0.60234,0.30117 1.36698,-0.16334 2.0203,0 0.36523,0.0913 0.64494,0.41377 1.01016,0.50507 0.32666,0.0817 0.69071,-0.10648 1.01015,0 0.22588,0.0753 0.29212,0.3986 0.50508,0.50508 0.15058,0.0753 0.33671,0 0.50507,0 0.33672,0 0.69072,-0.10648 1.01015,0 0.22588,0.0753 0.29212,0.3986 0.50508,0.50507 0.15059,0.0753 0.33672,0 0.50508,0 0.21246,0 2.88021,-0.0751 3.03045,0 0.21296,0.10648 0.29212,0.3986 0.50508,0.50508 0.15371,0.0769 1.28776,0 1.51523,0 1.34687,0 2.69374,0 4.04061,0 0.28191,0 2.29418,-0.0771 2.52538,0 0.45176,0.15059 0.58424,0.79719 1.01015,1.01015 0.15059,0.0753 0.33672,0 0.50508,0 0.33672,0 0.67344,0 1.01015,0 0.16836,0 0.33672,0 0.50508,0 0.16836,0 0.35449,-0.0753 0.50508,0 0.21295,0.10648 0.29211,0.3986 0.50507,0.50508 0.15371,0.0769 1.28777,0 1.51523,0 1.34687,0 2.69374,0 4.04061,0 3.87225,0 7.7445,0 11.61675,0 1.68359,0 3.36718,0 5.05077,0 0.33672,0 0.67343,0 1.01015,0 0.33672,0 0.70898,0.15058 1.01015,0 0.15059,-0.0753 -0.11904,-0.38603 0,-0.50508 0.0784,-0.0784 1.31869,0.0655 1.51523,0 0.35714,-0.11904 0.64493,-0.41377 1.01015,-0.50507 0.32667,-0.0817 0.67344,0 1.01016,0 0.33671,0 0.67343,0 1.01015,0 1.01015,0 2.0203,0 3.03046,0 3.19881,0 6.39763,0 9.59645,0 2.86209,0 5.72419,0 8.58629,0 0.33672,0 0.67344,0 1.01016,0 0.16835,0 0.38602,0.11904 0.50507,0 0.2381,-0.2381 -0.15058,-0.70899 0,-1.01016 0.55838,-1.11675 0.31347,-0.15673 1.01015,-0.50507 2.10201,-1.051 -0.53994,0.0349 0.50508,-1.01015 0.2662,-0.2662 0.74395,-0.23888 1.01015,-0.50508 0.11905,-0.11905 -0.11904,-0.38603 0,-0.50508 0.2662,-0.2662 0.65301,-0.38603 1.01016,-0.50507 0.15971,-0.0532 0.38602,0.11904 0.50507,0 0.2662,-0.2662 0.38603,-0.65301 0.50508,-1.01016 0.0532,-0.15971 -0.11905,-0.38602 0,-0.50507 0.25254,-0.25254 1.26269,0.25254 1.51523,0 0.11904,-0.11905 -0.0753,-0.35449 0,-0.50508 0.10648,-0.21296 0.39859,-0.29212 0.50507,-0.50507 0.0753,-0.15059 -0.11904,-0.38603 0,-0.50508 0.11905,-0.11905 0.35449,0.0753 0.50508,0 0.21296,-0.10648 0.29212,-0.3986 0.50508,-0.50508 0.15058,-0.0753 0.38602,0.11905 0.50507,0 0.2381,-0.23809 -0.15058,-0.70898 0,-1.01015 1.05101,-2.10201 -0.0349,0.53995 1.01015,-0.50508 0.0162,-0.0162 0,-1.39273 0,-1.51522 0,-1.17852 0,-2.35703 0,-3.53554 0,-0.16836 0,-0.33672 0,-0.50507 0,-0.16836 0.0753,-0.3545 0,-0.50508 -0.10647,-0.21296 -0.39859,-0.29212 -0.50507,-0.50508 -0.0769,-0.15371 0,-1.28776 0,-1.51523 0,-0.52251 0.11905,-0.69809 -0.50508,-1.01015 -0.15058,-0.0753 -0.33672,0 -0.50507,0 -0.67344,0 -1.34687,0 -2.02031,0 z"
         transform="matrix(1,0,0,0.90564215,0,73.229754)"
         id="path4038"
         style="fill:#7f602a;fill-opacity:1;stroke:none;filter:url(#filter4060)" />
      <path
         d="m 388.92857,726.6479 c -4.74568,-8.71209 15.85649,-3.45298 13.60653,-14.32126 5.21992,-8.83371 18.34221,-22.62496 28.62018,-13.99497 3.19032,6.62783 -1.68336,16.2088 7.503,19.01074 1.55089,6.11939 -3.80466,11.20472 2.18167,17.02446 4.19285,9.17362 -8.07129,21.20779 -17.40842,16.09327 -8.13548,-4.85696 -15.42085,-8.18257 -23.99295,-2.18406 -12.48233,4.46867 -8.17334,-15.19766 -10.51001,-21.62818 z"
         id="path4064"
         style="fill:url(#radialGradient4072);fill-opacity:1;stroke:#000000;stroke-width:1px;stroke-linecap:butt;stroke-linejoin:miter;stroke-opacity:1" />
      <path
         d="m 270.09319,776.25996 c 2.99697,-3.88309 -0.48305,-7.30417 -5.03022,-6.75467 -3.90764,-0.15736 -9.78891,-1.8878 -13.50289,-2.30547 3.43224,-0.91161 7.62674,-2.40267 10.85443,-3.90104 3.95227,-1.80579 8.1372,-3.11797 12.47537,-3.50391 5.8146,-1.06646 12.19543,-4.16301 13.86021,-10.33226 0.97203,-3.47741 4.74571,-9.93785 0.49261,-11.97255 -4.00602,-0.26029 -7.41166,2.46692 -10.72859,4.36237 -3.74939,2.44681 -8.16749,4.04517 -12.69614,3.53292 -7.01139,0.023 -14.02284,0.007 -21.03422,-0.0121 1.58961,0.39362 -3.51071,0.94149 -4.19982,1.69396 -5.14942,3.80293 -8.86048,9.34527 -11.71477,15.02853 -1.72014,4.06099 -2.65111,8.47808 -5.12352,12.20948 -2.51338,4.6537 -6.3639,9.26309 -5.76854,14.89219 1.53497,3.82213 6.26025,2.81071 9.50933,3.49069 5.12396,1.26312 6.71084,2.61595 11.31927,5.16841 7.27471,3.04661 26.00467,0.0247 31.12899,-5.49678 5.59858,-3.99173 6.29059,-1.01547 11.82875,-5.22028 3.76324,-2.18345 6.63741,-6.99211 4.86033,-11.32125 1.75692,-2.66043 3.0259,4.12665 1.50481,5.6009 -2.37121,6.18502 -9.39963,8.7652 -15.55293,9.02267 -1.38298,0.36143 -1.25045,0.97267 -3.02938,2.17259 -5.23558,4.69629 -17.94266,7.10286 -24.62728,5.56845 -4.43279,-1.65077 -10.88512,-3.25426 -15.55147,-4.34115 -3.43389,-1.06915 -7.05165,-1.29401 -10.55404,-1.95215 -4.37993,-2.49351 -1.86653,-8.40773 0.0778,-11.782 2.93452,-5.2972 6.39715,-10.43263 7.75231,-16.42555 2.64519,-6.02087 6.44731,-11.67992 11.43312,-15.99798 5.0498,-3.60204 10.67941,-3.34099 16.46053,-3.53691 5.05771,-0.10168 10.9451,1.38192 15.95099,0.56501 6.42579,-1.73639 11.23561,-7.51521 18.1551,-7.79585 4.9936,-0.44 4.55807,5.77477 2.91112,8.81308 -1.21349,4.80359 -3.51036,9.86897 -8.33552,11.9681 -6.33354,3.12797 -13.83887,2.55867 -20.04891,6.06623 -3.60213,1.36739 -7.27326,3.69567 -11.23204,3.28808 4.48095,-0.30549 8.23627,1.81855 12.72557,1.84862 4.4132,-0.49661 9.91227,2.73903 7.08756,6.73772 -0.46276,0.37515 -1.03327,0.76967 -1.65789,0.62193 z"
         id="path4088"
         style="fill:#000000;fill-opacity:1;stroke:none" />
      <path
         d="m 370.71429,713.07647 c 10.96595,-7.96047 22.7694,-14.78364 33.89876,-22.32934 5.06014,-5.65574 19.4466,-6.34672 12.48134,4.11821 -5.04753,11.06841 15.41153,11.77302 9.83118,22.28368 -1.27113,16.0095 -19.59359,9.02502 -30.28504,9.57783 -16.2741,6.05416 -25.63369,-13.5085 -25.0615,-14.12073 0.33885,-1.49723 2.77259,-1.58515 3.77811,-2.74394"
         id="path3020"
         style="fill:#ffffff;stroke:none" />
      <path
         d="m 371.51787,711.82647 c 10.96595,-7.96047 21.60868,-13.53364 32.73804,-21.07934 5.06014,-5.65574 19.4466,-6.34672 12.48134,4.11821 -5.04753,11.06841 15.41153,11.77302 9.83118,22.28368 -1.27113,16.0095 -19.59359,9.02502 -30.28504,9.57783 -9.3991,1.58987 -15.63369,10.42007 -23.81151,-12.24574 -1.179,-1.14008 -1.42383,-1.94228 -0.41831,-3.10107"
         id="path4074"
         style="fill:url(#radialGradient4082);fill-opacity:1;stroke:#000000;stroke-width:1px;stroke-linecap:butt;stroke-linejoin:miter;stroke-opacity:1" />
      <path
         d="m 344.3401,686.51527 c 5.25418,3.57814 3.052,12.25862 -2.27854,14.61467 -12.32273,7.73278 -24.19932,16.61345 -38.20113,21.14225 -16.33468,6.02469 -33.1843,10.84706 -50.36893,13.69878 -6.94845,0.82953 -14.31579,1.53648 -21.0701,-0.48475 -5.64815,-3.93882 -3.93156,-12.07714 -1.47385,-17.49806 14.76799,-24.63408 42.14321,-30.48202 54.07011,-32.68535 22.74052,-2.5003 38.64053,-5.13918 59.32244,1.21246 z"
         id="path4107"
         style="fill:url(#linearGradient5012);fill-opacity:1;stroke:none" />
    </g>
  </g>
</svg>
